<svg width="100" height="86" viewBox="0 0 100 86" fill="none" xmlns="http://www.w3.org/2000/svg">
<mask id="path-1-inside-1_347_566" fill="white">
<path d="M80.8774 1.85039L79.4934 1.72139L78.1804 1.69539C77.2924 1.71039 76.3894 1.74138 75.4924 1.83938C73.6964 2.02038 71.9044 2.31339 70.1284 2.70639C66.5724 3.47339 63.0894 4.60839 59.7094 5.93739C58.0224 6.61739 56.3784 7.35538 54.7984 8.22038L52.3524 9.53839L50.0054 10.9254C49.2184 11.3734 48.4544 11.8714 47.6844 12.3654C46.9174 12.8614 46.1334 13.3314 45.3794 13.8484C43.8784 14.8904 42.3644 15.9144 40.9244 17.0434C39.4454 18.1204 38.0654 19.3204 36.6304 20.4544C35.2614 21.6654 33.8444 22.8274 32.5414 24.1124C31.1934 25.3514 29.9204 26.6674 28.6544 27.9904C28.0084 28.6404 27.4254 29.3484 26.8084 30.0244C26.1984 30.7074 25.5814 31.3854 25.0124 32.1034L23.2694 34.2284L21.6314 36.4354C20.5314 37.9014 19.5314 39.4404 18.5384 40.9784C17.5844 42.5424 16.6034 44.0914 15.7704 45.7244C14.8624 47.3154 14.1434 49.0054 13.3724 50.6614C13.0824 51.2844 12.3414 51.5554 11.7184 51.2644C11.1184 50.9854 10.8484 50.2824 11.0874 49.6744C11.1284 49.5704 11.1804 49.4674 11.2414 49.3724C11.2864 49.2904 11.4444 49.1134 11.5744 49.0194C11.7044 48.9144 11.9354 48.8104 12.1344 48.7724C12.3134 48.7384 12.5174 48.7444 12.6724 48.7754C13.2474 48.9234 13.4014 49.1464 13.5784 49.3254C13.7394 49.5204 13.8594 49.7194 13.9414 50.0034C14.0194 50.2794 14.0564 50.7314 13.8054 51.1834C13.6774 51.4144 13.5154 51.5704 13.3324 51.7014L13.1894 51.7904C13.1984 51.7874 13.1164 51.8324 13.0254 51.8724C12.6834 52.0134 12.4794 52.0234 12.2344 52.0234C11.7724 52.0054 11.4724 51.8704 11.2334 51.7554C10.9934 51.6334 10.8104 51.5084 10.6444 51.3854L10.2824 51.1234L9.55942 50.5984L6.66442 48.5014C4.72842 47.1114 2.80242 45.7084 0.912422 44.2624L4.06042 42.8064L4.05242 47.9694C4.04542 49.6904 4.02942 51.4104 3.99142 53.1314L3.92742 58.2964C3.90742 60.0184 3.91442 61.7414 3.94242 63.4634C3.96442 65.1854 4.00842 66.9074 4.08842 68.6284L4.34542 73.7894C4.54242 77.2294 4.78842 80.6664 5.08242 84.0994L3.30042 82.6984C6.77942 82.2464 10.2024 81.8864 13.6524 81.6324C17.0944 81.3554 20.5384 81.1444 23.9834 80.9594L29.1484 80.6644C30.8714 80.5844 32.5894 80.4374 34.3114 80.3364C36.0334 80.2274 37.7554 80.1314 39.4794 79.9984L42.0744 79.7944L43.3904 79.6874L44.0784 79.6514C44.2004 79.6484 44.3024 79.6394 44.4704 79.6484L44.7004 79.6584C44.6674 79.6484 44.9364 79.6814 45.1394 79.7704C45.3474 79.8554 45.5374 79.9894 45.6774 80.1274C46.1824 80.6294 46.1854 81.4464 45.6834 81.9514C45.2184 82.4194 44.4824 82.4564 43.9744 82.0594L43.8464 81.9594C41.5544 80.1734 39.2974 78.3164 37.2334 76.2554C36.1894 75.2374 35.2104 74.1544 34.2334 73.0724C33.2574 71.9884 32.3474 70.8474 31.4414 69.7054L31.4184 69.6774C30.9244 69.0554 30.9414 68.1924 31.4094 67.5924C33.3294 65.1294 35.2954 62.6924 37.3224 60.2974C38.3384 59.1014 39.3694 57.9184 40.4194 56.7484C41.4754 55.5834 42.5514 54.4354 43.6484 53.3064C44.7534 52.1834 45.8804 51.0814 47.0324 50.0034C48.1934 48.9334 49.3784 47.8904 50.5864 46.8714L52.4304 45.3814L54.3244 43.9504L56.2624 42.5784L58.2424 41.2634L60.2574 40.0394L62.3684 38.8774L64.5034 37.8144L66.6754 36.8264L68.8854 35.9174L71.1344 35.0944L73.4204 34.3584L75.7474 33.7354C76.5304 33.5554 77.3224 33.4034 78.1114 33.2384L80.5084 32.8734L82.9304 32.6474L85.3704 32.6024C86.1844 32.6244 86.9994 32.6864 87.8134 32.7334L90.2464 33.0384L92.6514 33.5304L95.0184 34.1894L93.4504 37.3404C90.4784 35.1534 87.5244 32.9054 84.6914 30.4864C81.8454 28.0844 79.1274 25.5054 76.6154 22.7364L75.6644 21.6764C75.3314 21.2824 74.9324 20.7874 74.6734 20.0974C74.6394 20.0004 74.6194 19.9494 74.5804 19.8084L74.5304 19.6014C74.4814 19.3744 74.4634 19.2164 74.4524 19.0404C74.4304 18.6964 74.4534 18.3724 74.4974 18.0754C74.5874 17.4804 74.7494 16.9794 74.8934 16.5344C75.4764 14.7924 76.0364 13.0444 76.6424 11.3094C77.8434 7.83639 79.0084 4.35338 80.2514 0.893385L80.2544 0.885389C80.3944 0.496389 80.8224 0.294385 81.2114 0.434385C81.5764 0.565385 81.7764 0.954386 81.6844 1.32239C80.7834 4.88539 79.8044 8.42439 78.8614 11.9744C78.3954 13.7514 77.8834 15.5134 77.3934 17.2834C77.1354 18.1514 77.0664 18.8284 77.2284 19.1084C77.3024 19.2784 77.4814 19.5194 77.7564 19.8074L78.6914 20.7544C81.2494 23.2984 83.9694 25.6714 86.7914 27.9364C89.6244 30.1884 92.5584 32.3354 95.5374 34.4484C96.3394 35.0174 96.5284 36.1284 95.9594 36.9294C95.5214 37.5474 94.7604 37.8014 94.0664 37.6244L93.9684 37.5984L91.8344 37.0474L89.6654 36.6464L87.4744 36.3704L85.2654 36.2234L83.0444 36.1914L80.8154 36.2574L78.5854 36.4484L76.3594 36.7594L74.1444 37.1824L71.9464 37.7184L69.7774 38.3824C69.0664 38.6404 68.3494 38.8874 67.6444 39.1644L65.5544 40.0614L63.5144 41.0694L61.5444 42.1584L59.5784 43.3584L57.6784 44.6264L55.8334 45.9754L54.0384 47.3944L52.2904 48.8724L50.5854 50.4044L48.9274 51.9894C47.8404 53.0664 46.7744 54.1654 45.7304 55.2874C44.6934 56.4164 43.6754 57.5644 42.6764 58.7304C41.6824 59.9024 40.7044 61.0884 39.7414 62.2874C37.8204 64.6924 35.9754 67.1654 34.1514 69.6614L34.1194 67.5484C35.0064 68.6394 35.9404 69.6904 36.8564 70.7554C37.7714 71.8224 38.7354 72.8454 39.6794 73.8884L42.5614 76.9774C43.5294 78.0034 44.5184 79.0124 45.5404 79.9914L43.7094 81.8244C43.7974 81.9484 43.9364 82.0664 44.0924 82.1364C44.2434 82.2114 44.4614 82.2244 44.3744 82.2154L44.2834 82.2024C44.2374 82.1904 44.1224 82.1854 44.0304 82.1784L43.4264 82.1464L42.1614 82.1164C41.3104 82.1204 40.4524 82.1304 39.5964 82.1604C37.8824 82.2164 36.1684 82.3424 34.4544 82.4674C32.7414 82.6014 31.0244 82.7034 29.3134 82.8814L24.1804 83.3964L13.9294 84.5424C10.5254 84.9604 7.09242 85.2814 3.75042 85.7884C2.90242 85.9174 2.10941 85.3344 1.98041 84.4854L1.97141 84.4114L1.96842 84.3864C1.62342 80.9274 1.33142 77.4624 1.09342 73.9934C0.840421 70.5254 0.695425 67.0514 0.490425 63.5784L0.231422 58.3654C0.146422 56.6274 0.0884173 54.8874 0.0454172 53.1474C-0.0505828 49.6674 0.00941443 46.1844 0.189414 42.7084L0.194419 42.6054C0.249419 41.5534 1.14642 40.7444 2.19842 40.7984C2.63442 40.8214 3.02942 40.9884 3.33742 41.2514C5.14942 42.7954 6.92542 44.3824 8.69242 45.9824L11.3514 48.3704L12.4964 49.3964C12.5174 49.4214 12.5024 49.3984 12.3394 49.3934C12.2424 49.4024 12.1904 49.3914 11.9854 49.4764C11.9294 49.5024 11.8824 49.5354 11.9234 49.5124L11.9484 49.5004L11.9614 49.4944L11.9674 49.4914C11.9314 49.5124 12.0504 49.4414 11.8884 49.5394L11.8764 49.5474C11.7504 49.6314 11.6484 49.7414 11.5534 49.9034C11.3774 50.2254 11.4164 50.5194 11.4574 50.6514C11.5004 50.7914 11.5454 50.8584 11.6144 50.9374C11.6994 51.0024 11.7334 51.1214 12.1614 51.2364C12.2804 51.2624 12.4454 51.2684 12.5884 51.2364C12.7544 51.2144 12.9454 51.1134 13.0484 51.0354C13.1534 50.9694 13.2764 50.8114 13.3064 50.7634C13.3494 50.7014 13.3844 50.6314 13.4084 50.5604L11.1224 49.5744C12.0604 47.9434 12.9164 46.2764 13.8894 44.6724C14.8214 43.0464 15.8074 41.4554 16.8124 39.8744C17.3034 39.0774 17.8624 38.3244 18.3814 37.5454C18.9024 36.7674 19.4234 35.9904 19.9914 35.2454L21.6584 32.9854L23.3974 30.7794C23.9654 30.0344 24.5814 29.3284 25.1904 28.6174C25.8074 27.9134 26.3904 27.1774 27.0364 26.4994C28.3064 25.1214 29.5774 23.7444 30.9254 22.4404C32.2304 21.0924 33.6504 19.8654 35.0254 18.5884C36.4584 17.3784 37.8744 16.1434 39.3864 15.0294C40.8584 13.8634 42.4064 12.8014 43.9434 11.7224C44.7144 11.1864 45.5164 10.6984 46.3024 10.1844C47.0834 9.66639 47.8894 9.18138 48.7174 8.72038L51.1774 7.32039L53.6444 6.04138C55.3284 5.15338 57.0834 4.39938 58.8424 3.72238C62.3754 2.38938 66.0144 1.38938 69.7244 0.699385C71.5764 0.341385 73.4634 0.135389 75.3604 0.0383892C76.3104 -0.0176108 77.2614 -0.00462055 78.2244 0.0283794L79.6864 0.14839L81.0594 0.365385C81.4674 0.429385 81.7464 0.813388 81.6824 1.22139C81.6264 1.61439 81.2664 1.88639 80.8774 1.85039Z"/>
</mask>
<path d="M80.8774 1.85039L79.4934 1.72139L78.1804 1.69539C77.2924 1.71039 76.3894 1.74138 75.4924 1.83938C73.6964 2.02038 71.9044 2.31339 70.1284 2.70639C66.5724 3.47339 63.0894 4.60839 59.7094 5.93739C58.0224 6.61739 56.3784 7.35538 54.7984 8.22038L52.3524 9.53839L50.0054 10.9254C49.2184 11.3734 48.4544 11.8714 47.6844 12.3654C46.9174 12.8614 46.1334 13.3314 45.3794 13.8484C43.8784 14.8904 42.3644 15.9144 40.9244 17.0434C39.4454 18.1204 38.0654 19.3204 36.6304 20.4544C35.2614 21.6654 33.8444 22.8274 32.5414 24.1124C31.1934 25.3514 29.9204 26.6674 28.6544 27.9904C28.0084 28.6404 27.4254 29.3484 26.8084 30.0244C26.1984 30.7074 25.5814 31.3854 25.0124 32.1034L23.2694 34.2284L21.6314 36.4354C20.5314 37.9014 19.5314 39.4404 18.5384 40.9784C17.5844 42.5424 16.6034 44.0914 15.7704 45.7244C14.8624 47.3154 14.1434 49.0054 13.3724 50.6614C13.0824 51.2844 12.3414 51.5554 11.7184 51.2644C11.1184 50.9854 10.8484 50.2824 11.0874 49.6744C11.1284 49.5704 11.1804 49.4674 11.2414 49.3724C11.2864 49.2904 11.4444 49.1134 11.5744 49.0194C11.7044 48.9144 11.9354 48.8104 12.1344 48.7724C12.3134 48.7384 12.5174 48.7444 12.6724 48.7754C13.2474 48.9234 13.4014 49.1464 13.5784 49.3254C13.7394 49.5204 13.8594 49.7194 13.9414 50.0034C14.0194 50.2794 14.0564 50.7314 13.8054 51.1834C13.6774 51.4144 13.5154 51.5704 13.3324 51.7014L13.1894 51.7904C13.1984 51.7874 13.1164 51.8324 13.0254 51.8724C12.6834 52.0134 12.4794 52.0234 12.2344 52.0234C11.7724 52.0054 11.4724 51.8704 11.2334 51.7554C10.9934 51.6334 10.8104 51.5084 10.6444 51.3854L10.2824 51.1234L9.55942 50.5984L6.66442 48.5014C4.72842 47.1114 2.80242 45.7084 0.912422 44.2624L4.06042 42.8064L4.05242 47.9694C4.04542 49.6904 4.02942 51.4104 3.99142 53.1314L3.92742 58.2964C3.90742 60.0184 3.91442 61.7414 3.94242 63.4634C3.96442 65.1854 4.00842 66.9074 4.08842 68.6284L4.34542 73.7894C4.54242 77.2294 4.78842 80.6664 5.08242 84.0994L3.30042 82.6984C6.77942 82.2464 10.2024 81.8864 13.6524 81.6324C17.0944 81.3554 20.5384 81.1444 23.9834 80.9594L29.1484 80.6644C30.8714 80.5844 32.5894 80.4374 34.3114 80.3364C36.0334 80.2274 37.7554 80.1314 39.4794 79.9984L42.0744 79.7944L43.3904 79.6874L44.0784 79.6514C44.2004 79.6484 44.3024 79.6394 44.4704 79.6484L44.7004 79.6584C44.6674 79.6484 44.9364 79.6814 45.1394 79.7704C45.3474 79.8554 45.5374 79.9894 45.6774 80.1274C46.1824 80.6294 46.1854 81.4464 45.6834 81.9514C45.2184 82.4194 44.4824 82.4564 43.9744 82.0594L43.8464 81.9594C41.5544 80.1734 39.2974 78.3164 37.2334 76.2554C36.1894 75.2374 35.2104 74.1544 34.2334 73.0724C33.2574 71.9884 32.3474 70.8474 31.4414 69.7054L31.4184 69.6774C30.9244 69.0554 30.9414 68.1924 31.4094 67.5924C33.3294 65.1294 35.2954 62.6924 37.3224 60.2974C38.3384 59.1014 39.3694 57.9184 40.4194 56.7484C41.4754 55.5834 42.5514 54.4354 43.6484 53.3064C44.7534 52.1834 45.8804 51.0814 47.0324 50.0034C48.1934 48.9334 49.3784 47.8904 50.5864 46.8714L52.4304 45.3814L54.3244 43.9504L56.2624 42.5784L58.2424 41.2634L60.2574 40.0394L62.3684 38.8774L64.5034 37.8144L66.6754 36.8264L68.8854 35.9174L71.1344 35.0944L73.4204 34.3584L75.7474 33.7354C76.5304 33.5554 77.3224 33.4034 78.1114 33.2384L80.5084 32.8734L82.9304 32.6474L85.3704 32.6024C86.1844 32.6244 86.9994 32.6864 87.8134 32.7334L90.2464 33.0384L92.6514 33.5304L95.0184 34.1894L93.4504 37.3404C90.4784 35.1534 87.5244 32.9054 84.6914 30.4864C81.8454 28.0844 79.1274 25.5054 76.6154 22.7364L75.6644 21.6764C75.3314 21.2824 74.9324 20.7874 74.6734 20.0974C74.6394 20.0004 74.6194 19.9494 74.5804 19.8084L74.5304 19.6014C74.4814 19.3744 74.4634 19.2164 74.4524 19.0404C74.4304 18.6964 74.4534 18.3724 74.4974 18.0754C74.5874 17.4804 74.7494 16.9794 74.8934 16.5344C75.4764 14.7924 76.0364 13.0444 76.6424 11.3094C77.8434 7.83639 79.0084 4.35338 80.2514 0.893385L80.2544 0.885389C80.3944 0.496389 80.8224 0.294385 81.2114 0.434385C81.5764 0.565385 81.7764 0.954386 81.6844 1.32239C80.7834 4.88539 79.8044 8.42439 78.8614 11.9744C78.3954 13.7514 77.8834 15.5134 77.3934 17.2834C77.1354 18.1514 77.0664 18.8284 77.2284 19.1084C77.3024 19.2784 77.4814 19.5194 77.7564 19.8074L78.6914 20.7544C81.2494 23.2984 83.9694 25.6714 86.7914 27.9364C89.6244 30.1884 92.5584 32.3354 95.5374 34.4484C96.3394 35.0174 96.5284 36.1284 95.9594 36.9294C95.5214 37.5474 94.7604 37.8014 94.0664 37.6244L93.9684 37.5984L91.8344 37.0474L89.6654 36.6464L87.4744 36.3704L85.2654 36.2234L83.0444 36.1914L80.8154 36.2574L78.5854 36.4484L76.3594 36.7594L74.1444 37.1824L71.9464 37.7184L69.7774 38.3824C69.0664 38.6404 68.3494 38.8874 67.6444 39.1644L65.5544 40.0614L63.5144 41.0694L61.5444 42.1584L59.5784 43.3584L57.6784 44.6264L55.8334 45.9754L54.0384 47.3944L52.2904 48.8724L50.5854 50.4044L48.9274 51.9894C47.8404 53.0664 46.7744 54.1654 45.7304 55.2874C44.6934 56.4164 43.6754 57.5644 42.6764 58.7304C41.6824 59.9024 40.7044 61.0884 39.7414 62.2874C37.8204 64.6924 35.9754 67.1654 34.1514 69.6614L34.1194 67.5484C35.0064 68.6394 35.9404 69.6904 36.8564 70.7554C37.7714 71.8224 38.7354 72.8454 39.6794 73.8884L42.5614 76.9774C43.5294 78.0034 44.5184 79.0124 45.5404 79.9914L43.7094 81.8244C43.7974 81.9484 43.9364 82.0664 44.0924 82.1364C44.2434 82.2114 44.4614 82.2244 44.3744 82.2154L44.2834 82.2024C44.2374 82.1904 44.1224 82.1854 44.0304 82.1784L43.4264 82.1464L42.1614 82.1164C41.3104 82.1204 40.4524 82.1304 39.5964 82.1604C37.8824 82.2164 36.1684 82.3424 34.4544 82.4674C32.7414 82.6014 31.0244 82.7034 29.3134 82.8814L24.1804 83.3964L13.9294 84.5424C10.5254 84.9604 7.09242 85.2814 3.75042 85.7884C2.90242 85.9174 2.10941 85.3344 1.98041 84.4854L1.97141 84.4114L1.96842 84.3864C1.62342 80.9274 1.33142 77.4624 1.09342 73.9934C0.840421 70.5254 0.695425 67.0514 0.490425 63.5784L0.231422 58.3654C0.146422 56.6274 0.0884173 54.8874 0.0454172 53.1474C-0.0505828 49.6674 0.00941443 46.1844 0.189414 42.7084L0.194419 42.6054C0.249419 41.5534 1.14642 40.7444 2.19842 40.7984C2.63442 40.8214 3.02942 40.9884 3.33742 41.2514C5.14942 42.7954 6.92542 44.3824 8.69242 45.9824L11.3514 48.3704L12.4964 49.3964C12.5174 49.4214 12.5024 49.3984 12.3394 49.3934C12.2424 49.4024 12.1904 49.3914 11.9854 49.4764C11.9294 49.5024 11.8824 49.5354 11.9234 49.5124L11.9484 49.5004L11.9614 49.4944L11.9674 49.4914C11.9314 49.5124 12.0504 49.4414 11.8884 49.5394L11.8764 49.5474C11.7504 49.6314 11.6484 49.7414 11.5534 49.9034C11.3774 50.2254 11.4164 50.5194 11.4574 50.6514C11.5004 50.7914 11.5454 50.8584 11.6144 50.9374C11.6994 51.0024 11.7334 51.1214 12.1614 51.2364C12.2804 51.2624 12.4454 51.2684 12.5884 51.2364C12.7544 51.2144 12.9454 51.1134 13.0484 51.0354C13.1534 50.9694 13.2764 50.8114 13.3064 50.7634C13.3494 50.7014 13.3844 50.6314 13.4084 50.5604L11.1224 49.5744C12.0604 47.9434 12.9164 46.2764 13.8894 44.6724C14.8214 43.0464 15.8074 41.4554 16.8124 39.8744C17.3034 39.0774 17.8624 38.3244 18.3814 37.5454C18.9024 36.7674 19.4234 35.9904 19.9914 35.2454L21.6584 32.9854L23.3974 30.7794C23.9654 30.0344 24.5814 29.3284 25.1904 28.6174C25.8074 27.9134 26.3904 27.1774 27.0364 26.4994C28.3064 25.1214 29.5774 23.7444 30.9254 22.4404C32.2304 21.0924 33.6504 19.8654 35.0254 18.5884C36.4584 17.3784 37.8744 16.1434 39.3864 15.0294C40.8584 13.8634 42.4064 12.8014 43.9434 11.7224C44.7144 11.1864 45.5164 10.6984 46.3024 10.1844C47.0834 9.66639 47.8894 9.18138 48.7174 8.72038L51.1774 7.32039L53.6444 6.04138C55.3284 5.15338 57.0834 4.39938 58.8424 3.72238C62.3754 2.38938 66.0144 1.38938 69.7244 0.699385C71.5764 0.341385 73.4634 0.135389 75.3604 0.0383892C76.3104 -0.0176108 77.2614 -0.00462055 78.2244 0.0283794L79.6864 0.14839L81.0594 0.365385C81.4674 0.429385 81.7464 0.813388 81.6824 1.22139C81.6264 1.61439 81.2664 1.88639 80.8774 1.85039Z" fill="black" stroke="#D51F1F" stroke-width="2" mask="url(#path-1-inside-1_347_566)"/>
<path d="M39.5192 69.087L39.513 69.0946C38.8444 69.9093 38.273 70.7357 37.6873 71.5827C37.4438 71.9349 37.1978 72.2907 36.9413 72.6507M39.5192 69.087L36.9407 72.6515C36.9409 72.6513 36.9411 72.651 36.9413 72.6507M39.5192 69.087L39.5252 69.0791C40.4238 67.8919 41.3788 66.7662 42.3508 65.6393C43.3147 64.5263 44.3433 63.4628 45.3933 62.4127C46.4578 61.3702 47.5237 60.3433 48.6413 59.3778L48.6478 59.3722L48.6541 59.3664C49.3953 58.6806 50.1698 58.0511 50.959 57.4097C51.3226 57.1142 51.6894 56.8161 52.0574 56.5088C52.3675 56.2801 52.6734 56.0509 52.9777 55.8229C53.8654 55.1579 54.7388 54.5036 55.6577 53.9042L55.6644 53.8998L55.671 53.8951C56.8841 53.0469 58.1415 52.2599 59.4178 51.4841C60.6959 50.727 61.9984 50.0063 63.3175 49.3189C64.6512 48.6396 65.9783 47.9752 67.3379 47.3873L67.3446 47.3844L67.3513 47.3813C68.2769 46.9485 69.2198 46.5823 70.1806 46.2092C70.6087 46.0429 71.0404 45.8752 71.4758 45.6996C71.9312 45.5466 72.3779 45.3896 72.8207 45.2339C73.783 44.8957 74.7271 44.5639 75.7031 44.2932L75.707 44.2921C75.9569 44.2206 76.1998 44.1493 76.4405 44.0786C76.9137 43.9396 77.3785 43.803 77.8713 43.6728L77.8716 43.6727C78.5561 43.4912 79.2953 43.318 80.0463 43.1474C82.9713 42.5055 85.9707 42.1398 88.9989 42.1614C91.1256 42.1941 93.2737 42.4007 95.3527 42.9178L95.4928 43.8748L95.4927 43.8748L95.4941 43.8834C95.5264 44.0801 95.5619 44.2885 95.6124 44.5234M39.5192 69.087L37.0258 73.3375M36.9413 72.6507C36.7906 72.8641 36.8238 73.1631 37.0258 73.3375M36.9413 72.6507C36.9414 72.6506 36.9415 72.6504 36.9416 72.6503L37.0258 73.3375M37.0258 73.3375C37.2397 73.5205 37.5615 73.4955 37.7441 73.2828L37.7469 73.2795L37.7582 73.2666C37.7586 73.2661 37.7591 73.2656 37.7595 73.2651C38.0895 72.8809 38.4225 72.4794 38.7584 72.0743C39.3631 71.3452 39.9771 70.6049 40.5993 69.9344C41.543 68.8467 42.5538 67.806 43.5645 66.7813L43.5692 66.7766L43.5692 66.7766C44.5927 65.7661 45.6243 64.7515 46.6935 63.776L46.6958 63.7739C47.7624 62.8132 48.8442 61.853 49.9799 60.9521C50.7308 60.3124 51.5317 59.7155 52.3165 59.1306C52.6834 58.8571 53.0467 58.5863 53.3998 58.3149L53.4117 58.3058L53.4241 58.2974C53.838 58.0171 54.2566 57.7199 54.6803 57.419C55.43 56.8867 56.1958 56.3429 56.9799 55.8612C58.1833 55.059 59.4252 54.326 60.66 53.6073L60.6605 53.607C61.9061 52.884 63.1741 52.1976 64.4555 51.5449L64.46 51.5426L64.46 51.5426C65.739 50.9071 67.0324 50.2733 68.3629 49.7126C69.2582 49.2914 70.188 48.9249 71.1002 48.5654C71.5191 48.4003 71.9342 48.2366 72.3406 48.0698L72.3551 48.0639L72.3699 48.0589C72.7909 47.916 73.2174 47.7639 73.6481 47.6103C74.5668 47.2826 75.505 46.9479 76.4519 46.6815C76.6876 46.6096 76.9307 46.5331 77.1762 46.4558C77.6175 46.317 78.0665 46.1756 78.4941 46.0544C79.2208 45.8479 79.9048 45.6762 80.5764 45.51L80.5842 45.5081L80.5842 45.5082C83.359 44.8686 86.1859 44.406 89.0167 44.3166L89.0174 44.3166C91.2884 44.2481 93.5529 44.4492 95.7271 44.9672C95.7268 44.9664 95.7265 44.9655 95.7262 44.9647L95.7226 44.9543L95.7195 44.9438C95.6713 44.7827 95.638 44.6454 95.6124 44.5234M95.6124 44.5234C95.6125 44.5238 95.6126 44.5242 95.6127 44.5246L96.1015 44.4194L95.6121 44.5217C95.6122 44.5223 95.6123 44.5228 95.6124 44.5234ZM97.7643 43.7124L97.6929 45.4696C97.7629 45.466 97.8313 45.4554 97.8921 45.4392C98.1502 45.3662 98.3739 45.1779 98.4793 44.9165C98.5573 44.7217 98.5614 44.516 98.5048 44.3302C98.4939 44.3216 98.486 44.3146 98.4812 44.3103C98.4626 44.2936 98.449 44.2788 98.4414 44.2703C98.4374 44.2658 98.4339 44.2617 98.4307 44.2579C98.4274 44.2539 98.4246 44.2504 98.4223 44.2475L98.4162 44.2396L98.4136 44.2362L98.4124 44.2346L98.4119 44.2339L98.4116 44.2335C98.4116 44.2334 98.4115 44.2334 98.4469 44.2073C98.4468 44.2073 98.4467 44.2073 98.4467 44.2072L98.4114 44.2332L98.3629 44.1672L98.3381 44.0892L97.7643 43.7124ZM97.7643 43.7124C97.7677 43.713 97.7711 43.7135 97.7744 43.7141L97.7744 43.7142L97.7824 43.7154C97.8373 43.724 97.8963 43.7421 97.9496 43.7633C98.0021 43.7841 98.0377 43.8032 98.0428 43.806L98.0614 43.8164L98.0801 43.8248C98.0801 43.8249 98.0901 43.83 98.1102 43.8442C98.1315 43.8593 98.1559 43.8788 98.1808 43.9006C98.2055 43.9223 98.2274 43.9433 98.2435 43.9599C98.2466 43.9631 98.2494 43.966 98.2517 43.9685C98.2545 43.9714 98.2567 43.9739 98.2584 43.9757L98.2726 43.9954L98.2961 44.02C98.293 44.0167 98.2931 44.0169 98.296 44.021C98.3 44.0267 98.3091 44.0398 98.3223 44.0618C98.3283 44.0718 98.3337 44.0813 98.3381 44.0891L97.7643 43.7124ZM96.4816 43.7256L96.406 43.209C96.5307 43.247 96.6551 43.2863 96.7791 43.3269L96.7202 44.7785C96.7179 44.7727 96.7158 44.7672 96.7139 44.7619C96.7075 44.7447 96.7017 44.7279 96.695 44.7077L96.6903 44.6939C96.6857 44.6801 96.6803 44.6639 96.6746 44.6474C96.6366 44.5195 96.6108 44.4123 96.5909 44.3171L96.5903 44.3142C96.5453 44.1051 96.513 43.9171 96.4816 43.7256ZM95.3967 35.9412L95.3959 35.9363C95.3527 35.6094 95.5818 35.307 95.91 35.2605C96.2188 35.2172 96.5114 35.4211 96.5826 35.7233C96.9206 37.1878 97.2389 38.6543 97.5151 40.1209L97.5154 40.1225L97.9374 42.3236L97.9374 42.3236L97.9386 42.3294L98.015 42.7039C97.4339 42.4819 96.8458 42.289 96.2529 42.122L96.0191 40.3702L96.0186 40.3668L95.3986 35.9538L95.3988 35.9538L95.3967 35.9412ZM98.3376 44.0812C98.3355 44.0746 98.3331 44.0663 98.3307 44.0567C98.3289 44.0495 98.3262 44.0378 98.3236 44.0228C98.3244 44.0183 98.3256 44.0135 98.327 44.0083C98.3428 44.0266 98.3579 44.0455 98.3721 44.0649L98.3376 44.0812ZM98.3846 44.0824L98.3453 44.102L98.3445 44.1004L98.3435 44.0983L98.3428 44.097L98.3846 44.0824ZM98.4544 44.2016C98.4544 44.2016 98.4544 44.2017 98.4544 44.2017L98.4544 44.2016ZM98.3231 44.0505C98.3222 44.0471 98.3218 44.043 98.3219 44.0383L98.3356 44.0813C98.335 44.0799 98.3343 44.0783 98.3335 44.0765C98.3305 44.0691 98.3262 44.0588 98.3231 44.0505ZM98.7185 43.593L98.7231 43.6116L98.68 43.6528L98.7185 43.593ZM99.0291 44.3909C99.0627 44.6238 99.0373 44.8683 98.9435 45.1024L99.0291 44.3909Z" fill="black" stroke="#D51F1F"/>
<path d="M92.1924 36.0514C93.2714 38.0104 94.3514 39.9694 95.4304 41.9294" stroke="#D51F1F" stroke-width="1.4159" stroke-miterlimit="10" stroke-linecap="round" stroke-linejoin="round"/>
<path d="M88.2395 34.5254C90.3225 37.1904 92.2645 39.9664 94.0525 42.8384" stroke="#D51F1F" stroke-width="1.4159" stroke-miterlimit="10" stroke-linecap="round" stroke-linejoin="round"/>
<path d="M86.8425 34.5654C88.5865 37.0444 90.3315 39.5234 92.0755 42.0024" stroke="#D51F1F" stroke-width="1.4159" stroke-miterlimit="10" stroke-linecap="round" stroke-linejoin="round"/>
<path d="M85.3215 35.1384C86.8755 37.3154 88.4295 39.4914 89.9835 41.6684C90.1635 41.9214 90.3525 42.2354 90.2315 42.5214" stroke="#D51F1F" stroke-width="1.4159" stroke-miterlimit="10" stroke-linecap="round" stroke-linejoin="round"/>
<path d="M82.7244 34.4914C84.4944 37.0434 86.2654 39.5964 88.0354 42.1484" stroke="#D51F1F" stroke-width="1.4159" stroke-miterlimit="10" stroke-linecap="round" stroke-linejoin="round"/>
<path d="M80.4814 35.0984C80.6234 34.9674 80.8384 35.1324 80.9564 35.2854C82.8104 37.6954 84.6454 40.1204 86.4614 42.5584C86.3514 42.5404 86.2414 42.5224 86.1314 42.5044" stroke="#D51F1F" stroke-width="1.4159" stroke-miterlimit="10" stroke-linecap="round" stroke-linejoin="round"/>
<path d="M78.2334 35.3434C80.3404 37.9114 82.4304 40.4924 84.5054 43.0854" stroke="#D51F1F" stroke-width="1.4159" stroke-miterlimit="10" stroke-linecap="round" stroke-linejoin="round"/>
<path d="M75.9543 35.6944C78.0173 38.2314 80.0813 40.7674 82.1443 43.3044C82.0243 43.3134 81.9034 43.3224 81.7834 43.3314" stroke="#D51F1F" stroke-width="1.4159" stroke-miterlimit="10" stroke-linecap="round" stroke-linejoin="round"/>
<path d="M74.4233 36.1304C76.4073 38.6694 78.3903 41.2074 80.3743 43.7464" stroke="#D51F1F" stroke-width="1.4159" stroke-miterlimit="10" stroke-linecap="round" stroke-linejoin="round"/>
<path d="M72.5864 36.8744C74.6134 39.1264 76.5074 41.4994 78.2544 43.9754" stroke="#D51F1F" stroke-width="1.4159" stroke-miterlimit="10" stroke-linecap="round" stroke-linejoin="round"/>
<path d="M70.5745 37.3814C72.7775 39.9174 74.8375 42.5774 76.7425 45.3454" stroke="#D51F1F" stroke-width="1.4159" stroke-miterlimit="10" stroke-linecap="round" stroke-linejoin="round"/>
<path d="M69.2444 38.0294C70.9174 40.3904 72.7214 42.6584 74.6454 44.8204" stroke="#D51F1F" stroke-width="1.4159" stroke-miterlimit="10" stroke-linecap="round" stroke-linejoin="round"/>
<path d="M67.4124 38.9164C69.5424 41.2354 71.4624 43.7484 73.1404 46.4134" stroke="#D51F1F" stroke-width="1.4159" stroke-miterlimit="10" stroke-linecap="round" stroke-linejoin="round"/>
<path d="M64.6003 39.2994C66.8423 41.7874 69.0843 44.2744 71.3273 46.7624" stroke="#D51F1F" stroke-width="1.4159" stroke-miterlimit="10" stroke-linecap="round" stroke-linejoin="round"/>
<path d="M62.4355 40.6654C64.5645 42.6964 66.4315 45.0004 67.9785 47.5034" stroke="#D51F1F" stroke-width="1.4159" stroke-miterlimit="10" stroke-linecap="round" stroke-linejoin="round"/>
<path d="M61.3784 41.9034C63.0544 43.7494 64.7304 45.5944 66.4074 47.4404" stroke="#D51F1F" stroke-width="1.4159" stroke-miterlimit="10" stroke-linecap="round" stroke-linejoin="round"/>
<path d="M59.8225 42.8744C61.7315 44.6234 63.5395 46.4824 65.2325 48.4414C64.9475 48.2834 64.6625 48.1244 64.3765 47.9664" stroke="#D51F1F" stroke-width="1.4159" stroke-miterlimit="10" stroke-linecap="round" stroke-linejoin="round"/>
<path d="M58.5984 43.3664C60.3094 45.1614 62.0194 46.9564 63.7304 48.7514" stroke="#D51F1F" stroke-width="1.4159" stroke-miterlimit="10" stroke-linecap="round" stroke-linejoin="round"/>
<path d="M57.7495 44.4524C59.5025 46.2394 61.2565 48.0264 63.0095 49.8134" stroke="#D51F1F" stroke-width="1.4159" stroke-miterlimit="10" stroke-linecap="round" stroke-linejoin="round"/>
<path d="M56.4604 45.3634C58.1464 47.0304 59.8334 48.6974 61.5194 50.3644" stroke="#D51F1F" stroke-width="1.4159" stroke-miterlimit="10" stroke-linecap="round" stroke-linejoin="round"/>
<path d="M55.2385 46.6654C56.7675 47.9544 58.2005 49.3584 59.5215 50.8604" stroke="#D51F1F" stroke-width="1.4159" stroke-miterlimit="10" stroke-linecap="round" stroke-linejoin="round"/>
<path d="M53.5354 47.3724C55.2414 48.9014 56.9484 50.4314 58.6544 51.9604" stroke="#D51F1F" stroke-width="1.4159" stroke-miterlimit="10" stroke-linecap="round" stroke-linejoin="round"/>
<path d="M51.8093 48.7624C53.4653 50.0374 55.1213 51.3134 56.7773 52.5884" stroke="#D51F1F" stroke-width="1.4159" stroke-miterlimit="10" stroke-linecap="round" stroke-linejoin="round"/>
<path d="M50.1304 49.7554C51.9734 51.0524 53.7294 52.4744 55.3814 54.0084C55.1434 54.0234 54.9054 54.0384 54.6664 54.0534" stroke="#D51F1F" stroke-width="1.4159" stroke-miterlimit="10" stroke-linecap="round" stroke-linejoin="round"/>
<path d="M49.2334 51.2384C51.0254 52.5324 52.8174 53.8254 54.6094 55.1194" stroke="#D51F1F" stroke-width="1.4159" stroke-miterlimit="10" stroke-linecap="round" stroke-linejoin="round"/>
<path d="M48.3674 53.0034C50.2414 54.0104 51.9684 55.2894 53.4774 56.7884" stroke="#D51F1F" stroke-width="1.4159" stroke-miterlimit="10" stroke-linecap="round" stroke-linejoin="round"/>
<path d="M46.8904 54.0224C48.7744 55.2074 50.5034 56.6394 52.0194 58.2694" stroke="#D51F1F" stroke-width="1.4159" stroke-miterlimit="10" stroke-linecap="round" stroke-linejoin="round"/>
<path d="M44.7964 55.1394C46.4174 56.4654 48.0394 57.7914 49.6614 59.1174" stroke="#D51F1F" stroke-width="1.4159" stroke-miterlimit="10" stroke-linecap="round" stroke-linejoin="round"/>
<path d="M43.3855 56.7234C45.1935 58.1024 47.0025 59.4814 48.8105 60.8604" stroke="#D51F1F" stroke-width="1.4159" stroke-miterlimit="10" stroke-linecap="round" stroke-linejoin="round"/>
<path d="M43.0186 58.4084C44.4846 59.3764 45.8686 60.4694 47.1476 61.6734C46.6426 61.6494 46.1375 61.6254 45.6335 61.6014" stroke="#D51F1F" stroke-width="1.4159" stroke-miterlimit="10" stroke-linecap="round" stroke-linejoin="round"/>
<path d="M41.2324 59.3964C42.2194 60.1464 43.2074 60.8964 44.1944 61.6464C44.6534 61.9954 45.1634 62.4544 45.0964 63.0274" stroke="#D51F1F" stroke-width="1.4159" stroke-miterlimit="10" stroke-linecap="round" stroke-linejoin="round"/>
<path d="M39.6174 60.6254C41.0444 61.8564 42.4704 63.0864 43.8974 64.3174" stroke="#D51F1F" stroke-width="1.4159" stroke-miterlimit="10" stroke-linecap="round" stroke-linejoin="round"/>
<path d="M38.7185 62.2764C39.8635 62.9634 40.9125 63.8114 41.8225 64.7884" stroke="#D51F1F" stroke-width="1.4159" stroke-miterlimit="10" stroke-linecap="round" stroke-linejoin="round"/>
<path d="M37.0334 63.7664C38.4264 64.6084 39.7584 65.5524 41.0154 66.5874" stroke="#D51F1F" stroke-width="1.4159" stroke-miterlimit="10" stroke-linecap="round" stroke-linejoin="round"/>
<path d="M36.2534 65.2404C37.4794 66.1114 38.7054 66.9824 39.9304 67.8544" stroke="#D51F1F" stroke-width="1.4159" stroke-miterlimit="10" stroke-linecap="round" stroke-linejoin="round"/>
<path d="M34.9023 67.2294C36.3803 67.9954 37.7424 68.9844 38.9294 70.1524" stroke="#D51F1F" stroke-width="1.4159" stroke-miterlimit="10" stroke-linecap="round" stroke-linejoin="round"/>
<path d="M34.3364 68.3864C35.4144 69.4954 36.5834 70.5164 37.8274 71.4374" stroke="#D51F1F" stroke-width="1.4159" stroke-miterlimit="10" stroke-linecap="round" stroke-linejoin="round"/>
<path d="M63.7934 9.0889L63.7931 9.08902L64.0164 9.53641L63.7931 9.08903L63.7931 9.08903L63.793 9.08907L63.7927 9.08922L63.7916 9.0898L63.7869 9.09212L63.7684 9.10136L63.6953 9.13785L63.4101 9.28014L62.3317 9.81821C61.3726 10.2777 60.0893 10.9548 58.535 11.7937C57.7444 12.2063 56.9095 12.6828 56.0384 13.1876C55.588 13.4385 55.1382 13.7133 54.6887 13.9897C54.6505 14.0132 54.6123 14.0367 54.5741 14.0603C54.1588 14.3158 53.7426 14.5719 53.3136 14.8193L53.3135 14.8191L53.3021 14.8261C51.4147 15.9831 49.4532 17.2932 47.5435 18.6731L47.5435 18.6731L47.536 18.6787C47.1912 18.9378 46.8328 19.1979 46.4714 19.4603C45.8818 19.8882 45.2841 20.3221 44.723 20.7675C44.0069 21.304 43.3205 21.8649 42.6583 22.406C42.4586 22.5691 42.2611 22.7305 42.0656 22.8889L42.0582 22.8949L42.051 22.9012C41.6644 23.2397 41.2766 23.5654 40.8918 23.8885L40.8254 23.9443C40.4212 24.2839 40.0204 24.6214 39.638 24.9612C38.8786 25.6236 38.1576 26.2618 37.5129 26.8771C36.2334 28.075 35.1504 29.0893 34.4219 29.8358L33.5722 30.6737L33.3475 30.8953L33.2899 30.9521L33.2753 30.9665L33.2716 30.9701L33.2707 30.971L33.2705 30.9712L33.2704 30.9713L33.2704 30.9713L33.268 30.9737L33.2543 30.9874C33.254 30.9877 33.2538 30.9879 33.2535 30.9882C33.1608 31.0787 33.012 31.0772 32.9214 30.9853L32.9209 30.9848C32.8368 30.8998 32.8311 30.7643 32.9056 30.6725L32.906 30.672L32.5174 30.3574L32.906 30.672L32.906 30.672L32.9061 30.6719L32.9063 30.6716L32.9071 30.6706L32.9104 30.6666L32.9235 30.6503L32.9754 30.5863L33.1777 30.3365L33.9459 29.3882L33.9461 29.388C34.2697 28.9881 34.6815 28.513 35.1674 27.9652L35.1675 27.9653L35.1728 27.959C35.6456 27.4082 36.189 26.8019 36.8148 26.1731L36.8148 26.1732L36.8212 26.1665C38.0629 24.8722 39.5531 23.4 41.2446 21.9333C42.9517 20.4739 44.822 18.9761 46.7602 17.5736C48.731 16.2102 50.751 14.9225 52.6866 13.7903C53.6611 13.234 54.6115 12.7184 55.5258 12.2642L55.5291 12.2625C56.4514 11.7959 57.318 11.3652 58.1303 10.998L58.1304 10.9982L58.1426 10.9922C58.9364 10.6071 59.692 10.2964 60.3745 10.0211L60.3745 10.0211L60.3793 10.0191C61.0601 9.7362 61.6425 9.50024 62.1173 9.32863L62.1183 9.32829C62.6079 9.15026 62.9925 9.01022 63.2547 8.91469L63.554 8.80558L63.6308 8.77758L63.6502 8.77049L63.6551 8.7687L63.6559 8.76841C63.656 8.76838 63.6561 8.76835 63.6562 8.76831C63.7476 8.73531 63.847 8.78269 63.8794 8.87195L63.8795 8.87239C63.9102 8.95666 63.8724 9.0495 63.7934 9.0889Z" fill="black" stroke="#D51F1F"/>
<path d="M29.7991 32.6363L29.7991 32.6362C29.695 32.5918 29.5955 32.5646 29.5219 32.5487C29.4856 32.5409 29.4571 32.5361 29.4393 32.5335C29.4305 32.5322 29.4245 32.5315 29.4215 32.5311C29.4005 32.5295 29.3771 32.5292 29.36 32.5304L29.3275 32.0314M29.7991 32.6363L31.1109 34.1835L31.1109 34.1833L31.1109 34.1823L31.1108 34.182M29.7991 32.6363L29.807 32.6395C30.0348 32.7322 30.3084 32.9013 30.529 33.1169L30.5296 33.1176C30.7539 33.336 30.9248 33.5965 31.0092 33.8078L31.009 33.8079L31.0141 33.8197C31.0564 33.9182 31.0815 34.0138 31.0957 34.0853C31.1027 34.1204 31.1067 34.1481 31.1089 34.1651C31.11 34.1736 31.1106 34.1794 31.1108 34.182M29.7991 32.6363L31.1107 34.1803M29.3275 32.0314L29.3603 32.5303C29.1491 32.5442 28.9897 32.7263 29.0033 32.9363C29.0033 32.9363 29.0033 32.9363 29.0033 32.9363C29.0033 32.9366 29.0033 32.9371 29.0034 32.9376C29.0036 32.9406 29.0042 32.9467 29.0053 32.9556C29.0074 32.9735 29.0113 33.0022 29.0181 33.0387C29.0319 33.1128 29.0562 33.213 29.0976 33.318L29.1007 33.3258L29.1007 33.3259C29.187 33.5561 29.3487 33.8348 29.5577 34.0611L29.5584 34.0618C29.7709 34.2927 30.0256 34.47 30.2348 34.5604L30.2468 34.5656L30.2468 34.5657C30.3444 34.611 30.4394 34.6389 30.5104 34.6551C30.5453 34.6631 30.5727 34.6679 30.5897 34.6706C30.5958 34.6715 30.6005 34.6722 30.6036 34.6726C30.6363 34.6749 30.6616 34.675 30.6762 34.6739L30.6797 34.6736L30.6797 34.6736C30.9358 34.6558 31.1272 34.4358 31.1109 34.1825C31.1108 34.1824 31.1108 34.1822 31.1108 34.182M29.3275 32.0314C29.3735 32.0284 29.4245 32.0294 29.4695 32.0334M29.3275 32.0314L29.4695 32.0334M31.1108 34.182L31.1108 34.1812L31.1107 34.1806L31.1107 34.1803M31.1107 34.1803C31.1107 34.1802 31.1107 34.1802 31.1107 34.1802L31.1107 34.1802L31.1107 34.1803ZM29.4695 32.0334C29.4695 32.0334 29.7145 32.0564 29.9955 32.1764C30.2805 32.2924 30.6095 32.4964 30.8785 32.7594C31.1475 33.0214 31.3605 33.3394 31.4735 33.6224C31.5925 33.8994 31.6095 34.1454 31.6095 34.1454M29.4695 32.0334L30.7145 35.1724M31.6095 34.1454C31.6465 34.6764 31.2455 35.1354 30.7145 35.1724M31.6095 34.1454C31.1107 34.1798 31.1107 34.1799 31.1107 34.18L31.1107 34.1798L31.6095 34.1454ZM30.7145 35.1724C30.6625 35.1764 30.6055 35.1744 30.5555 35.1704L30.7145 35.1724Z" fill="black" stroke="#D51F1F"/>
<path d="M28.4305 38.4904C28.5395 38.4964 28.6535 38.4824 28.7625 38.4454C29.2275 38.2884 29.4765 37.7854 29.3195 37.3204M28.4305 38.4904L26.2915 35.0984C26.2915 35.0984 26.5745 35.1124 26.9265 35.2324C27.2815 35.3464 27.7125 35.5554 28.0915 35.8324C28.4715 36.1084 28.8035 36.4464 29.0135 36.7524C29.2285 37.0514 29.3195 37.3204 29.3195 37.3204M28.4305 38.4904C28.457 37.9911 28.457 37.9911 28.4571 37.9911L28.457 37.9911L28.4305 38.4904ZM28.4305 38.4904C28.4305 38.4904 28.1475 38.4754 27.8025 38.3484L28.4305 38.4904ZM29.3195 37.3204L28.8458 37.4804C28.846 37.481 28.8462 37.4817 28.8465 37.4824M29.3195 37.3204C28.8459 37.4806 28.8459 37.4807 28.8459 37.4808L28.846 37.481L28.8461 37.4813L28.8463 37.4818L28.8466 37.4827C28.8467 37.483 28.8467 37.4832 28.8468 37.4833L28.8465 37.4824M28.8465 37.4824C28.9137 37.6853 28.8052 37.9033 28.6025 37.9717L28.6018 37.9719C28.5563 37.9874 28.5064 37.9938 28.458 37.9911M28.8465 37.4824L28.8457 37.4802C28.8443 37.4764 28.8415 37.469 28.8373 37.4585C28.829 37.4375 28.8151 37.4044 28.7954 37.3628C28.7555 37.2787 28.6937 37.164 28.6075 37.0443L28.6011 37.0354L28.6012 37.0353C28.4278 36.7826 28.1382 36.4843 27.7977 36.2369L27.7965 36.2361C27.4616 35.9914 27.0788 35.8065 26.7736 35.7084L26.7651 35.7057L26.7652 35.7056C26.6214 35.6566 26.4909 35.6291 26.3974 35.614C26.351 35.6065 26.3147 35.6023 26.2917 35.6C26.2802 35.5989 26.2721 35.5982 26.2678 35.5979L26.2643 35.5976C26.2642 35.5976 26.2643 35.5976 26.2648 35.5977L26.2656 35.5977L26.266 35.5977C26.2279 35.5958 26.1869 35.6012 26.1511 35.6132L26.1506 35.6134C25.9861 35.6686 25.8973 35.8464 25.9526 36.0116L25.9526 36.0114C25.9525 36.0114 25.9526 36.0114 25.9526 36.0116C25.9526 36.0117 25.9527 36.0118 25.9527 36.0119M28.458 37.9911L25.9915 35.1394C25.5655 35.2824 25.3355 35.7434 25.4785 36.1704M28.458 37.9911L28.4567 37.991C28.4526 37.9907 28.4448 37.99 28.4337 37.9889C28.4114 37.9865 28.376 37.9821 28.3308 37.9743C28.2396 37.9586 28.1131 37.9299 27.9752 37.8792L27.9753 37.879L27.9642 37.8753C27.6744 37.7762 27.309 37.5773 26.9793 37.3157L26.9786 37.3152C26.6524 37.0572 26.3708 36.7389 26.1954 36.4718L26.1954 36.4718L26.1897 36.4635C26.1044 36.3391 26.0432 36.2212 26.0037 36.1352C25.9842 36.0926 25.9704 36.0588 25.9621 36.0372C25.9579 36.0264 25.9552 36.0188 25.9537 36.0148L25.9526 36.0116L25.9527 36.0119M28.458 37.9911L28.4582 37.9912L28.4592 37.9912C28.4596 37.9912 28.4598 37.9912 28.4598 37.9912L28.458 37.9911ZM28.458 37.9911L25.7775 36.7464C25.5675 36.4404 25.4785 36.1704 25.4785 36.1704M25.9527 36.0119L25.953 36.0127L25.9532 36.0132L25.9533 36.0135L25.9533 36.0137C25.9533 36.0138 25.9534 36.0139 25.4785 36.1704M25.9527 36.0119L25.9534 36.0139L25.4785 36.1704" fill="black" stroke="#D51F1F"/>
</svg>
