<svg width="578" height="503" viewBox="0 0 578 503" fill="none" xmlns="http://www.w3.org/2000/svg">
<path d="M237.154 178.599C237.154 178.599 266.966 163.915 272.046 144.476C295.73 146.466 311.531 136.723 311.531 136.723C311.531 136.723 301.172 147.419 274.284 149.706C265.696 169.092 237.154 178.599 237.154 178.599Z" fill="#65D8F5"/>
<path d="M66.5332 78.0182C66.5332 78.0182 93.2416 64.8634 97.7938 47.4448C119.014 49.2256 133.17 40.5013 133.17 40.5013C133.17 40.5013 123.89 50.0833 99.8012 52.1318C92.1031 69.4999 66.5332 78.0182 66.5332 78.0182Z" fill="#65D8F5"/>
<path d="M76.9648 229.292C76.9648 229.292 106.776 214.609 111.854 195.17C135.541 197.158 151.339 187.417 151.339 187.417C151.339 187.417 140.98 198.111 114.092 200.398C105.503 219.785 76.9648 229.292 76.9648 229.292Z" fill="#65D8F5"/>
<path d="M28.6895 140.573C28.6895 140.573 66.9048 121.143 72.1929 100.905C96.849 102.976 113.298 89.351 113.298 89.351C113.298 89.351 103.824 103.691 75.835 106.069C66.8954 126.25 28.6895 140.573 28.6895 140.573Z" fill="#65D8F5"/>
<path d="M29.9766 38.4415C29.9766 38.4415 56.6831 25.2867 61.2353 7.86808C82.4571 9.64889 96.6118 0.922729 96.6118 0.922729C96.6118 0.922729 87.3295 10.5065 63.2427 12.5551C55.5465 29.9232 29.9766 38.4415 29.9766 38.4415Z" fill="#65D8F5"/>
<path d="M143.439 53.1242C143.439 53.1242 167.247 41.3982 171.305 25.8728C190.222 27.4607 202.841 19.6802 202.841 19.6802C202.841 19.6802 194.568 28.2247 173.093 30.0467C166.232 45.531 143.439 53.1242 143.439 53.1242Z" fill="#65D8F5"/>
<path d="M403.104 60.4161C403.104 60.4161 432.913 45.7314 437.993 26.2923C461.679 28.281 477.48 18.5399 477.48 18.5399C477.48 18.5399 467.119 29.236 440.233 31.5224C431.643 50.9091 403.104 60.4161 403.104 60.4161Z" fill="#65D8F5"/>
<path d="M301.998 71.0392C301.998 71.0392 340.213 51.6094 345.502 31.3708C370.156 33.4418 386.606 19.817 386.606 19.817C386.606 19.817 377.133 34.1571 349.144 36.5353C340.202 56.7178 301.998 71.0392 301.998 71.0392Z" fill="#65D8F5"/>
<path d="M314.869 153.335C314.869 153.335 341.578 140.18 346.13 122.761C367.35 124.542 381.506 115.818 381.506 115.818C381.506 115.818 372.226 125.4 348.137 127.448C340.439 144.816 314.869 153.335 314.869 153.335Z" fill="#65D8F5"/>
<path d="M378.133 205.265C378.133 205.265 407.942 190.58 413.022 171.141C436.709 173.13 452.509 163.389 452.509 163.389C452.509 163.389 442.148 174.085 415.262 176.371C406.673 195.758 378.133 205.265 378.133 205.265Z" fill="#65D8F5"/>
<path d="M472.15 171.822C472.15 171.822 501.962 157.138 507.042 137.699C530.726 139.687 546.527 129.946 546.527 129.946C546.527 129.946 536.166 140.642 509.28 142.929C500.69 162.315 472.15 171.822 472.15 171.822Z" fill="#65D8F5"/>
<path d="M503.625 253.105C503.625 253.105 533.436 238.42 538.517 218.981C562.201 220.97 578.001 211.229 578.001 211.229C578.001 211.229 567.641 221.925 540.754 224.211C532.165 243.596 503.625 253.105 503.625 253.105Z" fill="#65D8F5"/>
<path d="M335.004 357.675C335.004 357.675 364.815 342.99 369.895 323.551C393.58 325.54 409.38 315.799 409.38 315.799C409.38 315.799 399.019 326.495 372.133 328.781C363.544 348.168 335.004 357.675 335.004 357.675Z" fill="#65D8F5"/>
<path d="M277.025 215.89C277.025 215.89 315.241 196.46 320.529 176.221C345.185 178.292 361.634 164.667 361.634 164.667C361.634 164.667 352.16 179.008 324.171 181.386C315.229 201.568 277.025 215.89 277.025 215.89Z" fill="#65D8F5"/>
<path d="M279.359 266.58C279.359 266.58 317.575 247.15 322.863 226.912C347.519 228.985 363.968 215.358 363.968 215.358C363.968 215.358 354.494 229.698 326.505 232.076C317.563 252.257 279.359 266.58 279.359 266.58Z" fill="#65D8F5"/>
<path d="M208.799 451.636C208.799 451.636 238.61 436.952 243.69 417.513C267.375 419.503 283.175 409.76 283.175 409.76C283.175 409.76 272.814 420.456 245.928 422.743C237.337 442.127 208.799 451.636 208.799 451.636Z" fill="#65D8F5"/>
<path d="M38.1797 351.053C38.1797 351.053 64.8881 337.899 69.4403 320.48C90.6602 322.261 104.817 313.536 104.817 313.536C104.817 313.536 95.5345 323.118 71.4477 325.167C63.7496 342.535 38.1797 351.053 38.1797 351.053Z" fill="#65D8F5"/>
<path d="M101.439 402.983C101.439 402.983 131.249 388.299 136.329 368.86C160.015 370.848 175.816 361.107 175.816 361.107C175.816 361.107 165.455 371.803 138.569 374.09C129.981 393.476 101.439 402.983 101.439 402.983Z" fill="#65D8F5"/>
<path d="M48.6074 502.327C48.6074 502.327 78.4168 487.644 83.4971 468.205C107.181 470.192 122.982 460.452 122.982 460.452C122.982 460.452 112.623 471.147 85.7348 473.433C77.1453 492.82 48.6074 502.327 48.6074 502.327Z" fill="#65D8F5"/>
<path d="M0.332031 413.608C0.332031 413.608 38.5474 394.178 43.8355 373.94C68.4916 376.011 84.9402 362.386 84.9402 362.386C84.9402 362.386 75.4669 376.726 47.4776 379.104C38.538 399.287 0.332031 413.608 0.332031 413.608Z" fill="#65D8F5"/>
<path d="M1.61914 311.477C1.61914 311.477 28.3257 298.322 32.8779 280.903C54.0997 282.684 68.2544 273.958 68.2544 273.958C68.2544 273.958 58.9721 283.542 34.8853 285.59C27.189 302.959 1.61914 311.477 1.61914 311.477Z" fill="#65D8F5"/>
</svg>
