<svg width="693" height="529" viewBox="0 0 693 529" fill="none" xmlns="http://www.w3.org/2000/svg">
<rect width="693" height="528.645" transform="translate(0 0.354492)" fill="white"/>
<path d="M208.801 187.259C208.801 187.259 234.733 174.485 239.152 157.575C259.754 159.307 273.499 150.832 273.499 150.832C273.499 150.832 264.488 160.136 241.098 162.125C233.628 178.989 208.801 187.259 208.801 187.259Z" fill="#65D8F5"/>
<path d="M60.3828 99.7661C60.3828 99.7661 83.6157 88.3232 87.5755 73.1713C106.034 74.7203 118.348 67.1313 118.348 67.1313C118.348 67.1313 110.276 75.4664 89.3217 77.2484C82.6253 92.3563 60.3828 99.7661 60.3828 99.7661Z" fill="#65D8F5"/>
<path d="M69.457 231.354C69.457 231.354 95.3889 218.582 99.8065 201.673C120.41 203.403 134.153 194.929 134.153 194.929C134.153 194.929 125.142 204.232 101.753 206.221C94.2813 223.084 69.457 231.354 69.457 231.354Z" fill="#65D8F5"/>
<path d="M27.4629 154.181C27.4629 154.181 60.7053 137.279 65.3052 119.674C86.7528 121.476 101.061 109.624 101.061 109.624C101.061 109.624 92.8204 122.098 68.4734 124.167C60.6971 141.721 27.4629 154.181 27.4629 154.181Z" fill="#65D8F5"/>
<path d="M28.582 65.3395C28.582 65.3395 51.8132 53.8966 55.7731 38.7447C74.2333 40.2937 86.546 32.7031 86.546 32.7031C86.546 32.7031 78.4716 41.0398 57.5192 42.8218C50.8245 57.9297 28.582 65.3395 28.582 65.3395Z" fill="#65D8F5"/>
<path d="M127.283 78.1117C127.283 78.1117 147.993 67.9116 151.523 54.4065C167.978 55.7878 178.955 49.0198 178.955 49.0198C178.955 49.0198 171.758 56.4524 153.078 58.0373C147.11 71.5066 127.283 78.1117 127.283 78.1117Z" fill="#65D8F5"/>
<path d="M353.156 84.4546C353.156 84.4546 379.087 71.6808 383.506 54.7713C404.11 56.5012 417.854 48.0277 417.854 48.0277C417.854 48.0277 408.841 57.3319 385.454 59.3208C377.982 76.1847 353.156 84.4546 353.156 84.4546Z" fill="#65D8F5"/>
<path d="M265.207 93.6953C265.207 93.6953 298.449 76.7939 303.049 59.1889C324.495 60.9905 338.805 49.1387 338.805 49.1387C338.805 49.1387 330.565 61.6127 306.218 63.6814C298.44 81.2376 265.207 93.6953 265.207 93.6953Z" fill="#65D8F5"/>
<path d="M276.406 165.282C276.406 165.282 299.639 153.839 303.599 138.687C322.057 140.236 334.372 132.647 334.372 132.647C334.372 132.647 326.299 140.982 305.345 142.764C298.649 157.872 276.406 165.282 276.406 165.282Z" fill="#65D8F5"/>
<path d="M331.434 210.454C331.434 210.454 357.364 197.68 361.783 180.771C382.387 182.501 396.131 174.027 396.131 174.027C396.131 174.027 387.119 183.331 363.731 185.32C356.259 202.184 331.434 210.454 331.434 210.454Z" fill="#65D8F5"/>
<path d="M413.217 181.364C413.217 181.364 439.149 168.59 443.568 151.68C464.17 153.41 477.915 144.937 477.915 144.937C477.915 144.937 468.902 154.241 445.514 156.23C438.043 173.094 413.217 181.364 413.217 181.364Z" fill="#65D8F5"/>
<path d="M440.596 252.069C440.596 252.069 466.528 239.295 470.947 222.386C491.549 224.115 505.294 215.642 505.294 215.642C505.294 215.642 496.281 224.946 472.893 226.935C465.422 243.797 440.596 252.069 440.596 252.069Z" fill="#65D8F5"/>
<path d="M293.92 343.031C293.92 343.031 319.852 330.257 324.271 313.348C344.873 315.078 358.618 306.604 358.618 306.604C358.618 306.604 349.605 315.908 326.218 317.897C318.746 334.761 293.92 343.031 293.92 343.031Z" fill="#65D8F5"/>
<path d="M243.484 219.696C243.484 219.696 276.727 202.795 281.327 185.19C302.774 186.991 317.082 175.14 317.082 175.14C317.082 175.14 308.842 187.614 284.495 189.682C276.717 207.239 243.484 219.696 243.484 219.696Z" fill="#65D8F5"/>
<path d="M245.514 263.79C245.514 263.79 278.756 246.889 283.356 229.284C304.804 231.087 319.112 219.234 319.112 219.234C319.112 219.234 310.871 231.708 286.524 233.776C278.746 251.331 245.514 263.79 245.514 263.79Z" fill="#65D8F5"/>
<path d="M184.137 424.765C184.137 424.765 210.069 411.991 214.488 395.082C235.09 396.813 248.835 388.338 248.835 388.338C248.835 388.338 239.822 397.643 216.434 399.631C208.961 416.494 184.137 424.765 184.137 424.765Z" fill="#65D8F5"/>
<path d="M35.7188 337.271C35.7188 337.271 58.9516 325.828 62.9114 310.676C81.37 312.225 93.6844 304.636 93.6844 304.636C93.6844 304.636 85.61 312.971 64.6576 314.753C57.9612 329.861 35.7188 337.271 35.7188 337.271Z" fill="#65D8F5"/>
<path d="M90.7461 382.443C90.7461 382.443 116.676 369.67 121.096 352.76C141.699 354.49 155.444 346.017 155.444 346.017C155.444 346.017 146.431 355.321 123.044 357.31C115.574 374.174 90.7461 382.443 90.7461 382.443Z" fill="#65D8F5"/>
<path d="M44.791 468.859C44.791 468.859 70.7213 456.087 75.1405 439.178C95.7427 440.906 109.487 432.434 109.487 432.434C109.487 432.434 100.476 441.737 77.087 443.726C69.6153 460.589 44.791 468.859 44.791 468.859Z" fill="#65D8F5"/>
<path d="M2.79688 391.686C2.79688 391.686 36.0392 374.784 40.6392 357.179C62.0868 358.981 76.395 347.129 76.395 347.129C76.395 347.129 68.1544 359.603 43.8074 361.672C36.0311 379.228 2.79688 391.686 2.79688 391.686Z" fill="#65D8F5"/>
<path d="M3.91602 302.845C3.91602 302.845 27.1472 291.402 31.1071 276.25C49.5673 277.799 61.88 270.208 61.88 270.208C61.88 270.208 53.8056 278.545 32.8532 280.327C26.1585 295.435 3.91602 302.845 3.91602 302.845Z" fill="#65D8F5"/>
</svg>
