<svg width="50" height="47" viewBox="0 0 50 47" fill="none" xmlns="http://www.w3.org/2000/svg">
<path opacity="0.3" d="M4.36509 30.4028L22.2568 40.7789C29.0118 44.6801 38.3095 46.7488 47.8499 46.4751L49.0422 46.4409L49.1009 45.7519C49.1042 45.7046 49.1058 45.6558 49.109 45.6085C48.7556 40.7398 45.2583 36.0958 39.2347 32.6181L21.3414 22.2421C14.4821 18.2807 11.6022 20.0187 1.92176 20.3656L1.14316 20.3884L1.11383 20.8315C0.871123 23.0859 0.239107 24.7001 0.0175781 26.0847C0.301005 27.4285 1.42495 28.7055 4.36509 30.4028Z" fill="black"/>
<path d="M5.0918 17.5444C5.0918 17.5444 5.85901 25.6596 10.6316 29.6406C12.4723 31.346 27.8979 41.1878 34.389 40.4938C45.8824 38.7591 46.9331 34.3155 46.9331 34.3155L5.0918 17.5444Z" fill="#262626"/>
<path d="M7.1543 24.9086C7.555 25.7622 8.03226 26.6108 8.59585 27.4057C9.17574 28.2267 25.7627 39.1239 35.4025 40.3326C36.4824 40.1257 37.4728 39.9596 38.3882 39.7185C22.43 36.837 7.1543 24.9086 7.1543 24.9086Z" fill="#D63A3A"/>
<path d="M6.12367 11.3742L6.19209 10.765L6.82246 10.7096C15.5191 10.4018 18.0553 9.13612 24.2174 12.661L38.1265 20.553C44.1957 24.0242 47.4144 28.8001 46.9893 33.7014L46.9355 34.3155L45.8637 34.3464C37.2925 34.5875 28.9412 32.7485 22.8735 29.2773L8.96609 21.3854C2.80238 17.8588 5.5845 16.3488 6.12367 11.3742Z" fill="#4D4D4D"/>
<path d="M6.84154 12.5665L7.51426 12.5469C15.8851 12.2472 18.3757 10.7454 24.3065 14.1693L37.7285 21.9407C42.9344 24.9477 45.9609 28.9645 46.2655 33.1736C46.6125 28.4547 43.5176 23.8628 37.7285 20.5187L24.3065 12.7473C18.3757 9.32174 15.8851 10.8236 7.51426 11.1249L6.84154 11.1428L6.81547 11.5305C6.51738 14.2915 5.54493 15.9448 5.86745 17.4939C6.05803 16.2966 6.60534 14.8991 6.81547 12.9525L6.84154 12.5665Z" fill="#262626"/>
<path d="M9.62505 21.2256L23.0455 28.9987C28.8867 32.3705 36.9252 34.159 45.1755 33.9228L46.2066 33.8935L46.2587 33.2973C46.262 33.2566 46.2637 33.2159 46.2653 33.1752C45.959 28.9645 42.9342 24.9476 37.7283 21.9423L24.3062 14.1709C18.3754 10.7454 15.8849 12.2488 7.514 12.5485L6.84127 12.5681L6.8152 12.9525C6.60508 14.899 6.05777 16.2966 5.86719 17.4939C6.11152 18.6553 7.08235 19.758 9.62505 21.2256Z" fill="#CF7C00"/>
<path d="M19.4195 19.2482L14.168 16.2152V22.7422L19.4179 25.7735L19.4195 19.2482Z" fill="#ABBDCC"/>
<path d="M19.4195 19.2482L14.168 16.2152V17.0948L19.4195 20.1262V19.2482Z" fill="#85939E"/>
<path d="M30.4016 12.8662L19.4196 19.3166L19.418 25.7735L30.4016 19.3932V12.8662Z" fill="#C3D7E8"/>
<path d="M20.8457 21.4912L21.8116 20.9341V19.499L20.8457 20.0577V21.4912Z" fill="#25A4C4"/>
<path d="M23.375 20.0269L24.3409 19.4681V18.0347L23.375 18.5934V20.0269Z" fill="#25A4C4"/>
<path d="M25.7871 18.6276L26.7514 18.0705V16.6371L25.7871 17.1942V18.6276Z" fill="#25A4C4"/>
<path d="M28.2246 17.2235L29.1889 16.6648V15.2314L28.2246 15.7901V17.2235Z" fill="#25A4C4"/>
<path d="M30.4039 12.8662L19.4219 19.3166V20.1262L30.4039 13.7458V12.8662Z" fill="#85939E"/>
<path d="M21.0878 20.2793L12.502 15.3226V13.2051L21.0878 18.1618V20.2793Z" fill="#ABBDCC"/>
<path d="M19.0675 22.2959L18.1016 21.7388V20.307L19.0675 20.8625V22.2959Z" fill="#25A4C4"/>
<path d="M17.3038 21.2811L16.3379 20.7224V19.2906L17.3038 19.846V21.2811Z" fill="#25A4C4"/>
<path d="M15.5477 20.2647L14.5801 19.706V18.2725L15.5477 18.8296V20.2647Z" fill="#25A4C4"/>
<path d="M21.0878 18.1618L12.502 13.205L23.4855 6.82306L32.0698 11.7798L21.0878 18.1618Z" fill="#C3D7E8"/>
<path d="M31.3966 11.8156L29.7628 12.7653L23.4004 9.09049V7.20099L31.3966 11.8156Z" fill="#9DACBA"/>
<path d="M23.4016 9.09049L14.806 14.0814L13.1738 13.1415L23.4016 7.20099V9.09049Z" fill="#92A2AD"/>
<path d="M29.7628 12.7652L21.1688 17.7561L14.8047 14.0814L23.4003 9.09045L29.7628 12.7652Z" fill="#A5B6C4"/>
<path d="M32.0682 13.8973L21.0879 20.2793V18.1618L32.0699 11.7798L32.0682 13.8973Z" fill="#D6ECFF"/>
<path d="M21.0529 14.2834L16.7266 11.7863V14.2411L21.0529 16.7398V14.2834Z" fill="#696969"/>
<path d="M25.9363 11.4654L21.6084 8.96667L16.7266 11.7863L21.0529 14.2834L25.9363 11.4654Z" fill="#B5B5B5"/>
<path d="M25.0029 11.423L23.8822 10.7747L22.6133 11.5061L23.7372 12.1544L25.0029 11.423Z" fill="#2E2E2E"/>
<path d="M24.7137 11.4328L23.8634 10.9425L22.9023 11.4963L23.7543 11.9866L24.7137 11.4328Z" fill="#4F4F4F"/>
<path d="M25.9361 13.9201L21.0527 16.7397V14.2833L25.9361 11.4653V13.9201Z" fill="#9E9E9E"/>
<path d="M21.1814 0.129944L21.1211 10.361L21.2449 10.431L21.1814 0.129944Z" fill="#4F4F4F"/>
<path d="M21.808 0.473633L21.7461 10.7047L21.8699 10.7747L21.808 0.473633Z" fill="#4F4F4F"/>
<path d="M20.2811 9.72571C19.2402 9.72571 18.3965 10.5711 18.3965 11.612C18.3965 11.8905 18.5789 12.169 18.9487 12.3824C19.6849 12.8076 20.8805 12.8076 21.6168 12.3824C21.9849 12.169 22.169 11.8905 22.169 11.612C22.1674 10.5711 21.322 9.72571 20.2811 9.72571Z" fill="#737373"/>
<path d="M21.0527 10.1329C21.5723 10.6151 21.7988 11.2324 21.9714 11.9182C22.1637 11.6641 22.0252 11.2536 22.0252 11.2536C22.0252 11.2536 21.859 10.4131 21.0527 10.1329Z" fill="#BDBDBD"/>
</svg>
