<svg width="693" height="529" viewBox="0 0 693 529" fill="none" xmlns="http://www.w3.org/2000/svg">
<rect width="693" height="528.645" transform="translate(0 0.354492)" fill="none"/>
<path d="M115.412 144.939C115.412 144.939 141.342 132.165 145.762 115.255C166.365 116.985 180.108 108.512 180.108 108.512C180.108 108.512 171.097 117.816 147.708 119.805C140.24 136.669 115.412 144.939 115.412 144.939Z" fill="#65D8F5"/>
<path d="M181.377 140.821C181.377 140.821 198.337 132.466 201.228 121.406C214.702 122.536 223.694 116.997 223.694 116.997C223.694 116.997 217.799 123.082 202.502 124.382C197.612 135.411 181.377 140.821 181.377 140.821Z" fill="#65D8F5"/>
<path d="M112.082 184.138C112.082 184.138 129.042 175.783 131.933 164.723C145.407 165.854 154.399 160.314 154.399 160.314C154.399 160.314 148.504 166.399 133.207 167.699C128.319 178.73 112.082 184.138 112.082 184.138Z" fill="#65D8F5"/>
<path d="M48.498 175.982C48.498 175.982 65.458 167.627 68.3493 156.567C81.8235 157.698 90.815 152.158 90.815 152.158C90.815 152.158 84.92 158.243 69.6231 159.543C64.7348 170.572 48.498 175.982 48.498 175.982Z" fill="#65D8F5"/>
<path d="M9.25195 111.678C9.25195 111.678 26.2119 103.324 29.1032 92.2635C42.579 93.394 51.5689 87.8541 51.5689 87.8541C51.5689 87.8541 45.6739 93.9397 30.377 95.2395C25.4887 106.269 9.25195 111.678 9.25195 111.678Z" fill="#65D8F5"/>
<path d="M175.701 33.2115C175.701 33.2115 192.661 24.8569 195.552 13.7967C209.027 14.9272 218.018 9.38733 218.018 9.38733C218.018 9.38733 212.123 15.4729 196.826 16.7727C191.938 27.8019 175.701 33.2115 175.701 33.2115Z" fill="#65D8F5"/>
<path d="M209.211 46.4837C209.211 46.4837 226.173 38.1307 229.064 27.0689C242.538 28.1994 251.529 22.6595 251.529 22.6595C251.529 22.6595 245.635 28.7451 230.336 30.0449C225.448 41.0741 209.211 46.4837 209.211 46.4837Z" fill="#65D8F5"/>
<path d="M118.969 52.68C118.969 52.68 131.86 46.3306 134.057 37.9222C144.3 38.7807 151.131 34.5684 151.131 34.5684C151.131 34.5684 146.652 39.196 135.025 40.1831C131.311 48.5687 118.969 52.68 118.969 52.68Z" fill="#65D8F5"/>
<path d="M246.992 51.1928C246.992 51.1928 263.952 42.8382 266.842 31.7781C280.318 32.9085 289.307 27.3687 289.307 27.3687C289.307 27.3687 283.413 33.4542 268.116 34.754C263.229 45.7849 246.992 51.1928 246.992 51.1928Z" fill="#65D8F5"/>
<path d="M349.588 44.0257C349.588 44.0257 366.551 35.6711 369.441 24.6109C382.913 25.7414 391.905 20.2015 391.905 20.2015C391.905 20.2015 386.013 26.2854 370.713 27.5853C365.826 38.6161 349.588 44.0257 349.588 44.0257Z" fill="#65D8F5"/>
<path d="M312.41 279.183C312.41 279.183 333.442 268.491 336.352 257.355C349.92 258.493 358.974 250.995 358.974 250.995C358.974 250.995 353.761 258.887 338.357 260.195C333.436 271.301 312.41 279.183 312.41 279.183Z" fill="#65D8F5"/>
<path d="M334.988 118.197C334.988 118.197 347.879 111.848 350.077 103.439C360.319 104.298 367.151 100.085 367.151 100.085C367.151 100.085 362.671 104.713 351.044 105.7C347.33 114.084 334.988 118.197 334.988 118.197Z" fill="#65D8F5"/>
<path d="M381.914 242.91C381.914 242.91 394.805 236.56 397.004 228.152C407.245 229.01 414.078 224.798 414.078 224.798C414.078 224.798 409.599 229.426 397.97 230.413C394.256 238.798 381.914 242.91 381.914 242.91Z" fill="#65D8F5"/>
<path d="M143.795 415.961C143.795 415.961 157.45 409.236 159.779 400.33C170.628 401.241 177.866 396.778 177.866 396.778C177.866 396.778 173.12 401.679 160.804 402.725C156.868 411.606 143.795 415.961 143.795 415.961Z" fill="#65D8F5"/>
<path d="M69.7754 488.188C69.7754 488.188 83.432 481.462 85.7597 472.555C96.6081 473.468 103.847 469.004 103.847 469.004C103.847 469.004 99.1003 473.904 86.7843 474.95C82.8505 483.832 69.7754 488.188 69.7754 488.188Z" fill="#65D8F5"/>
<path d="M156.707 378.326C156.707 378.326 173.667 369.971 176.555 358.911C190.031 360.042 199.022 354.502 199.022 354.502C199.022 354.502 193.127 360.587 177.83 361.887C172.942 372.916 156.707 378.326 156.707 378.326Z" fill="#65D8F5"/>
<path d="M403.93 307.516C403.93 307.516 420.893 299.162 423.783 288.102C437.257 289.232 446.247 283.692 446.247 283.692C446.247 283.692 440.355 289.776 425.055 291.076C420.168 302.105 403.93 307.516 403.93 307.516Z" fill="#65D8F5"/>
<path d="M413.729 124.6C413.729 124.6 430.692 116.246 433.58 105.186C447.054 106.316 456.044 100.776 456.044 100.776C456.044 100.776 450.152 106.86 434.852 108.16C429.967 119.191 413.729 124.6 413.729 124.6Z" fill="#65D8F5"/>
<path d="M94.3047 290.185C94.3047 290.185 107.196 283.836 109.393 275.427C119.636 276.286 126.467 272.073 126.467 272.073C126.467 272.073 121.988 276.701 110.361 277.688C106.647 286.074 94.3047 290.185 94.3047 290.185Z" fill="#65D8F5"/>
<path d="M74.2188 422.488C74.2188 422.488 87.877 415.763 90.203 406.856C101.051 407.768 108.292 403.305 108.292 403.305C108.292 403.305 103.545 408.204 91.2276 409.25C87.2955 418.133 74.2188 422.488 74.2188 422.488Z" fill="#65D8F5"/>
<path d="M20.8926 522.091C20.8926 522.091 34.5508 515.366 36.8769 506.459C47.7253 507.37 54.9657 502.908 54.9657 502.908C54.9657 502.908 50.2191 507.808 37.9014 508.854C33.9677 517.736 20.8926 522.091 20.8926 522.091Z" fill="#65D8F5"/>
</svg>
