<svg width="100" height="86" viewBox="0 0 100 86" fill="none" xmlns="http://www.w3.org/2000/svg">
<path d="M80.8774 1.85039L79.4934 1.72139L78.1804 1.69539C77.2924 1.71039 76.3894 1.74138 75.4924 1.83938C73.6964 2.02038 71.9044 2.31339 70.1284 2.70639C66.5724 3.47339 63.0894 4.60839 59.7094 5.93739C58.0224 6.61739 56.3784 7.35538 54.7984 8.22038L52.3524 9.53839L50.0054 10.9254C49.2184 11.3734 48.4544 11.8714 47.6844 12.3654C46.9174 12.8614 46.1334 13.3314 45.3794 13.8484C43.8784 14.8904 42.3644 15.9144 40.9244 17.0434C39.4454 18.1204 38.0654 19.3204 36.6304 20.4544C35.2614 21.6654 33.8444 22.8274 32.5414 24.1124C31.1934 25.3514 29.9204 26.6674 28.6544 27.9904C28.0084 28.6404 27.4254 29.3484 26.8084 30.0244C26.1984 30.7074 25.5814 31.3854 25.0124 32.1034L23.2694 34.2284L21.6314 36.4354C20.5314 37.9014 19.5314 39.4404 18.5384 40.9784C17.5844 42.5424 16.6034 44.0914 15.7704 45.7244C14.8624 47.3154 14.1434 49.0054 13.3724 50.6614C13.0824 51.2844 12.3414 51.5554 11.7184 51.2644C11.1184 50.9854 10.8484 50.2824 11.0874 49.6744C11.1284 49.5704 11.1804 49.4674 11.2414 49.3724C11.2864 49.2904 11.4444 49.1134 11.5744 49.0194C11.7044 48.9144 11.9354 48.8104 12.1344 48.7724C12.3134 48.7384 12.5174 48.7444 12.6724 48.7754C13.2474 48.9234 13.4014 49.1464 13.5784 49.3254C13.7394 49.5204 13.8594 49.7194 13.9414 50.0034C14.0194 50.2794 14.0564 50.7314 13.8054 51.1834C13.6774 51.4144 13.5154 51.5704 13.3324 51.7014L13.1894 51.7904C13.1984 51.7874 13.1164 51.8324 13.0254 51.8724C12.6834 52.0134 12.4794 52.0234 12.2344 52.0234C11.7724 52.0054 11.4724 51.8704 11.2334 51.7554C10.9934 51.6334 10.8104 51.5084 10.6444 51.3854L10.2824 51.1234L9.55942 50.5984L6.66442 48.5014C4.72842 47.1114 2.80242 45.7084 0.912422 44.2624L4.06042 42.8064L4.05242 47.9694C4.04542 49.6904 4.02942 51.4104 3.99142 53.1314L3.92742 58.2964C3.90742 60.0184 3.91442 61.7414 3.94242 63.4634C3.96442 65.1854 4.00842 66.9074 4.08842 68.6284L4.34542 73.7894C4.54242 77.2294 4.78842 80.6664 5.08242 84.0994L3.30042 82.6984C6.77942 82.2464 10.2024 81.8864 13.6524 81.6324C17.0944 81.3554 20.5384 81.1444 23.9834 80.9594L29.1484 80.6644C30.8714 80.5844 32.5894 80.4374 34.3114 80.3364C36.0334 80.2274 37.7554 80.1314 39.4794 79.9984L42.0744 79.7944L43.3904 79.6874L44.0784 79.6514C44.2004 79.6484 44.3024 79.6394 44.4704 79.6484L44.7004 79.6584C44.6674 79.6484 44.9364 79.6814 45.1394 79.7704C45.3474 79.8554 45.5374 79.9894 45.6774 80.1274C46.1824 80.6294 46.1854 81.4464 45.6834 81.9514C45.2184 82.4194 44.4824 82.4564 43.9744 82.0594L43.8464 81.9594C41.5544 80.1734 39.2974 78.3164 37.2334 76.2554C36.1894 75.2374 35.2104 74.1544 34.2334 73.0724C33.2574 71.9884 32.3474 70.8474 31.4414 69.7054L31.4184 69.6774C30.9244 69.0554 30.9414 68.1924 31.4094 67.5924C33.3294 65.1294 35.2954 62.6924 37.3224 60.2974C38.3384 59.1014 39.3694 57.9184 40.4194 56.7484C41.4754 55.5834 42.5514 54.4354 43.6484 53.3064C44.7534 52.1834 45.8804 51.0814 47.0324 50.0034C48.1934 48.9334 49.3784 47.8904 50.5864 46.8714L52.4304 45.3814L54.3244 43.9504L56.2624 42.5784L58.2424 41.2634L60.2574 40.0394L62.3684 38.8774L64.5034 37.8144L66.6754 36.8264L68.8854 35.9174L71.1344 35.0944L73.4204 34.3584L75.7474 33.7354C76.5304 33.5554 77.3224 33.4034 78.1114 33.2384L80.5084 32.8734L82.9304 32.6474L85.3704 32.6024C86.1844 32.6244 86.9994 32.6864 87.8134 32.7334L90.2464 33.0384L92.6514 33.5304L95.0184 34.1894L93.4504 37.3404C90.4784 35.1534 87.5244 32.9054 84.6914 30.4864C81.8454 28.0844 79.1274 25.5054 76.6154 22.7364L75.6644 21.6764C75.3314 21.2824 74.9324 20.7874 74.6734 20.0974C74.6394 20.0004 74.6194 19.9494 74.5804 19.8084L74.5304 19.6014C74.4814 19.3744 74.4634 19.2164 74.4524 19.0404C74.4304 18.6964 74.4534 18.3724 74.4974 18.0754C74.5874 17.4804 74.7494 16.9794 74.8934 16.5344C75.4764 14.7924 76.0364 13.0444 76.6424 11.3094C77.8434 7.83639 79.0084 4.35338 80.2514 0.893385L80.2544 0.885389C80.3944 0.496389 80.8224 0.294385 81.2114 0.434385C81.5764 0.565385 81.7764 0.954386 81.6844 1.32239C80.7834 4.88539 79.8044 8.42439 78.8614 11.9744C78.3954 13.7514 77.8834 15.5134 77.3934 17.2834C77.1354 18.1514 77.0664 18.8284 77.2284 19.1084C77.3024 19.2784 77.4814 19.5194 77.7564 19.8074L78.6914 20.7544C81.2494 23.2984 83.9694 25.6714 86.7914 27.9364C89.6244 30.1884 92.5584 32.3354 95.5374 34.4484C96.3394 35.0174 96.5284 36.1284 95.9594 36.9294C95.5214 37.5474 94.7604 37.8014 94.0664 37.6244L93.9684 37.5984L91.8344 37.0474L89.6654 36.6464L87.4744 36.3704L85.2654 36.2234L83.0444 36.1914L80.8154 36.2574L78.5854 36.4484L76.3594 36.7594L74.1444 37.1824L71.9464 37.7184L69.7774 38.3824C69.0664 38.6404 68.3494 38.8874 67.6444 39.1644L65.5544 40.0614L63.5144 41.0694L61.5444 42.1584L59.5784 43.3584L57.6784 44.6264L55.8334 45.9754L54.0384 47.3944L52.2904 48.8724L50.5854 50.4044L48.9274 51.9894C47.8404 53.0664 46.7744 54.1654 45.7304 55.2874C44.6934 56.4164 43.6754 57.5644 42.6764 58.7304C41.6824 59.9024 40.7044 61.0884 39.7414 62.2874C37.8204 64.6924 35.9754 67.1654 34.1514 69.6614L34.1194 67.5484C35.0064 68.6394 35.9404 69.6904 36.8564 70.7554C37.7714 71.8224 38.7354 72.8454 39.6794 73.8884L42.5614 76.9774C43.5294 78.0034 44.5184 79.0124 45.5404 79.9914L43.7094 81.8244C43.7974 81.9484 43.9364 82.0664 44.0924 82.1364C44.2434 82.2114 44.4614 82.2244 44.3744 82.2154L44.2834 82.2024C44.2374 82.1904 44.1224 82.1854 44.0304 82.1784L43.4264 82.1464L42.1614 82.1164C41.3104 82.1204 40.4524 82.1304 39.5964 82.1604C37.8824 82.2164 36.1684 82.3424 34.4544 82.4674C32.7414 82.6014 31.0244 82.7034 29.3134 82.8814L24.1804 83.3964L13.9294 84.5424C10.5254 84.9604 7.09242 85.2814 3.75042 85.7884C2.90242 85.9174 2.10941 85.3344 1.98041 84.4854L1.97141 84.4114L1.96842 84.3864C1.62342 80.9274 1.33142 77.4624 1.09342 73.9934C0.840421 70.5254 0.695425 67.0514 0.490425 63.5784L0.231422 58.3654C0.146422 56.6274 0.0884173 54.8874 0.0454172 53.1474C-0.0505828 49.6674 0.00941443 46.1844 0.189414 42.7084L0.194419 42.6054C0.249419 41.5534 1.14642 40.7444 2.19842 40.7984C2.63442 40.8214 3.02942 40.9884 3.33742 41.2514C5.14942 42.7954 6.92542 44.3824 8.69242 45.9824L11.3514 48.3704L12.4964 49.3964C12.5174 49.4214 12.5024 49.3984 12.3394 49.3934C12.2424 49.4024 12.1904 49.3914 11.9854 49.4764C11.9294 49.5024 11.8824 49.5354 11.9234 49.5124L11.9484 49.5004L11.9614 49.4944L11.9674 49.4914C11.9314 49.5124 12.0504 49.4414 11.8884 49.5394L11.8764 49.5474C11.7504 49.6314 11.6484 49.7414 11.5534 49.9034C11.3774 50.2254 11.4164 50.5194 11.4574 50.6514C11.5004 50.7914 11.5454 50.8584 11.6144 50.9374C11.6994 51.0024 11.7334 51.1214 12.1614 51.2364C12.2804 51.2624 12.4454 51.2684 12.5884 51.2364C12.7544 51.2144 12.9454 51.1134 13.0484 51.0354C13.1534 50.9694 13.2764 50.8114 13.3064 50.7634C13.3494 50.7014 13.3844 50.6314 13.4084 50.5604L11.1224 49.5744C12.0604 47.9434 12.9164 46.2764 13.8894 44.6724C14.8214 43.0464 15.8074 41.4554 16.8124 39.8744C17.3034 39.0774 17.8624 38.3244 18.3814 37.5454C18.9024 36.7674 19.4234 35.9904 19.9914 35.2454L21.6584 32.9854L23.3974 30.7794C23.9654 30.0344 24.5814 29.3284 25.1904 28.6174C25.8074 27.9134 26.3904 27.1774 27.0364 26.4994C28.3064 25.1214 29.5774 23.7444 30.9254 22.4404C32.2304 21.0924 33.6504 19.8654 35.0254 18.5884C36.4584 17.3784 37.8744 16.1434 39.3864 15.0294C40.8584 13.8634 42.4064 12.8014 43.9434 11.7224C44.7144 11.1864 45.5164 10.6984 46.3024 10.1844C47.0834 9.66639 47.8894 9.18138 48.7174 8.72038L51.1774 7.32039L53.6444 6.04138C55.3284 5.15338 57.0834 4.39938 58.8424 3.72238C62.3754 2.38938 66.0144 1.38938 69.7244 0.699385C71.5764 0.341385 73.4634 0.135389 75.3604 0.0383892C76.3104 -0.0176108 77.2614 -0.00462055 78.2244 0.0283794L79.6864 0.14839L81.0594 0.365385C81.4674 0.429385 81.7464 0.813388 81.6824 1.22139C81.6264 1.61439 81.2664 1.88639 80.8774 1.85039Z" fill="black"/>
<path d="M36.5335 72.3614C37.3885 71.1614 38.1655 69.9484 39.1265 68.7774C40.0355 67.5764 40.9995 66.4404 41.9725 65.3124C42.9485 64.1854 43.9875 63.1114 45.0415 62.0574C46.1075 61.0134 47.1835 59.9764 48.3145 58.9994C49.4125 57.9834 50.6005 57.0744 51.7485 56.1154C52.9515 55.2284 54.1305 54.3034 55.3845 53.4854C56.6115 52.6274 57.8805 51.8334 59.1605 51.0554C60.4485 50.2924 61.7605 49.5664 63.0885 48.8744C64.4235 48.1944 65.7635 47.5234 67.1395 46.9284C68.4975 46.2934 69.9125 45.7914 71.3025 45.2304C72.7235 44.7534 74.1235 44.2124 75.5695 43.8114C76.2965 43.6034 76.9945 43.3874 77.7435 43.1894C78.4375 43.0054 79.1845 42.8304 79.9375 42.6594C82.8945 42.0104 85.9325 41.6394 89.0045 41.6614C92.0665 41.7084 95.2025 42.1114 98.1315 43.2864L98.1755 43.3044C98.8845 43.5884 99.2275 44.3934 98.9435 45.1024C98.7765 45.5174 98.4245 45.8094 98.0245 45.9214C97.8425 45.9704 97.6215 45.9874 97.4125 45.9524C97.1965 45.9194 97.0045 45.8274 96.9545 45.7944C96.7935 45.7134 96.5865 45.5194 96.5315 45.4434C96.4405 45.3344 96.3385 45.1574 96.3245 45.1194C96.2485 44.9624 96.2305 44.8924 96.1985 44.8004C96.1545 44.6534 96.1245 44.5294 96.1015 44.4194C96.0535 44.1964 96.0195 43.9974 95.9875 43.8024L95.8205 42.6614L95.5235 40.4364L94.9035 36.0234L94.9015 36.0114C94.8165 35.4084 95.2375 34.8504 95.8405 34.7654C96.4105 34.6854 96.9405 35.0604 97.0695 35.6094C97.4085 37.0784 97.7285 38.5524 98.0065 40.0284L98.4285 42.2294L98.6465 43.2974L98.7635 43.7774L98.8145 43.9374C98.8145 43.9374 98.8255 43.9524 98.7925 43.8784C98.7955 43.8844 98.7245 43.7444 98.6575 43.6744C98.6155 43.6164 98.4305 43.4344 98.2865 43.3694C98.2435 43.3454 98.0645 43.2534 97.8595 43.2214C97.6625 43.1874 97.4515 43.2044 97.2825 43.2544L97.1755 45.8884C94.5855 45.0614 91.8185 44.7324 89.0325 44.8164C86.2445 44.9044 83.4515 45.3604 80.6965 45.9954C80.0255 46.1614 79.3485 46.3314 78.6305 46.5354C77.9675 46.7234 77.2715 46.9544 76.5925 47.1614C75.2155 47.5484 73.8835 48.0734 72.5305 48.5324C71.2075 49.0754 69.8615 49.5594 68.5665 50.1694C67.2485 50.7244 65.9645 51.3534 64.6825 51.9904C63.4085 52.6394 62.1485 53.3214 60.9115 54.0394C59.6745 54.7594 58.4415 55.4874 57.2495 56.2824C56.0275 57.0324 54.8915 57.9074 53.7045 58.7114C52.5685 59.5844 51.3895 60.4074 50.2975 61.3384C49.1725 62.2304 48.0985 63.1834 47.0305 64.1454C45.9695 65.1134 44.9445 66.1214 43.9205 67.1324C42.9085 68.1584 41.9055 69.1914 40.9715 70.2684C40.0075 71.3064 39.0875 72.4864 38.1375 73.5924L38.1235 73.6084C37.7605 74.0314 37.1225 74.0794 36.6995 73.7164C36.2995 73.3714 36.2355 72.7824 36.5335 72.3614Z" fill="black"/>
<path d="M92.1924 36.0514C93.2714 38.0104 94.3514 39.9694 95.4304 41.9294" stroke="black" stroke-width="1.4159" stroke-miterlimit="10" stroke-linecap="round" stroke-linejoin="round"/>
<path d="M88.2395 34.5254C90.3225 37.1904 92.2645 39.9664 94.0525 42.8384" stroke="black" stroke-width="1.4159" stroke-miterlimit="10" stroke-linecap="round" stroke-linejoin="round"/>
<path d="M86.8425 34.5654C88.5865 37.0444 90.3315 39.5234 92.0755 42.0024" stroke="black" stroke-width="1.4159" stroke-miterlimit="10" stroke-linecap="round" stroke-linejoin="round"/>
<path d="M85.3215 35.1384C86.8755 37.3154 88.4295 39.4914 89.9835 41.6684C90.1635 41.9214 90.3525 42.2354 90.2315 42.5214" stroke="black" stroke-width="1.4159" stroke-miterlimit="10" stroke-linecap="round" stroke-linejoin="round"/>
<path d="M82.7244 34.4914C84.4944 37.0434 86.2654 39.5964 88.0354 42.1484" stroke="black" stroke-width="1.4159" stroke-miterlimit="10" stroke-linecap="round" stroke-linejoin="round"/>
<path d="M80.4814 35.0984C80.6234 34.9674 80.8384 35.1324 80.9564 35.2854C82.8104 37.6954 84.6454 40.1204 86.4614 42.5584C86.3514 42.5404 86.2414 42.5224 86.1314 42.5044" stroke="black" stroke-width="1.4159" stroke-miterlimit="10" stroke-linecap="round" stroke-linejoin="round"/>
<path d="M78.2334 35.3434C80.3404 37.9114 82.4304 40.4924 84.5054 43.0854" stroke="black" stroke-width="1.4159" stroke-miterlimit="10" stroke-linecap="round" stroke-linejoin="round"/>
<path d="M75.9543 35.6944C78.0173 38.2314 80.0813 40.7674 82.1443 43.3044C82.0243 43.3134 81.9034 43.3224 81.7834 43.3314" stroke="black" stroke-width="1.4159" stroke-miterlimit="10" stroke-linecap="round" stroke-linejoin="round"/>
<path d="M74.4233 36.1304C76.4073 38.6694 78.3903 41.2074 80.3743 43.7464" stroke="black" stroke-width="1.4159" stroke-miterlimit="10" stroke-linecap="round" stroke-linejoin="round"/>
<path d="M72.5864 36.8744C74.6134 39.1264 76.5074 41.4994 78.2544 43.9754" stroke="black" stroke-width="1.4159" stroke-miterlimit="10" stroke-linecap="round" stroke-linejoin="round"/>
<path d="M70.5745 37.3814C72.7775 39.9174 74.8375 42.5774 76.7425 45.3454" stroke="black" stroke-width="1.4159" stroke-miterlimit="10" stroke-linecap="round" stroke-linejoin="round"/>
<path d="M69.2444 38.0294C70.9174 40.3904 72.7214 42.6584 74.6454 44.8204" stroke="black" stroke-width="1.4159" stroke-miterlimit="10" stroke-linecap="round" stroke-linejoin="round"/>
<path d="M67.4124 38.9164C69.5424 41.2354 71.4624 43.7484 73.1404 46.4134" stroke="black" stroke-width="1.4159" stroke-miterlimit="10" stroke-linecap="round" stroke-linejoin="round"/>
<path d="M64.6003 39.2994C66.8423 41.7874 69.0843 44.2744 71.3273 46.7624" stroke="black" stroke-width="1.4159" stroke-miterlimit="10" stroke-linecap="round" stroke-linejoin="round"/>
<path d="M62.4355 40.6654C64.5645 42.6964 66.4315 45.0004 67.9785 47.5034" stroke="black" stroke-width="1.4159" stroke-miterlimit="10" stroke-linecap="round" stroke-linejoin="round"/>
<path d="M61.3784 41.9034C63.0544 43.7494 64.7304 45.5944 66.4074 47.4404" stroke="black" stroke-width="1.4159" stroke-miterlimit="10" stroke-linecap="round" stroke-linejoin="round"/>
<path d="M59.8225 42.8744C61.7315 44.6234 63.5395 46.4824 65.2325 48.4414C64.9475 48.2834 64.6625 48.1244 64.3765 47.9664" stroke="black" stroke-width="1.4159" stroke-miterlimit="10" stroke-linecap="round" stroke-linejoin="round"/>
<path d="M58.5984 43.3664C60.3094 45.1614 62.0194 46.9564 63.7304 48.7514" stroke="black" stroke-width="1.4159" stroke-miterlimit="10" stroke-linecap="round" stroke-linejoin="round"/>
<path d="M57.7495 44.4524C59.5025 46.2394 61.2565 48.0264 63.0095 49.8134" stroke="black" stroke-width="1.4159" stroke-miterlimit="10" stroke-linecap="round" stroke-linejoin="round"/>
<path d="M56.4604 45.3634C58.1464 47.0304 59.8334 48.6974 61.5194 50.3644" stroke="black" stroke-width="1.4159" stroke-miterlimit="10" stroke-linecap="round" stroke-linejoin="round"/>
<path d="M55.2385 46.6654C56.7675 47.9544 58.2005 49.3584 59.5215 50.8604" stroke="black" stroke-width="1.4159" stroke-miterlimit="10" stroke-linecap="round" stroke-linejoin="round"/>
<path d="M53.5354 47.3724C55.2414 48.9014 56.9484 50.4314 58.6544 51.9604" stroke="black" stroke-width="1.4159" stroke-miterlimit="10" stroke-linecap="round" stroke-linejoin="round"/>
<path d="M51.8093 48.7624C53.4653 50.0374 55.1213 51.3134 56.7773 52.5884" stroke="black" stroke-width="1.4159" stroke-miterlimit="10" stroke-linecap="round" stroke-linejoin="round"/>
<path d="M50.1304 49.7554C51.9734 51.0524 53.7294 52.4744 55.3814 54.0084C55.1434 54.0234 54.9054 54.0384 54.6664 54.0534" stroke="black" stroke-width="1.4159" stroke-miterlimit="10" stroke-linecap="round" stroke-linejoin="round"/>
<path d="M49.2334 51.2384C51.0254 52.5324 52.8174 53.8254 54.6094 55.1194" stroke="black" stroke-width="1.4159" stroke-miterlimit="10" stroke-linecap="round" stroke-linejoin="round"/>
<path d="M48.3674 53.0034C50.2414 54.0104 51.9684 55.2894 53.4774 56.7884" stroke="black" stroke-width="1.4159" stroke-miterlimit="10" stroke-linecap="round" stroke-linejoin="round"/>
<path d="M46.8904 54.0224C48.7744 55.2074 50.5034 56.6394 52.0194 58.2694" stroke="black" stroke-width="1.4159" stroke-miterlimit="10" stroke-linecap="round" stroke-linejoin="round"/>
<path d="M44.7964 55.1394C46.4174 56.4654 48.0394 57.7914 49.6614 59.1174" stroke="black" stroke-width="1.4159" stroke-miterlimit="10" stroke-linecap="round" stroke-linejoin="round"/>
<path d="M43.3855 56.7234C45.1935 58.1024 47.0025 59.4814 48.8105 60.8604" stroke="black" stroke-width="1.4159" stroke-miterlimit="10" stroke-linecap="round" stroke-linejoin="round"/>
<path d="M43.0186 58.4084C44.4846 59.3764 45.8686 60.4694 47.1476 61.6734C46.6426 61.6494 46.1375 61.6254 45.6335 61.6014" stroke="black" stroke-width="1.4159" stroke-miterlimit="10" stroke-linecap="round" stroke-linejoin="round"/>
<path d="M41.2324 59.3964C42.2194 60.1464 43.2074 60.8964 44.1944 61.6464C44.6534 61.9954 45.1634 62.4544 45.0964 63.0274" stroke="black" stroke-width="1.4159" stroke-miterlimit="10" stroke-linecap="round" stroke-linejoin="round"/>
<path d="M39.6174 60.6254C41.0444 61.8564 42.4704 63.0864 43.8974 64.3174" stroke="black" stroke-width="1.4159" stroke-miterlimit="10" stroke-linecap="round" stroke-linejoin="round"/>
<path d="M38.7185 62.2764C39.8635 62.9634 40.9125 63.8114 41.8225 64.7884" stroke="black" stroke-width="1.4159" stroke-miterlimit="10" stroke-linecap="round" stroke-linejoin="round"/>
<path d="M37.0334 63.7664C38.4264 64.6084 39.7584 65.5524 41.0154 66.5874" stroke="black" stroke-width="1.4159" stroke-miterlimit="10" stroke-linecap="round" stroke-linejoin="round"/>
<path d="M36.2534 65.2404C37.4794 66.1114 38.7054 66.9824 39.9304 67.8544" stroke="black" stroke-width="1.4159" stroke-miterlimit="10" stroke-linecap="round" stroke-linejoin="round"/>
<path d="M34.9023 67.2294C36.3803 67.9954 37.7424 68.9844 38.9294 70.1524" stroke="black" stroke-width="1.4159" stroke-miterlimit="10" stroke-linecap="round" stroke-linejoin="round"/>
<path d="M34.3364 68.3864C35.4144 69.4954 36.5834 70.5164 37.8274 71.4374" stroke="black" stroke-width="1.4159" stroke-miterlimit="10" stroke-linecap="round" stroke-linejoin="round"/>
<path d="M64.0164 9.53641C64.0164 9.53641 63.4834 9.80241 62.5514 10.2674C61.6034 10.7214 60.3274 11.3944 58.7694 12.2354C57.9874 12.6434 57.1584 13.1164 56.2854 13.6224C55.4034 14.1134 54.5154 14.7034 53.5634 15.2524C51.6874 16.4024 49.7364 17.7054 47.8364 19.0784C46.8994 19.7824 45.9324 20.4454 45.0284 21.1634C44.1044 21.8554 43.2344 22.5854 42.3804 23.2774C41.5534 24.0014 40.7224 24.6664 39.9684 25.3364C39.2084 25.9994 38.4934 26.6324 37.8564 27.2404C36.5704 28.4444 35.4954 29.4514 34.7764 30.1884C34.0414 30.9134 33.6214 31.3274 33.6214 31.3274L33.6054 31.3434C33.3164 31.6284 32.8504 31.6254 32.5654 31.3364C32.2994 31.0674 32.2844 30.6444 32.5174 30.3574C32.5174 30.3574 32.8954 29.8904 33.5574 29.0734C33.8884 28.6644 34.3064 28.1824 34.7934 27.6334C35.2714 27.0764 35.8234 26.4604 36.4604 25.8204C37.7094 24.5184 39.2114 23.0344 40.9184 21.5544C42.6354 20.0864 44.5184 18.5784 46.4714 17.1654C48.4544 15.7934 50.4874 14.4974 52.4364 13.3574C53.4174 12.7974 54.3774 12.2764 55.3034 11.8164C56.2264 11.3494 57.1014 10.9144 57.9244 10.5424C58.7344 10.1494 59.5034 9.8334 60.1874 9.5574C60.8684 9.2744 61.4604 9.0344 61.9474 8.8584C62.9264 8.5024 63.4854 8.2984 63.4854 8.2984C63.8354 8.1714 64.2224 8.3514 64.3494 8.7014C64.4684 9.0284 64.3194 9.38541 64.0164 9.53641Z" fill="black"/>
<path d="M29.4695 32.0334C29.4695 32.0334 29.7145 32.0564 29.9955 32.1764C30.2805 32.2924 30.6095 32.4964 30.8785 32.7594C31.1475 33.0214 31.3605 33.3394 31.4735 33.6224C31.5925 33.8994 31.6095 34.1454 31.6095 34.1454C31.6465 34.6764 31.2455 35.1354 30.7145 35.1724C30.6625 35.1764 30.6055 35.1744 30.5555 35.1704C30.5555 35.1704 30.3105 35.1464 30.0365 35.0194C29.7565 34.8984 29.4455 34.6774 29.1905 34.4004C28.9355 34.1244 28.7405 33.7894 28.6325 33.5014C28.5205 33.2174 28.5045 32.9714 28.5045 32.9714C28.4715 32.4844 28.8405 32.0634 29.3275 32.0314C29.3735 32.0284 29.4245 32.0294 29.4695 32.0334Z" fill="black"/>
<path d="M26.2915 35.0984C26.2915 35.0984 26.5745 35.1124 26.9265 35.2324C27.2815 35.3464 27.7125 35.5554 28.0915 35.8324C28.4715 36.1084 28.8035 36.4464 29.0135 36.7524C29.2285 37.0514 29.3195 37.3204 29.3195 37.3204C29.4765 37.7854 29.2275 38.2884 28.7625 38.4454C28.6535 38.4824 28.5395 38.4964 28.4305 38.4904C28.4305 38.4904 28.1475 38.4754 27.8025 38.3484C27.4515 38.2284 27.0365 37.9994 26.6685 37.7074C26.3005 37.4164 25.9825 37.0584 25.7775 36.7464C25.5675 36.4404 25.4785 36.1704 25.4785 36.1704C25.3355 35.7434 25.5655 35.2824 25.9915 35.1394C26.0895 35.1064 26.1935 35.0934 26.2915 35.0984Z" fill="black"/>
</svg>
