<svg width="275" height="298" viewBox="0 0 275 298" fill="none" xmlns="http://www.w3.org/2000/svg">
<path d="M217.531 231.482C217.57 230.417 217.685 229.399 217.843 228.454L211.121 226.229L223.908 218.911C227.701 216.847 232.863 217.234 238.564 220.51C249.822 227.024 259.036 242.59 259.574 255.756C266.596 261.069 271.98 271.169 271.98 279.632V279.976C271.98 284.657 270.329 287.935 267.678 289.474C265.013 291 254.751 296.881 254.751 296.881L219.785 266.777C211.681 262.092 205.115 250.72 205.115 241.373V241.037C205.117 232.57 210.497 228.686 217.531 231.482Z" fill="#BABABA"/>
<path d="M204.705 238.838C205.24 226.28 214.43 221.359 225.712 227.863C236.998 234.383 246.21 249.93 246.75 263.106C253.764 268.421 259.159 278.526 259.159 286.988V287.329C259.159 296.672 252.588 300.466 244.486 295.793L206.952 274.12C198.854 269.445 192.295 258.076 192.295 248.732V248.387C192.297 239.927 197.68 236.037 204.705 238.838Z" fill="white"/>
<path d="M16.2931 19.4124C16.3192 18.7267 16.3941 18.067 16.4967 17.4577L12.1557 16.0194L20.4125 11.2957C22.8624 9.96323 26.1935 10.2108 29.8764 12.3267C37.1445 16.5342 43.0949 26.5844 43.4402 35.0872C47.975 38.516 51.4511 45.0381 51.4511 50.5046V50.7262C51.4511 53.751 50.389 55.8653 48.677 56.8606C46.9537 57.8461 40.3274 61.643 40.3274 61.643L17.7526 42.2038C12.5189 39.179 8.27734 31.836 8.27734 25.7993V25.5826C8.27734 20.1145 11.755 17.606 16.2931 19.4124Z" fill="#BABABA"/>
<path d="M8.01575 24.1606C8.35781 16.0537 14.2902 12.8757 21.5779 17.075C28.8655 21.2857 34.8142 31.3245 35.1661 39.8322C39.6911 43.2643 43.1769 49.7896 43.1769 55.2529V55.4711C43.1769 61.5062 38.9353 63.9544 33.7033 60.9377L9.46548 46.9455C4.23512 43.9272 0 36.5842 0 30.5508V30.3292C0.00162889 24.8643 3.47603 22.3526 8.01575 24.1606Z" fill="white"/>
<path d="M186.02 12.5564C186.054 11.5905 186.162 10.6669 186.303 9.81011L180.205 7.79192L191.807 1.15419C195.249 -0.7174 199.929 -0.367188 205.101 2.60391C215.311 8.51514 223.675 22.6295 224.151 34.5757C230.526 39.394 235.411 48.5565 235.411 56.2318V56.5446C235.411 60.7927 233.913 63.7622 231.508 65.1614C229.088 66.5459 219.779 71.8789 219.779 71.8789L188.067 44.5739C180.715 40.3241 174.758 30.01 174.758 21.53V21.2254C174.759 13.5435 179.643 10.0186 186.02 12.5564Z" fill="#BABABA"/>
<path d="M174.383 19.2267C174.863 7.8359 183.205 3.37275 193.438 9.27095C203.675 15.1871 212.028 29.2884 212.522 41.2412C218.879 46.0594 223.779 55.2252 223.779 62.9005V63.21C223.779 71.6867 217.817 75.1253 210.471 70.8886L176.421 51.2328C169.078 46.9928 163.129 36.677 163.129 28.2035V27.8892C163.129 20.2138 168.014 16.6873 174.383 19.2267Z" fill="white"/>
<path d="M246.773 158.611C246.793 158.075 246.853 157.562 246.932 157.086L243.547 155.965L249.986 152.281C251.898 151.242 254.494 151.437 257.363 153.087C263.03 156.368 267.672 164.203 267.938 170.831C271.474 173.505 274.184 178.589 274.184 182.85V183.023C274.184 185.38 273.354 187.027 272.02 187.804C270.677 188.571 265.511 191.532 265.511 191.532L247.912 176.377C243.83 174.018 240.523 168.294 240.523 163.589V163.419C240.523 159.16 243.234 157.203 246.773 158.611Z" fill="#BABABA"/>
<path d="M240.319 162.315C240.585 155.992 245.214 153.516 250.892 156.788C256.574 160.07 261.211 167.897 261.483 174.532C265.015 177.206 267.732 182.295 267.732 186.553V186.725C267.732 191.43 264.423 193.337 260.348 190.987L241.45 180.076C237.374 177.724 234.072 171.999 234.072 167.296V167.122C234.072 162.862 236.783 160.904 240.319 162.315Z" fill="white"/>
</svg>
