<svg width="308" height="280" viewBox="0 0 308 280" fill="none" xmlns="http://www.w3.org/2000/svg">
<path d="M0 280H308V0H0V280Z" fill="#FFED91"/>
<path d="M164.54 276.94C117.761 276.94 79.8359 271.88 79.8359 265.642C79.8359 261.754 94.5689 258.327 116.993 256.297C115.485 257.247 114.529 258.483 114.53 259.974C114.53 260.1 114.537 260.228 114.552 260.358C114.552 260.363 114.552 260.368 114.552 260.371C114.552 260.376 114.552 260.38 114.551 260.384C114.484 262.618 116.179 264.087 118.902 265.025C122.471 266.272 127.823 266.718 133.292 266.718C138.657 266.718 144.134 266.289 148.154 265.765C151.179 265.555 151.931 260.983 152.119 254.473C156.174 254.394 160.32 254.352 164.54 254.352C168.361 254.352 172.125 254.386 175.811 254.452C175.998 260.973 176.748 265.555 179.777 265.765C183.797 266.289 189.274 266.718 194.64 266.718C200.452 266.718 206.134 266.214 209.686 264.782C209.684 264.782 209.681 264.783 209.681 264.783C212.019 263.839 213.441 262.435 213.379 260.384C213.379 260.381 213.379 260.376 213.379 260.371C213.379 260.368 213.379 260.363 213.379 260.358C213.394 260.228 213.4 260.1 213.402 259.974C213.402 258.42 212.363 257.142 210.743 256.177C233.926 258.191 249.252 261.677 249.252 265.642C249.252 271.88 211.327 276.94 164.54 276.94Z" fill="#ABA353"/>
<path d="M193.085 213.883C197.956 226.864 199.539 238.668 196.128 254.815C202.378 252.719 213.966 254.989 213.38 260.359C213.67 268.425 191.104 266.546 179.778 265.765C171.501 265.187 180.241 231.975 170.988 215.712C178.354 215.105 185.719 214.49 193.085 213.883Z" fill="#F9A62A"/>
<path d="M175.748 246.448C175.617 240.763 175.528 234.626 174.969 229.226C175.699 234.894 175.744 240.94 175.748 246.448Z" fill="#ABA353"/>
<path d="M194.64 266.718C189.275 266.718 183.797 266.289 179.777 265.765C184.119 266.065 190.111 266.526 195.836 266.526C201.223 266.526 206.372 266.117 209.681 264.783L209.686 264.782C206.134 266.215 200.452 266.718 194.64 266.718Z" fill="#736E3D"/>
<path d="M195.834 266.525C190.109 266.525 184.116 266.065 179.775 265.765C176.347 265.318 175.98 256.606 175.745 246.448C175.741 240.94 175.697 234.894 174.967 229.226C174.513 224.854 173.752 220.965 172.41 218.195L189.149 216.803C190.175 219.539 191.068 222.162 191.806 224.747C187.697 226.484 182.902 227.174 178.951 228.302C179.833 243.235 178.402 264.261 184.01 264.651C188.352 264.954 194.347 265.415 200.071 265.415C203.305 265.415 206.453 265.268 209.169 264.863C209.151 264.906 209.132 264.949 209.112 264.992C209.302 264.925 209.485 264.856 209.663 264.786C209.669 264.784 209.672 264.784 209.679 264.783C206.369 266.116 201.22 266.525 195.834 266.525Z" fill="#AD741E"/>
<path d="M195.832 222.456C195.091 219.616 194.168 216.779 193.082 213.883C194.73 218.278 195.047 218.076 195.879 222.419C195.863 222.432 195.847 222.444 195.832 222.456Z" fill="#ABA353"/>
<path d="M193.082 213.883C192.995 213.891 192.908 213.897 192.82 213.905L193.082 213.883Z" fill="#AD741E"/>
<path d="M170.988 215.712L171.191 215.695C171.123 215.702 171.056 215.706 170.988 215.712Z" fill="#ABA353"/>
<path d="M209.171 264.863C209.371 264.384 209.467 263.863 209.447 263.286C211.124 255.871 193.213 262.05 192.483 256.347C195.17 243.602 194.575 234.434 191.809 224.747C193.258 224.136 194.622 223.394 195.834 222.456C197.206 227.722 197.952 232.997 197.948 238.672C197.945 243.656 197.365 248.95 196.126 254.815C197.682 254.293 199.57 254.042 201.52 254.042C207.205 254.042 213.405 256.182 213.401 259.974C213.4 260.1 213.394 260.228 213.379 260.358C213.379 260.363 213.379 260.368 213.379 260.372C213.379 260.376 213.379 260.38 213.379 260.383C213.44 262.439 212.012 263.846 209.665 264.786C209.503 264.812 209.337 264.838 209.171 264.863Z" fill="#FBC260"/>
<path d="M172.215 218.213C171.961 217.625 171.692 217.051 171.406 216.494C171.411 216.501 171.416 216.508 171.421 216.515C171.705 217.064 171.97 217.63 172.218 218.212L172.215 218.213Z" fill="#FCF5A1"/>
<path d="M172.223 218.212C171.975 217.63 171.71 217.063 171.426 216.514C171.787 217.015 172.116 217.577 172.416 218.196L172.223 218.212Z" fill="#FBC260"/>
<path d="M171.408 216.491C171.271 216.228 171.133 215.967 170.988 215.713C171.016 215.759 171.042 215.808 171.069 215.857C171.185 216.063 171.296 216.274 171.408 216.486V216.491Z" fill="#FCF5A1"/>
<path d="M171.069 215.856C171.042 215.808 171.016 215.759 170.988 215.712C171.016 215.761 171.042 215.808 171.069 215.856ZM171.191 215.695C178.401 215.1 185.612 214.499 192.823 213.905L172.947 215.553L172.666 215.575L171.191 215.695Z" fill="#FBC260"/>
<path d="M209.113 264.992C209.133 264.95 209.152 264.906 209.17 264.863C209.336 264.839 209.501 264.813 209.664 264.786C209.486 264.857 209.303 264.926 209.113 264.992Z" fill="#C69E59"/>
<path d="M171.42 216.514C171.416 216.508 171.411 216.501 171.407 216.494L171.405 216.491V216.485C171.294 216.274 171.182 216.063 171.066 215.857C171.188 216.072 171.306 216.291 171.42 216.514Z" fill="#C5BF85"/>
<path d="M191.81 224.747C191.071 222.162 190.178 219.539 189.152 216.803L172.414 218.197C172.114 217.577 171.785 217.015 171.423 216.515C171.309 216.292 171.191 216.072 171.069 215.857C171.042 215.807 171.016 215.76 170.988 215.712C171.056 215.706 171.123 215.702 171.191 215.695L172.666 215.575L172.947 215.554L192.823 213.905C192.91 213.898 192.998 213.891 193.085 213.884C194.171 216.78 195.094 219.616 195.835 222.456C194.623 223.394 193.259 224.136 191.81 224.747Z" fill="#C69E59"/>
<path d="M134.844 213.883C129.973 226.864 128.389 238.668 131.801 254.815C125.551 252.719 113.963 254.989 114.549 260.359C114.259 268.425 136.825 266.546 148.151 265.765C156.428 265.187 147.688 231.975 156.941 215.712C149.575 215.105 142.211 214.49 134.844 213.883Z" fill="#F9A62A"/>
<path d="M133.293 266.718C127.824 266.718 122.471 266.272 118.902 265.026C122.215 266.167 127.051 266.526 132.096 266.526C137.82 266.526 143.813 266.065 148.155 265.765C144.135 266.289 138.658 266.718 133.293 266.718Z" fill="#736E3D"/>
<path d="M152.184 246.448C152.188 240.94 152.232 234.894 152.963 229.226C152.403 234.626 152.314 240.763 152.184 246.448ZM132.098 222.456C132.082 222.444 132.066 222.432 132.051 222.419C132.882 218.076 133.2 218.278 134.848 213.883C133.761 216.779 132.839 219.616 132.098 222.456ZM156.524 216.494C156.659 216.23 156.798 215.97 156.942 215.715C156.806 215.967 156.661 216.227 156.533 216.485L156.525 216.492C156.525 216.492 156.525 216.492 156.524 216.494ZM156.945 215.712C156.781 215.699 156.618 215.686 156.455 215.671L156.945 215.712Z" fill="#ABA353"/>
<path d="M132.1 266.525C127.056 266.525 122.22 266.167 118.907 265.025C118.684 264.948 118.467 264.867 118.258 264.782C118.261 264.783 118.265 264.783 118.265 264.783C118.446 264.856 118.631 264.925 118.822 264.992C118.801 264.948 118.782 264.904 118.765 264.861C121.481 265.268 124.63 265.415 127.867 265.415C133.591 265.415 139.585 264.954 143.925 264.651C149.533 264.261 148.109 243.235 148.984 228.302C145.031 227.174 140.238 226.483 136.128 224.746C136.867 222.161 137.759 219.539 138.785 216.803L155.525 218.195C154.182 220.965 153.42 224.855 152.968 229.226C152.238 234.894 152.193 240.94 152.188 246.448C151.955 256.606 151.587 265.318 148.16 265.765C143.818 266.065 137.825 266.525 132.1 266.525ZM134.854 213.883L135.114 213.904C135.027 213.897 134.94 213.891 134.854 213.883Z" fill="#AD741E"/>
<path d="M155.72 218.213L155.711 218.212C155.957 217.63 156.223 217.064 156.507 216.515C156.512 216.508 156.517 216.5 156.521 216.494C156.236 217.051 155.969 217.625 155.72 218.213ZM156.94 215.715L156.941 215.714C156.941 215.714 156.941 215.714 156.942 215.712C156.941 215.714 156.94 215.715 156.94 215.715Z" fill="#FCF5A1"/>
<path d="M118.756 264.861C118.588 264.836 118.422 264.81 118.257 264.783C115.913 263.843 114.487 262.439 114.548 260.384C114.548 260.38 114.548 260.376 114.548 260.371C114.548 260.368 114.548 260.363 114.548 260.358C114.534 260.228 114.527 260.1 114.527 259.974C114.524 256.181 120.723 254.042 126.408 254.042C128.356 254.042 130.245 254.292 131.802 254.815C130.562 248.949 129.983 243.656 129.979 238.671C129.976 232.997 130.721 227.722 132.094 222.456C133.307 223.392 134.671 224.134 136.12 224.746C133.353 234.432 132.757 243.602 135.445 256.348C134.714 262.05 116.803 255.871 118.481 263.286C118.461 263.861 118.557 264.383 118.756 264.861ZM155.71 218.212L155.516 218.195C155.816 217.576 156.145 217.014 156.506 216.514C156.221 217.063 155.956 217.63 155.71 218.212ZM156.452 215.671L155.271 215.574L154.982 215.552L135.105 213.904C142.221 214.491 149.335 215.084 156.452 215.671Z" fill="#FBC260"/>
<path d="M156.508 216.514C156.647 216.243 156.793 215.977 156.943 215.714L156.941 215.715C156.797 215.97 156.658 216.23 156.523 216.494C156.518 216.5 156.513 216.508 156.508 216.514Z" fill="#C5BF85"/>
<path d="M118.814 264.992C118.624 264.926 118.439 264.856 118.258 264.783C118.424 264.811 118.591 264.837 118.758 264.861C118.776 264.905 118.794 264.949 118.814 264.992ZM136.122 224.746C134.673 224.135 133.311 223.393 132.098 222.456C132.839 219.616 133.761 216.78 134.848 213.884C134.935 213.891 135.019 213.898 135.107 213.905L154.984 215.553L155.273 215.575L156.454 215.671C156.617 215.686 156.779 215.699 156.943 215.712C156.942 215.714 156.941 215.715 156.941 215.715C156.792 215.978 156.647 216.243 156.508 216.515C156.147 217.014 155.819 217.576 155.519 218.197L138.779 216.803C137.752 219.539 136.86 222.161 136.122 224.746Z" fill="#C69E59"/>
<path d="M195.704 233.334C195.183 227.406 193.804 221.813 191.729 216.009L174.071 217.475C177.736 226.119 177.742 237.735 177.742 247.485C177.749 256.449 177.749 263.611 179.904 263.763L181.125 263.85C186.177 264.204 193.014 264.681 198.986 264.471C205.779 264.226 211.483 263.25 211.382 260.43L211.388 260.149C211.41 259.924 211.388 259.715 211.323 259.527C211.077 258.783 210.225 258.105 209.039 257.533C207.6 256.839 205.75 256.376 203.813 256.167C201.29 255.899 198.703 256.058 196.759 256.716L193.441 257.83L194.164 254.41C195.827 246.545 196.267 239.744 195.704 233.334ZM194.952 213.182C197.453 219.854 199.115 226.214 199.709 232.994C200.227 238.935 199.931 245.18 198.675 252.213C200.452 251.989 202.375 251.982 204.24 252.184C206.596 252.437 208.901 253.03 210.766 253.926C212.892 254.946 214.496 256.399 215.126 258.262C215.356 258.956 215.45 259.693 215.378 260.466C215.444 266.278 207.998 268.157 199.13 268.468C192.885 268.692 185.967 268.209 180.858 267.847L179.645 267.76C173.754 267.355 173.745 258.529 173.745 247.485C173.738 237.143 173.738 224.602 169.242 216.702L167.688 213.977L194.417 211.758L194.952 213.182Z" fill="#100F0D"/>
<path d="M128.217 232.994C128.817 226.214 130.472 219.854 132.974 213.182L133.508 211.758L160.237 213.977L158.684 216.702C154.188 224.602 154.188 237.143 154.181 247.485C154.181 258.529 154.173 267.355 148.289 267.76L147.067 267.847C141.959 268.209 135.041 268.692 128.803 268.468C119.928 268.157 112.482 266.278 112.547 260.466C112.475 259.693 112.569 258.956 112.808 258.262C113.429 256.399 115.034 254.946 117.159 253.926C119.024 253.03 121.33 252.437 123.686 252.184C125.55 251.982 127.472 251.989 129.251 252.213C127.993 245.18 127.697 238.935 128.217 232.994ZM136.197 216.009C134.123 221.812 132.742 227.406 132.221 233.334C131.658 239.744 132.099 246.545 133.762 254.41L134.485 257.83L131.167 256.716C129.222 256.058 126.635 255.899 124.113 256.167C122.175 256.376 120.325 256.839 118.887 257.533C117.701 258.105 116.855 258.783 116.602 259.527C116.537 259.715 116.516 259.924 116.537 260.149L116.544 260.43C116.45 263.25 122.147 264.226 128.94 264.471C134.91 264.681 141.749 264.204 146.808 263.85L148.022 263.763C150.176 263.611 150.176 256.449 150.183 247.485C150.183 237.735 150.19 226.119 153.855 217.475L136.197 216.009Z" fill="#100F0D"/>
<path d="M78.4413 155.655C58.832 128.305 10.0362 109.938 3.09688 130.154C-5.72122 155.843 49.4 133.696 77.0533 170.024C78.6143 162.977 76.88 162.702 78.4413 155.655Z" fill="#F9A62A"/>
<path d="M52.5813 139.077C45.6853 134.873 38.4422 131.577 31.6393 129.515L30.4531 125.414C31.5512 125.716 32.6661 126.054 33.7901 126.425C39.8101 128.409 46.1283 131.341 52.1803 134.99C52.3213 136.62 52.4543 137.955 52.5813 139.077Z" fill="#FBC260"/>
<path d="M75.6639 165.175C64.3129 152.644 49.5989 148.035 36.2969 145.611L35.5039 142.874C41.7019 143.888 48.2319 145.338 54.4419 148.014C53.6479 144.795 53.1649 144.197 52.5819 139.078C61.4419 144.48 69.7279 151.379 75.7689 159.081C75.6149 160.592 75.6429 161.73 75.6709 162.869C75.6849 163.599 75.7069 164.328 75.6639 165.175Z" fill="#AD741E"/>
<path d="M75.7667 159.081C69.7267 151.379 61.4407 144.48 52.5807 139.078C52.4527 137.956 52.3197 136.619 52.1797 134.99C61.4957 140.605 70.1907 147.918 76.2327 156.081C75.9977 157.246 75.8527 158.225 75.7667 159.081Z" fill="#AD8745"/>
<path d="M35.0851 122.631C51.3771 127.994 69.743 140.028 80.1449 154.527L80.6579 155.243L80.4689 156.095C79.7469 159.363 79.7829 161.09 79.8269 162.811C79.8699 164.747 79.9129 166.684 79.0819 170.464L78.1213 174.795L75.381 171.194C61.417 152.85 39.885 149.937 23.839 147.768C17.955 146.981 12.78 146.28 8.79052 144.965C1.51162 142.565 -1.95058 138.467 1.12132 129.51C2.15502 126.512 3.98362 124.228 6.43352 122.601C9.73682 120.411 14.117 119.464 19.133 119.58C23.947 119.681 29.3971 120.758 35.0851 122.631ZM76.234 156.081C66.267 142.615 49.079 131.462 33.791 126.425C28.508 124.683 23.485 123.685 19.09 123.592C14.905 123.498 11.349 124.228 8.81172 125.912C7.09192 127.047 5.80542 128.665 5.06782 130.797C2.99342 136.84 5.27752 139.58 10.0835 141.17C13.72 142.362 18.7 143.042 24.367 143.802C40.058 145.926 60.759 148.723 75.662 165.174C75.707 164.329 75.685 163.599 75.67 162.869C75.627 161.083 75.583 159.298 76.234 156.081Z" fill="#100F0D"/>
<path d="M251.875 146.462C253.299 179.515 283.497 219.825 300.02 206.294C321.031 189.091 263.931 179.76 260.715 135.041C255.655 140.194 256.934 141.308 251.875 146.462Z" fill="#F9A62A"/>
<path d="M300.02 206.294C301.625 204.978 302.775 203.706 303.526 202.471C302.314 203.394 301.025 204.031 299.675 204.406C305.338 193.457 280.423 184.379 266.034 163.703C266.611 161.481 267.228 159.421 267.857 157.639C280.375 178.705 304.648 188.461 304.653 198.711C304.654 201.157 303.273 203.631 300.02 206.294ZM266.39 155.014C262.508 149.255 261.602 145.452 260.809 136.17C261.474 143.306 263.522 149.528 266.39 155.014Z" fill="#FCD48D"/>
<path d="M256.805 139.905C256.907 139.742 257.012 139.579 257.121 139.411C257.012 139.58 256.907 139.745 256.806 139.909" fill="#FEF8BD"/>
<path d="M257.544 171.326C257.533 171.302 257.523 171.276 257.512 171.252C257.483 171.177 257.453 171.1 257.423 171.022C257.463 171.123 257.504 171.226 257.544 171.326ZM256.718 169.166C256.679 169.063 256.64 168.958 256.601 168.853C256.588 168.814 256.575 168.774 256.561 168.736C256.612 168.878 256.666 169.025 256.718 169.166ZM255.789 166.514C255.695 166.241 255.606 165.966 255.517 165.688C255.5 165.635 255.484 165.582 255.466 165.528C255.573 165.859 255.679 166.184 255.789 166.514ZM254.478 162.22L254.434 162.066C254.365 161.819 254.299 161.569 254.236 161.319C254.315 161.619 254.396 161.92 254.478 162.22ZM254.03 160.529L254.022 160.498C254.019 160.486 254.016 160.474 254.012 160.463C254.019 160.486 254.024 160.506 254.03 160.529ZM253.668 159.049L253.639 158.936C253.548 158.531 253.456 158.124 253.369 157.72C253.464 158.162 253.564 158.605 253.668 159.049ZM253.333 157.553L253.292 157.368C253.198 156.912 253.104 156.45 253.017 155.995L252.994 155.874C253.1 156.434 253.214 156.992 253.333 157.553ZM252.793 154.77C252.772 154.643 252.749 154.517 252.728 154.39L252.699 154.238C252.62 153.761 252.547 153.277 252.475 152.8L252.461 152.675C252.561 153.372 252.671 154.07 252.793 154.77ZM252.454 152.634C252.384 152.155 252.321 151.683 252.266 151.202L252.251 151.108C252.193 150.609 252.143 150.111 252.092 149.62L252.085 149.554C252.041 149.048 251.998 148.542 251.962 148.036V148.004C252.068 149.536 252.235 151.082 252.454 152.634ZM251.875 146.461C252.583 145.738 253.169 145.088 253.668 144.503C255.247 142.628 255.912 141.34 256.805 139.909C256.805 139.909 256.805 139.912 256.805 139.914C255.634 141.794 254.852 143.428 251.875 146.461Z" fill="#C6BD5D"/>
<path d="M292.619 208.979C282.093 208.977 269.253 195.655 260.823 178.683C260.743 178.524 260.664 178.357 260.584 178.199C260.425 177.866 260.266 177.533 260.107 177.201C260.035 177.05 259.955 176.891 259.883 176.731C259.724 176.392 259.565 176.044 259.406 175.698C259.333 175.531 259.254 175.372 259.182 175.206C259.037 174.888 258.9 174.57 258.763 174.245C258.676 174.057 258.597 173.862 258.509 173.666C258.38 173.355 258.249 173.045 258.119 172.734C258.026 172.518 257.938 172.301 257.852 172.091C257.747 171.834 257.647 171.578 257.544 171.326C257.504 171.226 257.463 171.123 257.423 171.022C257.351 170.836 257.281 170.649 257.209 170.464C257.114 170.226 257.028 169.98 256.934 169.741C256.864 169.55 256.79 169.359 256.718 169.165C256.666 169.025 256.612 168.878 256.561 168.735C256.503 168.564 256.444 168.396 256.385 168.231C256.269 167.913 256.16 167.595 256.052 167.284C255.979 167.082 255.915 166.887 255.85 166.691C255.829 166.632 255.808 166.573 255.789 166.514C255.679 166.184 255.573 165.858 255.466 165.527C255.428 165.404 255.392 165.278 255.351 165.151C255.235 164.798 255.127 164.437 255.018 164.075C254.968 163.924 254.924 163.764 254.881 163.613C254.766 163.223 254.65 162.832 254.543 162.435L254.478 162.219C254.396 161.92 254.315 161.619 254.236 161.319C254.19 161.145 254.145 160.972 254.101 160.801L254.03 160.529C254.024 160.506 254.019 160.486 254.012 160.463C253.907 160.033 253.802 159.611 253.704 159.182L253.668 159.048C253.564 158.605 253.464 158.162 253.369 157.72C253.359 157.676 253.351 157.634 253.343 157.592L253.333 157.553C253.214 156.992 253.1 156.434 252.994 155.874L252.981 155.799C252.917 155.455 252.853 155.112 252.793 154.769C252.671 154.07 252.561 153.372 252.461 152.674V152.669C252.458 152.659 252.457 152.646 252.454 152.634C252.235 151.082 252.068 149.536 251.962 148.004V148C251.956 147.926 251.951 147.853 251.947 147.779C251.917 147.339 251.893 146.898 251.875 146.461C254.852 143.427 255.634 141.794 256.805 139.913C257.917 149.317 261.438 157.1 266.033 163.702C265.212 166.864 264.472 170.354 263.902 173.833C272.376 190.968 285.82 204.816 296.588 204.815C297.644 204.815 298.677 204.681 299.674 204.405C299.01 205.688 297.926 206.997 296.355 208.353C297.562 207.938 298.723 207.316 299.822 206.453C297.624 208.183 295.19 208.979 292.619 208.979Z" fill="#C98620"/>
<path d="M267.858 157.639C267.348 156.783 266.859 155.909 266.391 155.014C266.875 155.732 267.405 156.481 267.987 157.274C267.944 157.394 267.901 157.516 267.858 157.639Z" fill="#C6BD5D"/>
<path d="M257.117 139.411C257.726 138.476 258.479 137.449 259.666 136.144C258.479 137.449 257.729 138.477 257.117 139.411ZM260.805 136.17C260.772 135.814 260.741 135.457 260.716 135.097C260.73 135.28 260.75 135.464 260.769 135.647L260.762 135.662C260.776 135.833 260.791 136.001 260.805 136.17Z" fill="#C6BD5D"/>
<path d="M296.355 208.354C297.927 206.997 299.011 205.689 299.674 204.406C301.025 204.031 302.315 203.394 303.527 202.471C302.775 203.706 301.625 204.978 300.02 206.294C299.954 206.348 299.89 206.401 299.822 206.453C298.724 207.316 297.563 207.938 296.355 208.354Z" fill="#C8A86D"/>
<path d="M256.806 139.914C256.806 139.911 256.805 139.906 256.805 139.906C256.907 139.745 257.012 139.58 257.121 139.412C257.732 138.477 258.482 137.449 259.67 136.144C259.942 135.845 260.237 135.532 260.559 135.201C260.61 135.147 260.662 135.095 260.715 135.041C258.633 137.161 257.625 138.598 256.806 139.914Z" fill="#C8C593"/>
<path d="M266.032 163.703C261.438 157.101 257.916 149.317 256.805 139.913C257.623 138.598 258.632 137.161 260.714 135.04C260.715 135.06 260.716 135.078 260.719 135.097C260.743 135.458 260.774 135.814 260.808 136.17C261.601 145.452 262.507 149.254 266.389 155.014C266.856 155.909 267.346 156.782 267.855 157.639C267.226 159.421 266.61 161.481 266.032 163.703Z" fill="#C8A86D"/>
<path d="M269.741 196.37C259.253 183.563 250.63 164.069 249.871 146.548L249.828 145.681L250.442 145.059C252.813 142.638 253.695 141.177 254.577 139.718C255.589 138.048 256.599 136.37 259.281 133.638L262.397 130.465L262.715 134.896C264.341 157.476 280.445 170.884 292.45 180.874C296.838 184.53 300.705 187.739 303.293 190.905C307.976 196.623 308.613 201.849 301.29 207.841C298.84 209.85 296.115 210.84 293.231 210.97C289.357 211.137 285.259 209.706 281.196 207.06C277.301 204.522 273.399 200.837 269.741 196.37ZM253.912 147.227C254.872 163.657 262.996 181.806 272.842 193.84C276.245 197.989 279.831 201.386 283.379 203.698C286.763 205.903 290.066 207.096 293.057 206.966C295.081 206.879 297.004 206.17 298.753 204.74C303.683 200.7 303.285 197.223 300.184 193.435C297.864 190.602 294.127 187.493 289.885 183.96C278.146 174.194 262.657 161.3 259.245 139.84C258.753 140.534 258.378 141.156 258.002 141.778C257.077 143.317 256.144 144.864 253.912 147.227Z" fill="#100F0D"/>
<path d="M163.969 5.01025C224.179 5.01025 272.989 53.8192 272.989 114.028C272.989 174.238 224.179 223.048 163.969 223.048C103.759 223.048 54.9492 174.238 54.9492 114.028C54.9492 53.8192 103.759 5.01025 163.969 5.01025Z" fill="#F44C13"/>
<path d="M239.634 38.359C220.263 18.996 193.513 7.012 163.965 7.012C134.41 7.012 107.659 18.996 88.2879 38.359C68.9257 57.723 56.9477 84.481 56.9477 114.028C56.9477 143.577 68.9257 170.334 88.2879 189.698C107.659 209.062 134.41 221.046 163.965 221.046C193.513 221.046 220.263 209.062 239.634 189.698C258.997 170.334 270.975 143.577 270.975 114.028C270.975 84.481 258.997 57.723 239.634 38.359ZM163.965 3C194.618 3 222.381 15.426 242.475 35.52C262.561 55.612 274.993 83.368 274.993 114.028C274.993 144.69 262.561 172.445 242.475 192.539C222.381 212.632 194.618 225.057 163.965 225.057C133.304 225.057 105.542 212.632 85.4559 192.539C65.3617 172.445 52.9297 144.69 52.9297 114.028C52.9297 83.368 65.3617 55.612 85.4559 35.52C105.542 15.426 133.304 3 163.965 3Z" fill="#100F0D"/>
<path d="M163.967 11.769C220.445 11.769 266.229 57.552 266.229 114.028C266.229 170.507 220.445 216.29 163.967 216.29C107.491 216.29 61.707 170.507 61.707 114.028C61.707 57.552 107.491 11.769 163.967 11.769Z" fill="#FF8500"/>
<path d="M163.967 17.8457C217.087 17.8457 260.149 60.9088 260.149 114.029C260.149 167.149 217.087 210.211 163.967 210.211C110.848 210.211 67.7852 167.149 67.7852 114.029C67.7852 60.9088 110.848 17.8457 163.967 17.8457Z" fill="#FEECD4"/>
<path d="M131.232 43.0571C132.431 42.4281 133.566 41.6771 134.708 40.7591C138.344 37.8381 141.973 34.9201 145.608 32.0001C152.445 26.5061 161.366 25.6241 169.149 29.6791L187.436 39.2131C187.718 39.3571 187.992 39.4941 188.275 39.6251L163.742 110.213L131.232 43.0571ZM90.6319 86.9961C91.0369 85.6961 91.3039 84.3651 91.4629 82.9061C91.9689 78.2721 92.4749 73.6391 92.9809 69.0061C93.9359 60.2821 99.6169 53.3591 107.986 50.7201L127.661 44.5251C127.957 44.4311 128.253 44.3291 128.543 44.2281L161.106 111.484L90.6319 86.9961ZM92.9959 146.765C92.3669 145.565 91.6079 144.43 90.6889 143.288C87.7699 139.652 84.8579 136.016 81.9369 132.387C76.4368 125.543 75.5618 116.631 79.6169 108.847L89.1419 90.5541C89.2939 90.2791 89.4319 89.9961 89.5619 89.7221L160.144 114.253L92.9959 146.765ZM136.927 187.356C135.633 186.951 134.296 186.684 132.836 186.525C128.21 186.019 123.578 185.512 118.944 185.014C110.22 184.061 103.288 178.38 100.657 170.009L94.4629 150.334C94.3689 150.031 94.2679 149.742 94.1659 149.452L161.423 116.884L136.927 187.356ZM196.702 184.999C195.496 185.628 194.361 186.381 193.219 187.298C189.59 190.218 185.954 193.139 182.318 196.059C175.481 201.553 166.562 202.435 158.778 198.379L140.491 188.845C140.209 188.701 139.934 188.563 139.652 188.433L164.184 117.845L196.702 184.999ZM237.294 141.061C236.889 142.363 236.621 143.692 236.464 145.153C235.958 149.785 235.452 154.418 234.946 159.052C233.999 167.775 228.31 174.7 219.94 177.339L200.265 183.533C199.969 183.627 199.673 183.728 199.385 183.83L166.822 116.573L237.294 141.061ZM234.931 81.2941C235.567 82.4941 236.32 83.6291 237.236 84.7711C240.156 88.4061 243.076 92.0411 245.99 95.6691C251.49 102.515 252.365 111.427 248.31 119.211L238.783 137.505C238.638 137.78 238.494 138.061 238.364 138.336L167.783 113.805L234.931 81.2941ZM195.091 41.5331C199.724 42.0391 204.356 42.5441 208.982 43.0431C217.706 43.9971 224.638 49.6791 227.269 58.0481L233.464 77.7231C233.565 78.0261 233.659 78.3161 233.76 78.6051L166.504 111.173L191 40.7011C192.294 41.1061 193.631 41.3741 195.091 41.5331Z" fill="#FFB03E"/>
<path d="M143.847 94.7953C143.847 104.778 139.596 112.865 134.349 112.865C129.108 112.865 124.852 104.778 124.852 94.7953C124.852 84.8143 129.108 76.7183 134.349 76.7183C139.596 76.7183 143.847 84.8143 143.847 94.7953Z" fill="#000100"/>
<path d="M141.7 87.8724C141.7 92.1724 139.923 95.6564 137.717 95.6564C135.52 95.6564 133.734 92.1714 133.734 87.8724C133.734 83.5714 135.52 80.0864 137.717 80.0864C139.923 80.0864 141.7 83.5714 141.7 87.8724Z" fill="white"/>
<path d="M132.236 92.8364C132.236 94.3984 131.592 95.6564 130.797 95.6564C130.002 95.6564 129.352 94.3984 129.352 92.8364C129.352 91.2844 130.002 90.0264 130.797 90.0264C131.592 90.0264 132.236 91.2844 132.236 92.8364Z" fill="white"/>
<path d="M136.618 99.6962C136.618 101.25 135.973 102.508 135.178 102.508C134.383 102.508 133.734 101.25 133.734 99.6962C133.734 98.1342 134.383 96.8774 135.178 96.8774C135.973 96.8774 136.618 98.1342 136.618 99.6962Z" fill="white"/>
<path d="M207.038 94.7953C207.038 104.778 202.788 112.865 197.541 112.865C192.301 112.865 188.043 104.778 188.043 94.7953C188.043 84.8143 192.301 76.7183 197.541 76.7183C202.788 76.7183 207.038 84.8143 207.038 94.7953Z" fill="#000100"/>
<path d="M204.898 87.8724C204.898 92.1724 203.113 95.6564 200.908 95.6564C198.712 95.6564 196.934 92.1714 196.934 87.8724C196.934 83.5714 198.712 80.0864 200.908 80.0864C203.113 80.0864 204.898 83.5714 204.898 87.8724Z" fill="white"/>
<path d="M195.432 92.8364C195.432 94.3984 194.788 95.6564 193.993 95.6564C193.198 95.6564 192.555 94.3984 192.555 92.8364C192.555 91.2844 193.198 90.0264 193.993 90.0264C194.788 90.0264 195.432 91.2844 195.432 92.8364Z" fill="white"/>
<path d="M199.81 99.6962C199.81 101.25 199.167 102.508 198.372 102.508C197.577 102.508 196.934 101.25 196.934 99.6962C196.934 98.1342 197.577 96.8774 198.372 96.8774C199.167 96.8774 199.81 98.1342 199.81 99.6962Z" fill="white"/>
<path d="M137.724 113.747C137.724 115.676 134.16 117.245 129.765 117.245C125.364 117.245 121.801 115.676 121.801 113.747C121.801 111.817 125.364 110.25 129.765 110.25C134.16 110.25 137.724 111.817 137.724 113.747Z" fill="#DB6482"/>
<path d="M210.098 113.747C210.098 115.676 206.534 117.245 202.133 117.245C197.732 117.245 194.168 115.676 194.168 113.747C194.168 111.817 197.732 110.25 202.133 110.25C206.534 110.25 210.098 111.817 210.098 113.747Z" fill="#DB6482"/>
<path d="M132.517 67.9152C133.29 68.0672 133.789 68.8192 133.644 69.5922C133.492 70.3582 132.741 70.8642 131.968 70.7122C131.953 70.7122 125.42 69.3832 123.764 75.9882C123.576 76.7472 122.802 77.2102 122.036 77.0222C121.278 76.8272 120.815 76.0542 121.003 75.2942C123.317 66.0512 132.488 67.9152 132.517 67.9152Z" fill="#100F0D"/>
<path d="M198.646 70.7122C197.873 70.8642 197.121 70.3582 196.976 69.5922C196.825 68.8192 197.323 68.0672 198.097 67.9152C198.126 67.9152 207.298 66.0512 209.61 75.2942C209.798 76.0542 209.335 76.8272 208.577 77.0222C207.811 77.2102 207.037 76.7472 206.85 75.9882C205.194 69.3832 198.661 70.7122 198.646 70.7122Z" fill="#100F0D"/>
<path d="M166.346 129.684C156.799 129.684 149.035 122.912 149.035 114.592C149.035 111.137 150.438 109.454 153.322 109.454C154.709 109.454 156.343 109.83 158.237 110.262C160.659 110.82 163.411 111.455 166.346 111.455C169.274 111.455 172.027 110.82 174.456 110.262C176.343 109.83 177.976 109.454 179.364 109.454C182.247 109.454 183.65 111.137 183.65 114.592C183.65 122.912 175.888 129.684 166.346 129.684Z" fill="white"/>
<path d="M179.368 108.377C177.865 108.377 176.173 108.767 174.221 109.216C171.843 109.765 169.161 110.386 166.35 110.386C163.538 110.386 160.85 109.765 158.479 109.216C156.527 108.767 154.836 108.377 153.325 108.377C151.323 108.377 147.969 109.187 147.969 114.592C147.969 123.506 156.216 130.754 166.35 130.754C176.483 130.754 184.73 123.506 184.73 114.592C184.73 109.187 181.369 108.377 179.368 108.377ZM179.368 110.524C181.391 110.524 182.583 111.455 182.583 114.592C182.583 122.334 175.313 128.609 166.35 128.609C157.381 128.609 150.115 122.334 150.115 114.592C150.115 111.455 151.308 110.524 153.325 110.524C156.289 110.524 161.016 112.525 166.35 112.525C171.676 112.525 176.412 110.524 179.368 110.524Z" fill="#100F0D"/>
<path d="M149.765 113.292C149.708 113.566 151.146 114.845 151.348 115.048C152.071 115.756 152.866 116.386 153.741 116.899C154.384 117.268 155.056 117.585 155.751 117.867C156.177 118.041 156.698 118.229 157.08 118.431C154.492 118.655 151.76 118.127 149.462 116.899C149.035 116.674 149.765 113.298 149.765 113.292Z" fill="#100F0D"/>
<path d="M182.783 113.292C182.841 113.566 181.402 114.845 181.194 115.048C180.478 115.756 179.676 116.386 178.808 116.899C178.165 117.268 177.493 117.585 176.799 117.867C176.365 118.041 175.852 118.229 175.469 118.431C178.057 118.655 180.788 118.127 183.086 116.899C183.513 116.674 182.783 113.298 182.783 113.292Z" fill="#100F0D"/>
<path d="M160.219 119.37C160.219 119.37 160.32 119.341 160.501 119.312C160.681 119.269 160.934 119.232 161.238 119.197C161.535 119.168 161.889 119.131 162.256 119.125C162.632 119.11 163.024 119.095 163.421 119.11C163.615 119.125 163.81 119.11 164.006 119.125C164.201 119.131 164.388 119.146 164.576 119.161C164.937 119.175 165.285 119.204 165.589 119.24C165.733 119.254 165.87 119.269 165.993 119.277C166.116 119.29 166.225 119.305 166.311 119.32C166.492 119.348 166.6 119.37 166.6 119.37C166.6 119.37 166.506 119.421 166.34 119.5C166.261 119.537 166.16 119.587 166.036 119.631C165.921 119.674 165.784 119.732 165.632 119.775C165.336 119.848 164.982 119.919 164.598 119.97C164.215 120.006 163.81 120.035 163.405 120.028C163.001 120.013 162.597 119.992 162.214 119.934C161.846 119.876 161.492 119.811 161.194 119.724C160.898 119.644 160.653 119.558 160.486 119.486C160.313 119.421 160.219 119.37 160.219 119.37Z" fill="#100F0D"/>
</svg>
