<?xml version="1.0" encoding="UTF-8" standalone="no"?>
<svg
        width="307"
        height="274"
        viewBox="0 0 307 274"
        fill="none"
        version="1.1"
        id="svg64"
        sodipodi:docname="Finally_Croped_Orange.svg"
        inkscape:version="1.3.2 (091e20e, 2023-11-25)"
        xmlns:inkscape="http://www.inkscape.org/namespaces/inkscape"
        xmlns:sodipodi="http://sodipodi.sourceforge.net/DTD/sodipodi-0.dtd"
        xmlns="http://www.w3.org/2000/svg"
        xmlns:svg="http://www.w3.org/2000/svg">
    <defs
            id="defs64" />
    <sodipodi:namedview
            id="namedview64"
            pagecolor="#ffffff"
            bordercolor="#000000"
            borderopacity="0.25"
            inkscape:showpageshadow="2"
            inkscape:pageopacity="0.0"
            inkscape:pagecheckerboard="0"
            inkscape:deskcolor="#d1d1d1"
            inkscape:zoom="0.86131387"
            inkscape:cx="153.25424"
            inkscape:cy="137"
            inkscape:window-width="1312"
            inkscape:window-height="449"
            inkscape:window-x="1625"
            inkscape:window-y="151"
            inkscape:window-maximized="0"
            inkscape:current-layer="svg64" />
    <path
            d="M164.54 273.94C117.761 273.94 79.8359 268.88 79.8359 262.642C79.8359 258.754 94.5689 255.327 116.993 253.297C115.485 254.247 114.529 255.483 114.53 256.974C114.53 257.1 114.537 257.228 114.552 257.358C114.552 257.363 114.552 257.368 114.552 257.371C114.552 257.376 114.552 257.38 114.551 257.384C114.484 259.618 116.179 261.087 118.902 262.025C122.471 263.272 127.823 263.718 133.292 263.718C138.657 263.718 144.134 263.289 148.154 262.765C151.179 262.555 151.931 257.983 152.119 251.473C156.174 251.394 160.32 251.352 164.54 251.352C168.361 251.352 172.125 251.386 175.811 251.452C175.998 257.973 176.748 262.555 179.777 262.765C183.797 263.289 189.274 263.718 194.64 263.718C200.452 263.718 206.134 263.214 209.686 261.782C209.684 261.782 209.681 261.783 209.681 261.783C212.019 260.839 213.441 259.435 213.379 257.384C213.379 257.381 213.379 257.376 213.379 257.371C213.379 257.368 213.379 257.363 213.379 257.358C213.394 257.228 213.4 257.1 213.402 256.974C213.402 255.42 212.363 254.142 210.743 253.177C233.926 255.191 249.252 258.677 249.252 262.642C249.252 268.88 211.327 273.94 164.54 273.94Z"
            fill="#ABA353"
            id="path1" />
    <path
            d="M193.085 210.883C197.956 223.864 199.539 235.668 196.128 251.815C202.378 249.719 213.966 251.989 213.38 257.359C213.67 265.425 191.104 263.546 179.778 262.765C171.501 262.187 180.241 228.975 170.988 212.712C178.354 212.105 185.719 211.49 193.085 210.883Z"
            fill="#F9A62A"
            id="path2" />
    <path
            d="M175.748 243.448C175.617 237.763 175.528 231.626 174.969 226.226C175.699 231.894 175.744 237.94 175.748 243.448Z"
            fill="#ABA353"
            id="path3" />
    <path
            d="M194.64 263.718C189.275 263.718 183.797 263.289 179.777 262.765C184.119 263.065 190.111 263.526 195.836 263.526C201.223 263.526 206.372 263.117 209.681 261.783L209.686 261.782C206.134 263.215 200.452 263.718 194.64 263.718Z"
            fill="#736E3D"
            id="path4" />
    <path
            d="M195.834 263.525C190.109 263.525 184.116 263.065 179.775 262.765C176.347 262.318 175.98 253.606 175.745 243.448C175.741 237.94 175.697 231.894 174.967 226.226C174.513 221.854 173.752 217.965 172.41 215.195L189.149 213.803C190.175 216.539 191.068 219.162 191.806 221.747C187.697 223.484 182.902 224.174 178.951 225.302C179.833 240.235 178.402 261.261 184.01 261.651C188.352 261.954 194.347 262.415 200.071 262.415C203.305 262.415 206.453 262.268 209.169 261.863C209.151 261.906 209.132 261.949 209.112 261.992C209.302 261.925 209.485 261.856 209.663 261.786C209.669 261.784 209.672 261.784 209.679 261.783C206.369 263.116 201.22 263.525 195.834 263.525Z"
            fill="#AD741E"
            id="path5" />
    <path
            d="M195.832 219.456C195.091 216.616 194.168 213.779 193.082 210.883C194.73 215.278 195.047 215.076 195.879 219.419C195.863 219.432 195.847 219.444 195.832 219.456Z"
            fill="#ABA353"
            id="path6" />
    <path
            d="M193.082 210.883C192.995 210.891 192.908 210.897 192.82 210.905L193.082 210.883Z"
            fill="#AD741E"
            id="path7" />
    <path
            d="M170.988 212.712L171.191 212.695C171.123 212.702 171.056 212.706 170.988 212.712Z"
            fill="#ABA353"
            id="path8" />
    <path
            d="M209.171 261.863C209.371 261.384 209.467 260.863 209.447 260.286C211.124 252.871 193.213 259.05 192.483 253.347C195.17 240.602 194.575 231.434 191.809 221.747C193.258 221.136 194.622 220.394 195.834 219.456C197.206 224.722 197.952 229.997 197.948 235.672C197.945 240.656 197.365 245.95 196.126 251.815C197.682 251.293 199.57 251.042 201.52 251.042C207.205 251.042 213.405 253.182 213.401 256.974C213.4 257.1 213.394 257.228 213.379 257.358C213.379 257.363 213.379 257.368 213.379 257.372C213.379 257.376 213.379 257.38 213.379 257.383C213.44 259.439 212.012 260.846 209.665 261.786C209.503 261.812 209.337 261.838 209.171 261.863Z"
            fill="#FBC260"
            id="path9" />
    <path
            d="M172.215 215.213C171.961 214.625 171.692 214.051 171.406 213.494C171.411 213.501 171.416 213.508 171.421 213.515C171.705 214.064 171.97 214.63 172.218 215.212L172.215 215.213Z"
            fill="#FCF5A1"
            id="path10" />
    <path
            d="M172.223 215.212C171.975 214.63 171.71 214.063 171.426 213.514C171.787 214.015 172.116 214.577 172.416 215.196L172.223 215.212Z"
            fill="#FBC260"
            id="path11" />
    <path
            d="M171.408 213.491C171.271 213.228 171.133 212.967 170.988 212.713C171.016 212.759 171.042 212.808 171.069 212.857C171.185 213.063 171.296 213.274 171.408 213.486V213.491Z"
            fill="#FCF5A1"
            id="path12" />
    <path
            d="M171.069 212.856C171.042 212.808 171.016 212.759 170.988 212.712C171.016 212.761 171.042 212.808 171.069 212.856ZM171.191 212.695C178.401 212.1 185.612 211.499 192.823 210.905L172.947 212.553L172.666 212.575L171.191 212.695Z"
            fill="#FBC260"
            id="path13" />
    <path
            d="M209.113 261.992C209.133 261.95 209.152 261.906 209.17 261.863C209.336 261.839 209.501 261.813 209.664 261.786C209.486 261.857 209.303 261.926 209.113 261.992Z"
            fill="#C69E59"
            id="path14" />
    <path
            d="M171.42 213.514C171.416 213.508 171.411 213.501 171.407 213.494L171.405 213.491V213.485C171.294 213.274 171.182 213.063 171.066 212.857C171.188 213.072 171.306 213.291 171.42 213.514Z"
            fill="#C5BF85"
            id="path15" />
    <path
            d="M191.81 221.747C191.071 219.162 190.178 216.539 189.152 213.803L172.414 215.197C172.114 214.577 171.785 214.015 171.423 213.515C171.309 213.292 171.191 213.072 171.069 212.857C171.042 212.807 171.016 212.76 170.988 212.712C171.056 212.706 171.123 212.702 171.191 212.695L172.666 212.575L172.947 212.554L192.823 210.905C192.91 210.898 192.998 210.891 193.085 210.884C194.171 213.78 195.094 216.616 195.835 219.456C194.623 220.394 193.259 221.136 191.81 221.747Z"
            fill="#C69E59"
            id="path16" />
    <path
            d="M134.844 210.883C129.973 223.864 128.389 235.668 131.801 251.815C125.551 249.719 113.963 251.989 114.549 257.359C114.259 265.425 136.825 263.546 148.151 262.765C156.428 262.187 147.688 228.975 156.941 212.712C149.575 212.105 142.211 211.49 134.844 210.883Z"
            fill="#F9A62A"
            id="path17" />
    <path
            d="M133.293 263.718C127.824 263.718 122.471 263.272 118.902 262.026C122.215 263.167 127.051 263.526 132.096 263.526C137.82 263.526 143.813 263.065 148.155 262.765C144.135 263.289 138.658 263.718 133.293 263.718Z"
            fill="#736E3D"
            id="path18" />
    <path
            d="M152.184 243.448C152.188 237.94 152.232 231.894 152.963 226.226C152.403 231.626 152.314 237.763 152.184 243.448ZM132.098 219.456C132.082 219.444 132.066 219.432 132.051 219.419C132.882 215.076 133.2 215.278 134.848 210.883C133.761 213.779 132.839 216.616 132.098 219.456ZM156.524 213.494C156.659 213.23 156.798 212.97 156.942 212.715C156.806 212.967 156.661 213.227 156.533 213.485L156.525 213.492C156.525 213.492 156.525 213.492 156.524 213.494ZM156.945 212.712C156.781 212.699 156.618 212.686 156.455 212.671L156.945 212.712Z"
            fill="#ABA353"
            id="path19" />
    <path
            d="M132.1 263.525C127.056 263.525 122.22 263.167 118.907 262.025C118.684 261.948 118.467 261.867 118.258 261.782C118.261 261.783 118.265 261.783 118.265 261.783C118.446 261.856 118.631 261.925 118.822 261.992C118.801 261.948 118.782 261.904 118.765 261.861C121.481 262.268 124.63 262.415 127.867 262.415C133.591 262.415 139.585 261.954 143.925 261.651C149.533 261.261 148.109 240.235 148.984 225.302C145.031 224.174 140.238 223.483 136.128 221.746C136.867 219.161 137.759 216.539 138.785 213.803L155.525 215.195C154.182 217.965 153.42 221.855 152.968 226.226C152.238 231.894 152.193 237.94 152.188 243.448C151.955 253.606 151.587 262.318 148.16 262.765C143.818 263.065 137.825 263.525 132.1 263.525ZM134.854 210.883L135.114 210.904C135.027 210.897 134.94 210.891 134.854 210.883Z"
            fill="#AD741E"
            id="path20" />
    <path
            d="M155.72 215.213L155.711 215.212C155.957 214.63 156.223 214.064 156.507 213.515C156.512 213.508 156.517 213.5 156.521 213.494C156.236 214.051 155.969 214.625 155.72 215.213ZM156.94 212.715L156.941 212.714C156.941 212.714 156.941 212.714 156.942 212.712C156.941 212.714 156.94 212.715 156.94 212.715Z"
            fill="#FCF5A1"
            id="path21" />
    <path
            d="M118.756 261.861C118.588 261.836 118.422 261.81 118.257 261.783C115.913 260.843 114.487 259.439 114.548 257.384C114.548 257.38 114.548 257.376 114.548 257.371C114.548 257.368 114.548 257.363 114.548 257.358C114.534 257.228 114.527 257.1 114.527 256.974C114.524 253.181 120.723 251.042 126.408 251.042C128.356 251.042 130.245 251.292 131.802 251.815C130.562 245.949 129.983 240.656 129.979 235.671C129.976 229.997 130.721 224.722 132.094 219.456C133.307 220.392 134.671 221.134 136.12 221.746C133.353 231.432 132.757 240.602 135.445 253.348C134.714 259.05 116.803 252.871 118.481 260.286C118.461 260.861 118.557 261.383 118.756 261.861ZM155.71 215.212L155.516 215.195C155.816 214.576 156.145 214.014 156.506 213.514C156.221 214.063 155.956 214.63 155.71 215.212ZM156.452 212.671L155.271 212.574L154.982 212.552L135.105 210.904C142.221 211.491 149.335 212.084 156.452 212.671Z"
            fill="#FBC260"
            id="path22" />
    <path
            d="M156.508 213.514C156.647 213.243 156.793 212.977 156.943 212.714L156.941 212.715C156.797 212.97 156.658 213.23 156.523 213.494C156.518 213.5 156.513 213.508 156.508 213.514Z"
            fill="#C5BF85"
            id="path23" />
    <path
            d="M118.814 261.992C118.624 261.926 118.439 261.856 118.258 261.783C118.424 261.811 118.591 261.837 118.758 261.861C118.776 261.905 118.794 261.949 118.814 261.992ZM136.122 221.746C134.673 221.135 133.311 220.393 132.098 219.456C132.839 216.616 133.761 213.78 134.848 210.884C134.935 210.891 135.019 210.898 135.107 210.905L154.984 212.553L155.273 212.575L156.454 212.671C156.617 212.686 156.779 212.699 156.943 212.712C156.942 212.714 156.941 212.715 156.941 212.715C156.792 212.978 156.647 213.243 156.508 213.515C156.147 214.014 155.819 214.576 155.519 215.197L138.779 213.803C137.752 216.539 136.86 219.161 136.122 221.746Z"
            fill="#C69E59"
            id="path24" />
    <path
            d="M195.704 230.334C195.183 224.406 193.804 218.813 191.729 213.009L174.071 214.475C177.736 223.119 177.742 234.735 177.742 244.485C177.749 253.449 177.749 260.611 179.904 260.763L181.125 260.85C186.177 261.204 193.014 261.681 198.986 261.471C205.779 261.226 211.483 260.25 211.382 257.43L211.388 257.149C211.41 256.924 211.388 256.715 211.323 256.527C211.077 255.783 210.225 255.105 209.039 254.533C207.6 253.839 205.75 253.376 203.813 253.167C201.29 252.899 198.703 253.058 196.759 253.716L193.441 254.83L194.164 251.41C195.827 243.545 196.267 236.744 195.704 230.334ZM194.952 210.182C197.453 216.854 199.115 223.214 199.709 229.994C200.227 235.935 199.931 242.18 198.675 249.213C200.452 248.989 202.375 248.982 204.24 249.184C206.596 249.437 208.901 250.03 210.766 250.926C212.892 251.946 214.496 253.399 215.126 255.262C215.356 255.956 215.45 256.693 215.378 257.466C215.444 263.278 207.998 265.157 199.13 265.468C192.885 265.692 185.967 265.209 180.858 264.847L179.645 264.76C173.754 264.355 173.745 255.529 173.745 244.485C173.738 234.143 173.738 221.602 169.242 213.702L167.688 210.977L194.417 208.758L194.952 210.182Z"
            fill="#100F0D"
            id="Right_Leg" />
    <path
            d="M128.217 229.994C128.817 223.214 130.472 216.854 132.974 210.182L133.508 208.758L160.237 210.977L158.684 213.702C154.188 221.602 154.188 234.143 154.181 244.485C154.181 255.529 154.173 264.355 148.289 264.76L147.067 264.847C141.959 265.209 135.041 265.692 128.803 265.468C119.928 265.157 112.482 263.278 112.547 257.466C112.475 256.693 112.569 255.956 112.808 255.262C113.429 253.399 115.034 251.946 117.159 250.926C119.024 250.03 121.33 249.437 123.686 249.184C125.55 248.982 127.472 248.989 129.251 249.213C127.993 242.18 127.697 235.935 128.217 229.994ZM136.197 213.009C134.123 218.812 132.742 224.406 132.221 230.334C131.658 236.744 132.099 243.545 133.762 251.41L134.485 254.83L131.167 253.716C129.222 253.058 126.635 252.899 124.113 253.167C122.175 253.376 120.325 253.839 118.887 254.533C117.701 255.105 116.855 255.783 116.602 256.527C116.537 256.715 116.516 256.924 116.537 257.149L116.544 257.43C116.45 260.25 122.147 261.226 128.94 261.471C134.91 261.681 141.749 261.204 146.808 260.85L148.022 260.763C150.176 260.611 150.176 253.449 150.183 244.485C150.183 234.735 150.19 223.119 153.855 214.475L136.197 213.009Z"
            fill="#100F0D"
            id="Left_Leg" />
    <path
            d="M78.4413 152.655C58.832 125.305 10.0362 106.938 3.09688 127.154C-5.72122 152.843 49.4 130.696 77.0533 167.024C78.6143 159.977 76.88 159.702 78.4413 152.655Z"
            fill="#F9A62A"
            id="path27" />
    <path
            d="M52.5813 136.077C45.6853 131.873 38.4422 128.577 31.6393 126.515L30.4531 122.414C31.5512 122.716 32.6661 123.054 33.7901 123.425C39.8101 125.409 46.1283 128.341 52.1803 131.99C52.3213 133.62 52.4543 134.955 52.5813 136.077Z"
            fill="#FBC260"
            id="path28" />
    <path
            d="M75.6639 162.175C64.3129 149.644 49.5989 145.035 36.2969 142.611L35.5039 139.874C41.7019 140.888 48.2319 142.338 54.4419 145.014C53.6479 141.795 53.1649 141.197 52.5819 136.078C61.4419 141.48 69.7279 148.379 75.7689 156.081C75.6149 157.592 75.6429 158.73 75.6709 159.869C75.6849 160.599 75.7069 161.328 75.6639 162.175Z"
            fill="#AD741E"
            id="path29" />
    <path
            d="M75.7667 156.081C69.7267 148.379 61.4407 141.48 52.5807 136.078C52.4527 134.956 52.3197 133.619 52.1797 131.99C61.4957 137.605 70.1907 144.918 76.2327 153.081C75.9977 154.246 75.8527 155.225 75.7667 156.081Z"
            fill="#AD8745"
            id="path30" />
    <path
            d="M35.0851 119.631C51.3771 124.994 69.743 137.028 80.1449 151.527L80.6579 152.243L80.4689 153.095C79.7469 156.363 79.7829 158.09 79.8269 159.811C79.8699 161.747 79.9129 163.684 79.0819 167.464L78.1213 171.795L75.381 168.194C61.417 149.85 39.885 146.937 23.839 144.768C17.955 143.981 12.78 143.28 8.79052 141.965C1.51162 139.565 -1.95058 135.467 1.12132 126.51C2.15502 123.512 3.98362 121.228 6.43352 119.601C9.73682 117.411 14.117 116.464 19.133 116.58C23.947 116.681 29.3971 117.758 35.0851 119.631ZM76.234 153.081C66.267 139.615 49.079 128.462 33.791 123.425C28.508 121.683 23.485 120.685 19.09 120.592C14.905 120.498 11.349 121.228 8.81172 122.912C7.09192 124.047 5.80542 125.665 5.06782 127.797C2.99342 133.84 5.27752 136.58 10.0835 138.17C13.72 139.362 18.7 140.042 24.367 140.802C40.058 142.926 60.759 145.723 75.662 162.174C75.707 161.329 75.685 160.599 75.67 159.869C75.627 158.083 75.583 156.298 76.234 153.081Z"
            fill="#100F0D"
            id="Left_Hand" />
    <path
            d="M251.875 143.462C253.299 176.515 283.497 216.825 300.02 203.294C321.031 186.091 263.931 176.76 260.715 132.041C255.655 137.194 256.934 138.308 251.875 143.462Z"
            fill="#F9A62A"
            id="path32" />
    <path
            d="M300.02 203.294C301.625 201.978 302.775 200.706 303.526 199.471C302.314 200.394 301.025 201.031 299.675 201.406C305.338 190.457 280.423 181.379 266.034 160.703C266.611 158.481 267.228 156.421 267.857 154.639C280.375 175.705 304.648 185.461 304.653 195.711C304.654 198.157 303.273 200.631 300.02 203.294ZM266.39 152.014C262.508 146.255 261.602 142.452 260.809 133.17C261.474 140.306 263.522 146.528 266.39 152.014Z"
            fill="#FCD48D"
            id="path33" />
    <path
            d="M256.805 136.905C256.907 136.742 257.012 136.579 257.121 136.411C257.012 136.58 256.907 136.745 256.806 136.909"
            fill="#FEF8BD"
            id="path34" />
    <path
            d="M257.544 168.326C257.533 168.302 257.523 168.276 257.512 168.252C257.483 168.177 257.453 168.1 257.423 168.022C257.463 168.123 257.504 168.226 257.544 168.326ZM256.718 166.166C256.679 166.063 256.64 165.958 256.601 165.853C256.588 165.814 256.575 165.774 256.561 165.736C256.612 165.878 256.666 166.025 256.718 166.166ZM255.789 163.514C255.695 163.241 255.606 162.966 255.517 162.688C255.5 162.635 255.484 162.582 255.466 162.528C255.573 162.859 255.679 163.184 255.789 163.514ZM254.478 159.22L254.434 159.066C254.365 158.819 254.299 158.569 254.236 158.319C254.315 158.619 254.396 158.92 254.478 159.22ZM254.03 157.529L254.022 157.498C254.019 157.486 254.016 157.474 254.012 157.463C254.019 157.486 254.024 157.506 254.03 157.529ZM253.668 156.049L253.639 155.936C253.548 155.531 253.456 155.124 253.369 154.72C253.464 155.162 253.564 155.605 253.668 156.049ZM253.333 154.553L253.292 154.368C253.198 153.912 253.104 153.45 253.017 152.995L252.994 152.874C253.1 153.434 253.214 153.992 253.333 154.553ZM252.793 151.77C252.772 151.643 252.749 151.517 252.728 151.39L252.699 151.238C252.62 150.761 252.547 150.277 252.475 149.8L252.461 149.675C252.561 150.372 252.671 151.07 252.793 151.77ZM252.454 149.634C252.384 149.155 252.321 148.683 252.266 148.202L252.251 148.108C252.193 147.609 252.143 147.111 252.092 146.62L252.085 146.554C252.041 146.048 251.998 145.542 251.962 145.036V145.004C252.068 146.536 252.235 148.082 252.454 149.634ZM251.875 143.461C252.583 142.738 253.169 142.088 253.668 141.503C255.247 139.628 255.912 138.34 256.805 136.909C256.805 136.909 256.805 136.912 256.805 136.914C255.634 138.794 254.852 140.428 251.875 143.461Z"
            fill="#C6BD5D"
            id="path35" />
    <path
            d="M292.619 205.979C282.093 205.977 269.253 192.655 260.823 175.683C260.743 175.524 260.664 175.357 260.584 175.199C260.425 174.866 260.266 174.533 260.107 174.201C260.035 174.05 259.955 173.891 259.883 173.731C259.724 173.392 259.565 173.044 259.406 172.698C259.333 172.531 259.254 172.372 259.182 172.206C259.037 171.888 258.9 171.57 258.763 171.245C258.676 171.057 258.597 170.862 258.509 170.666C258.38 170.355 258.249 170.045 258.119 169.734C258.026 169.518 257.938 169.301 257.852 169.091C257.747 168.834 257.647 168.578 257.544 168.326C257.504 168.226 257.463 168.123 257.423 168.022C257.351 167.836 257.281 167.649 257.209 167.464C257.114 167.226 257.028 166.98 256.934 166.741C256.864 166.55 256.79 166.359 256.718 166.165C256.666 166.025 256.612 165.878 256.561 165.735C256.503 165.564 256.444 165.396 256.385 165.231C256.269 164.913 256.16 164.595 256.052 164.284C255.979 164.082 255.915 163.887 255.85 163.691C255.829 163.632 255.808 163.573 255.789 163.514C255.679 163.184 255.573 162.858 255.466 162.527C255.428 162.404 255.392 162.278 255.351 162.151C255.235 161.798 255.127 161.437 255.018 161.075C254.968 160.924 254.924 160.764 254.881 160.613C254.766 160.223 254.65 159.832 254.543 159.435L254.478 159.219C254.396 158.92 254.315 158.619 254.236 158.319C254.19 158.145 254.145 157.972 254.101 157.801L254.03 157.529C254.024 157.506 254.019 157.486 254.012 157.463C253.907 157.033 253.802 156.611 253.704 156.182L253.668 156.048C253.564 155.605 253.464 155.162 253.369 154.72C253.359 154.676 253.351 154.634 253.343 154.592L253.333 154.553C253.214 153.992 253.1 153.434 252.994 152.874L252.981 152.799C252.917 152.455 252.853 152.112 252.793 151.769C252.671 151.07 252.561 150.372 252.461 149.674V149.669C252.458 149.659 252.457 149.646 252.454 149.634C252.235 148.082 252.068 146.536 251.962 145.004V145C251.956 144.926 251.951 144.853 251.947 144.779C251.917 144.339 251.893 143.898 251.875 143.461C254.852 140.427 255.634 138.794 256.805 136.913C257.917 146.317 261.438 154.1 266.033 160.702C265.212 163.864 264.472 167.354 263.902 170.833C272.376 187.968 285.82 201.816 296.588 201.815C297.644 201.815 298.677 201.681 299.674 201.405C299.01 202.688 297.926 203.997 296.355 205.353C297.562 204.938 298.723 204.316 299.822 203.453C297.624 205.183 295.19 205.979 292.619 205.979Z"
            fill="#C98620"
            id="path36" />
    <path
            d="M267.858 154.639C267.348 153.783 266.859 152.909 266.391 152.014C266.875 152.732 267.405 153.481 267.987 154.274C267.944 154.394 267.901 154.516 267.858 154.639Z"
            fill="#C6BD5D"
            id="path37" />
    <path
            d="M257.117 136.411C257.726 135.476 258.479 134.449 259.666 133.144C258.479 134.449 257.729 135.477 257.117 136.411ZM260.805 133.17C260.772 132.814 260.741 132.457 260.716 132.097C260.73 132.28 260.75 132.464 260.769 132.647L260.762 132.662C260.776 132.833 260.791 133.001 260.805 133.17Z"
            fill="#C6BD5D"
            id="path38" />
    <path
            d="M296.355 205.354C297.927 203.997 299.011 202.689 299.674 201.406C301.025 201.031 302.315 200.394 303.527 199.471C302.775 200.706 301.625 201.978 300.02 203.294C299.954 203.348 299.89 203.401 299.822 203.453C298.724 204.316 297.563 204.938 296.355 205.354Z"
            fill="#C8A86D"
            id="path39" />
    <path
            d="M256.806 136.914C256.806 136.911 256.805 136.906 256.805 136.906C256.907 136.745 257.012 136.58 257.121 136.412C257.732 135.477 258.482 134.449 259.67 133.144C259.942 132.845 260.237 132.532 260.559 132.201C260.61 132.147 260.662 132.095 260.715 132.041C258.633 134.161 257.625 135.598 256.806 136.914Z"
            fill="#C8C593"
            id="path40" />
    <path
            d="M266.032 160.703C261.438 154.101 257.916 146.317 256.805 136.913C257.623 135.598 258.632 134.161 260.714 132.04C260.715 132.06 260.716 132.078 260.719 132.097C260.743 132.458 260.774 132.814 260.808 133.17C261.601 142.452 262.507 146.254 266.389 152.014C266.856 152.909 267.346 153.782 267.855 154.639C267.226 156.421 266.61 158.481 266.032 160.703Z"
            fill="#C8A86D"
            id="path41" />
    <path
            d="M269.741 193.37C259.253 180.563 250.63 161.069 249.871 143.548L249.828 142.681L250.442 142.059C252.813 139.638 253.695 138.177 254.577 136.718C255.589 135.048 256.599 133.37 259.281 130.638L262.397 127.465L262.715 131.896C264.341 154.476 280.445 167.884 292.45 177.874C296.838 181.53 300.705 184.739 303.293 187.905C307.976 193.623 308.613 198.849 301.29 204.841C298.84 206.85 296.115 207.84 293.231 207.97C289.357 208.137 285.259 206.706 281.196 204.06C277.301 201.522 273.399 197.837 269.741 193.37ZM253.912 144.227C254.872 160.657 262.996 178.806 272.842 190.84C276.245 194.989 279.831 198.386 283.379 200.698C286.763 202.903 290.066 204.096 293.057 203.966C295.081 203.879 297.004 203.17 298.753 201.74C303.683 197.7 303.285 194.223 300.184 190.435C297.864 187.602 294.127 184.493 289.885 180.96C278.146 171.194 262.657 158.3 259.245 136.84C258.753 137.534 258.378 138.156 258.002 138.778C257.077 140.317 256.144 141.864 253.912 144.227Z"
            fill="#100F0D"
            id="Right_Hand" />
    <path
            d="M163.969 2.01025C224.179 2.01025 272.989 50.8192 272.989 111.028C272.989 171.238 224.179 220.048 163.969 220.048C103.759 220.048 54.9492 171.238 54.9492 111.028C54.9492 50.8192 103.759 2.01025 163.969 2.01025Z"
            fill="#F44C13"
            id="path43" />
    <path
            d="M239.634 35.359C220.263 15.996 193.513 4.012 163.965 4.012C134.41 4.012 107.659 15.996 88.2879 35.359C68.9257 54.723 56.9477 81.481 56.9477 111.028C56.9477 140.577 68.9257 167.334 88.2879 186.698C107.659 206.062 134.41 218.046 163.965 218.046C193.513 218.046 220.263 206.062 239.634 186.698C258.997 167.334 270.975 140.577 270.975 111.028C270.975 81.481 258.997 54.723 239.634 35.359ZM163.965 0C194.618 0 222.381 12.426 242.475 32.52C262.561 52.612 274.993 80.368 274.993 111.028C274.993 141.69 262.561 169.445 242.475 189.539C222.381 209.632 194.618 222.057 163.965 222.057C133.304 222.057 105.542 209.632 85.4559 189.539C65.3617 169.445 52.9297 141.69 52.9297 111.028C52.9297 80.368 65.3617 52.612 85.4559 32.52C105.542 12.426 133.304 0 163.965 0Z"
            fill="#100F0D"
            id="path44" />
    <path
            d="M163.967 8.76904C220.445 8.76904 266.229 54.552 266.229 111.028C266.229 167.507 220.445 213.29 163.967 213.29C107.491 213.29 61.707 167.507 61.707 111.028C61.707 54.552 107.491 8.76904 163.967 8.76904Z"
            fill="#FF8500"
            id="path45" />
    <path
            d="M163.967 14.8457C217.087 14.8457 260.149 57.9088 260.149 111.029C260.149 164.149 217.087 207.211 163.967 207.211C110.848 207.211 67.7852 164.149 67.7852 111.029C67.7852 57.9088 110.848 14.8457 163.967 14.8457Z"
            fill="#FEECD4"
            id="path46" />
    <path
            d="M131.232 40.0571C132.431 39.4281 133.566 38.6771 134.708 37.7591C138.344 34.8381 141.973 31.9201 145.608 29.0001C152.445 23.5061 161.366 22.6241 169.149 26.6791L187.436 36.2131C187.718 36.3571 187.992 36.4941 188.275 36.6251L163.742 107.213L131.232 40.0571ZM90.6319 83.9961C91.0369 82.6961 91.3039 81.3651 91.4629 79.9061C91.9689 75.2721 92.4749 70.6391 92.9809 66.0061C93.9359 57.2821 99.6169 50.3591 107.986 47.7201L127.661 41.5251C127.957 41.4311 128.253 41.3291 128.543 41.2281L161.106 108.484L90.6319 83.9961ZM92.9959 143.765C92.3669 142.565 91.6079 141.43 90.6889 140.288C87.7699 136.652 84.8579 133.016 81.9369 129.387C76.4368 122.543 75.5618 113.631 79.6169 105.847L89.1419 87.5541C89.2939 87.2791 89.4319 86.9961 89.5619 86.7221L160.144 111.253L92.9959 143.765ZM136.927 184.356C135.633 183.951 134.296 183.684 132.836 183.525C128.21 183.019 123.578 182.512 118.944 182.014C110.22 181.061 103.288 175.38 100.657 167.009L94.4629 147.334C94.3689 147.031 94.2679 146.742 94.1659 146.452L161.423 113.884L136.927 184.356ZM196.702 181.999C195.496 182.628 194.361 183.381 193.219 184.298C189.59 187.218 185.954 190.139 182.318 193.059C175.481 198.553 166.562 199.435 158.778 195.379L140.491 185.845C140.209 185.701 139.934 185.563 139.652 185.433L164.184 114.845L196.702 181.999ZM237.294 138.061C236.889 139.363 236.621 140.692 236.464 142.153C235.958 146.785 235.452 151.418 234.946 156.052C233.999 164.775 228.31 171.7 219.94 174.339L200.265 180.533C199.969 180.627 199.673 180.728 199.385 180.83L166.822 113.573L237.294 138.061ZM234.931 78.2941C235.567 79.4941 236.32 80.6291 237.236 81.7711C240.156 85.4061 243.076 89.0411 245.99 92.6691C251.49 99.5152 252.365 108.427 248.31 116.211L238.783 134.505C238.638 134.78 238.494 135.061 238.364 135.336L167.783 110.805L234.931 78.2941ZM195.091 38.5331C199.724 39.0391 204.356 39.5441 208.982 40.0431C217.706 40.9971 224.638 46.6791 227.269 55.0481L233.464 74.7231C233.565 75.0261 233.659 75.3161 233.76 75.6051L166.504 108.173L191 37.7011C192.294 38.1061 193.631 38.3741 195.091 38.5331Z"
            fill="#FFB03E"
            id="Inner_Orange_Circle" />
    <path
            d="M143.847 91.7953C143.847 101.778 139.596 109.865 134.349 109.865C129.108 109.865 124.852 101.778 124.852 91.7953C124.852 81.8143 129.108 73.7183 134.349 73.7183C139.596 73.7183 143.847 81.8143 143.847 91.7953Z"
            fill="#000100"
            id="path48" />
    <path
            d="M141.7 84.8724C141.7 89.1724 139.923 92.6564 137.717 92.6564C135.52 92.6564 133.734 89.1714 133.734 84.8724C133.734 80.5714 135.52 77.0864 137.717 77.0864C139.923 77.0864 141.7 80.5714 141.7 84.8724Z"
            fill="white"
            id="path49" />
    <path
            d="M132.236 89.8364C132.236 91.3984 131.592 92.6564 130.797 92.6564C130.002 92.6564 129.352 91.3984 129.352 89.8364C129.352 88.2844 130.002 87.0264 130.797 87.0264C131.592 87.0264 132.236 88.2844 132.236 89.8364Z"
            fill="white"
            id="path50" />
    <path
            d="M136.618 96.6962C136.618 98.2502 135.973 99.5082 135.178 99.5082C134.383 99.5082 133.734 98.2502 133.734 96.6962C133.734 95.1342 134.383 93.8774 135.178 93.8774C135.973 93.8774 136.618 95.1342 136.618 96.6962Z"
            fill="white"
            id="path51" />
    <path
            d="M207.038 91.7953C207.038 101.778 202.788 109.865 197.541 109.865C192.301 109.865 188.043 101.778 188.043 91.7953C188.043 81.8143 192.301 73.7183 197.541 73.7183C202.788 73.7183 207.038 81.8143 207.038 91.7953Z"
            fill="#000100"
            id="path52" />
    <path
            d="M204.898 84.8724C204.898 89.1724 203.113 92.6564 200.908 92.6564C198.712 92.6564 196.934 89.1714 196.934 84.8724C196.934 80.5714 198.712 77.0864 200.908 77.0864C203.113 77.0864 204.898 80.5714 204.898 84.8724Z"
            fill="white"
            id="path53" />
    <path
            d="M195.432 89.8364C195.432 91.3984 194.788 92.6564 193.993 92.6564C193.198 92.6564 192.555 91.3984 192.555 89.8364C192.555 88.2844 193.198 87.0264 193.993 87.0264C194.788 87.0264 195.432 88.2844 195.432 89.8364Z"
            fill="white"
            id="path54" />
    <path
            d="M199.81 96.6962C199.81 98.2502 199.167 99.5082 198.372 99.5082C197.577 99.5082 196.934 98.2502 196.934 96.6962C196.934 95.1342 197.577 93.8774 198.372 93.8774C199.167 93.8774 199.81 95.1342 199.81 96.6962Z"
            fill="white"
            id="path55" />
    <path
            d="M137.724 110.747C137.724 112.676 134.16 114.245 129.765 114.245C125.364 114.245 121.801 112.676 121.801 110.747C121.801 108.817 125.364 107.25 129.765 107.25C134.16 107.25 137.724 108.817 137.724 110.747Z"
            fill="#DB6482"
            id="path56" />
    <path
            d="M210.098 110.747C210.098 112.676 206.534 114.245 202.133 114.245C197.732 114.245 194.168 112.676 194.168 110.747C194.168 108.817 197.732 107.25 202.133 107.25C206.534 107.25 210.098 108.817 210.098 110.747Z"
            fill="#DB6482"
            id="path57" />
    <path
            d="M132.517 64.9152C133.29 65.0672 133.789 65.8192 133.644 66.5922C133.492 67.3582 132.741 67.8642 131.968 67.7122C131.953 67.7122 125.42 66.3832 123.764 72.9882C123.576 73.7472 122.802 74.2102 122.036 74.0222C121.278 73.8272 120.815 73.0542 121.003 72.2942C123.317 63.0512 132.488 64.9152 132.517 64.9152Z"
            fill="#100F0D"
            id="Left_Eyebrow" />
    <path
            d="M198.646 67.7122C197.873 67.8642 197.121 67.3582 196.976 66.5922C196.825 65.8192 197.323 65.0672 198.097 64.9152C198.126 64.9152 207.298 63.0512 209.61 72.2942C209.798 73.0542 209.335 73.8272 208.577 74.0222C207.811 74.2102 207.037 73.7472 206.85 72.9882C205.194 66.3832 198.661 67.7122 198.646 67.7122Z"
            fill="#100F0D"
            id="Right_Eyebrow" />
    <path
            d="M166.346 126.684C156.799 126.684 149.035 119.912 149.035 111.592C149.035 108.137 150.438 106.454 153.322 106.454C154.709 106.454 156.343 106.83 158.237 107.262C160.659 107.82 163.411 108.455 166.346 108.455C169.274 108.455 172.027 107.82 174.456 107.262C176.343 106.83 177.976 106.454 179.364 106.454C182.247 106.454 183.65 108.137 183.65 111.592C183.65 119.912 175.888 126.684 166.346 126.684Z"
            fill="white"
            id="path60" />
    <path
            d="M179.368 105.377C177.865 105.377 176.173 105.767 174.221 106.216C171.843 106.765 169.161 107.386 166.35 107.386C163.538 107.386 160.85 106.765 158.479 106.216C156.527 105.767 154.836 105.377 153.325 105.377C151.323 105.377 147.969 106.187 147.969 111.592C147.969 120.506 156.216 127.754 166.35 127.754C176.483 127.754 184.73 120.506 184.73 111.592C184.73 106.187 181.369 105.377 179.368 105.377ZM179.368 107.524C181.391 107.524 182.583 108.455 182.583 111.592C182.583 119.334 175.313 125.609 166.35 125.609C157.381 125.609 150.115 119.334 150.115 111.592C150.115 108.455 151.308 107.524 153.325 107.524C156.289 107.524 161.016 109.525 166.35 109.525C171.676 109.525 176.412 107.524 179.368 107.524Z"
            fill="#100F0D"
            id="path61" />
    <path
            d="M149.765 110.292C149.708 110.566 151.146 111.845 151.348 112.048C152.071 112.756 152.866 113.386 153.741 113.899C154.384 114.268 155.056 114.585 155.751 114.867C156.177 115.041 156.698 115.229 157.08 115.431C154.492 115.655 151.76 115.127 149.462 113.899C149.035 113.674 149.765 110.298 149.765 110.292Z"
            fill="#100F0D"
            id="path62" />
    <path
            d="M182.783 110.292C182.841 110.566 181.402 111.845 181.194 112.048C180.478 112.756 179.676 113.386 178.808 113.899C178.165 114.268 177.493 114.585 176.799 114.867C176.365 115.041 175.852 115.229 175.469 115.431C178.057 115.655 180.788 115.127 183.086 113.899C183.513 113.674 182.783 110.298 182.783 110.292Z"
            fill="#100F0D"
            id="path63" />
    <path
            d="M160.219 116.37C160.219 116.37 160.32 116.341 160.501 116.312C160.681 116.269 160.934 116.232 161.238 116.197C161.535 116.168 161.889 116.131 162.256 116.125C162.632 116.11 163.024 116.095 163.421 116.11C163.615 116.125 163.81 116.11 164.006 116.125C164.201 116.131 164.388 116.146 164.576 116.161C164.937 116.175 165.285 116.204 165.589 116.24C165.733 116.254 165.87 116.269 165.993 116.277C166.116 116.29 166.225 116.305 166.311 116.32C166.492 116.348 166.6 116.37 166.6 116.37C166.6 116.37 166.506 116.421 166.34 116.5C166.261 116.537 166.16 116.587 166.036 116.631C165.921 116.674 165.784 116.732 165.632 116.775C165.336 116.848 164.982 116.919 164.598 116.97C164.215 117.006 163.81 117.035 163.405 117.028C163.001 117.013 162.597 116.992 162.214 116.934C161.846 116.876 161.492 116.811 161.194 116.724C160.898 116.644 160.653 116.558 160.486 116.486C160.313 116.421 160.219 116.37 160.219 116.37Z"
            fill="#100F0D"
            id="path64" />
</svg>
