<svg width="114" height="102" viewBox="0 0 114 102" fill="none" xmlns="http://www.w3.org/2000/svg">
<path opacity="0.3" d="M8.48372 58.6538L65.4574 91.5476C77.6512 98.5876 94.4353 102.323 111.661 101.831L113.814 101.77L113.92 100.526C113.928 100.44 113.93 100.357 113.936 100.27C113.298 91.4792 106.981 83.0936 96.1098 76.8175L39.1362 43.9221C26.7517 36.7729 21.5523 39.9085 4.07432 40.5357L2.67185 40.5748L2.6181 41.3762C2.17993 45.4435 1.03807 48.3592 0.640625 50.8596C1.14558 53.285 3.17517 55.5882 8.48372 58.6538Z" fill="black"/>
<path d="M2.07812 29.0894C2.07812 29.0894 3.60439 45.261 13.1171 53.1905C16.7837 56.5867 75.1484 92.1014 88.0802 90.7217C110.982 87.2619 113.079 78.4089 113.079 78.4089L2.07812 29.0894Z" fill="#262626"/>
<path d="M6.18555 43.7609C6.9837 45.4614 7.93172 47.1538 9.05565 48.7387C10.2138 50.3725 70.8915 87.9933 90.0978 90.3976C92.2512 89.9871 94.2254 89.6548 96.0481 89.1759C64.2506 83.4373 6.18555 43.7609 6.18555 43.7609Z" fill="#D63A3A"/>
<path d="M4.1334 16.7962L4.27023 15.5811L5.52447 15.4719C22.8559 14.8562 27.9087 12.3363 40.1856 19.3584L95.5271 50.9882C107.618 57.9045 114.033 67.4221 113.187 77.1889L113.083 78.4105L110.946 78.4708C93.8673 78.9546 77.2265 75.2863 65.1353 68.3701L9.79216 36.7403C-2.4864 29.7182 3.05834 26.7064 4.1334 16.7962Z" fill="#4D4D4D"/>
<path d="M5.55824 19.1728L6.89719 19.137C23.577 18.5392 28.5402 15.5453 40.3578 22.3687L94.7301 53.7606C105.106 59.7517 111.133 67.7528 111.742 76.1432C112.431 66.738 106.268 57.5901 94.7301 50.9296L40.3578 19.5344C28.5402 12.7126 23.577 15.7049 6.89719 16.3043L5.55824 16.3402L5.50774 17.1057C4.91646 22.6097 2.97482 25.9017 3.61986 28.9885C3.99939 26.6022 5.09075 23.82 5.50774 19.9384L5.55824 19.1728Z" fill="#262626"/>
<path d="M11.1058 36.4243L65.4781 67.8163C77.1166 74.5354 93.1334 78.0994 109.572 77.6287L111.628 77.5717L111.73 76.3842C111.737 76.3012 111.74 76.2197 111.745 76.1399C111.136 67.7495 105.109 59.7484 94.733 53.7573L40.3591 22.367C28.5415 15.5436 23.5782 18.5375 6.89842 19.1353L5.55948 19.1711L5.50898 19.9383C5.09198 23.82 4.00062 26.6021 3.62109 28.9884C4.10324 31.3031 6.04162 33.5005 11.1058 36.4243Z" fill="#CF7C00"/>
<path d="M30.4436 23.2662L19.8672 17.1709V16.7115L30.4436 22.8069V23.2662Z" fill="#346678"/>
<path d="M30.4436 22.8069L19.8672 16.7116L25.3256 13.5776L35.9003 19.6713L30.4436 22.8069Z" fill="#66C5E8"/>
<path d="M35.8982 25.9164L30.4414 29.052V23.2662L35.8982 20.1306V25.9164Z" fill="#66C5E8"/>
<path d="M35.8982 24.9439L30.4414 28.0796V27.3987L35.8982 24.2631V24.9439Z" fill="white"/>
<path d="M30.4436 29.052L19.8672 22.9583V17.1709L30.4436 23.2662V29.052Z" fill="#58ABC9"/>
<path d="M35.8982 20.1306L30.4414 23.2662V22.8069L35.8982 19.6713V20.1306Z" fill="#53A0BD"/>
<path d="M30.4436 29.5113L19.8672 23.4177V22.9583L30.4436 29.052V29.5113Z" fill="#346678"/>
<path d="M35.8982 26.3758L30.4414 29.5114V29.0521L35.8982 25.9164V26.3758Z" fill="#53A0BD"/>
<path d="M23.8787 22.2709C23.8787 21.8409 23.5773 21.3197 23.2059 21.1047C22.8329 20.8896 22.5332 21.0639 22.5332 21.4923C22.5332 21.9224 22.8329 22.4436 23.2059 22.6586C23.5773 22.8736 23.8787 22.701 23.8787 22.2709Z" fill="#D1D1D1"/>
<path d="M24.4261 20.9467C24.4261 20.9467 23.2142 19.6859 22.4062 20.2707C24.8642 21.3946 24.0726 23.1375 23.6589 23.118C23.6589 23.118 25.3236 23.6669 25.019 21.7041C25.019 21.7041 24.9164 21.2952 25.5679 21.7513C24.9489 20.5508 24.4261 20.9467 24.4261 20.9467Z" fill="#D1D1D1"/>
<path d="M19.8672 21.9485V21.2888L30.4436 27.3987V28.0796L19.8672 21.9485Z" fill="#D1D1D1"/>
<path d="M30.4436 16.4525L19.8672 10.3556V9.89789L30.4436 15.9916V16.4525Z" fill="#346678"/>
<path d="M30.4436 15.9916L19.8672 9.89788L25.3256 6.76227L35.9003 12.8576L30.4436 15.9916Z" fill="#66C5E8"/>
<path d="M35.8982 19.1027L30.4414 22.2367V16.4525L35.8982 13.3169V19.1027Z" fill="#66C5E8"/>
<path d="M35.8982 18.1319L30.4414 21.2659V20.585L35.8982 17.4494V18.1319Z" fill="white"/>
<path d="M30.4436 22.2367L19.8672 16.143V10.3556L30.4436 16.4525V22.2367Z" fill="#58ABC9"/>
<path d="M35.8982 13.3169L30.4414 16.4526V15.9916L35.8982 12.8576V13.3169Z" fill="#53A0BD"/>
<path d="M30.4436 22.6977L19.8672 16.6024V16.1431L30.4436 22.2367V22.6977Z" fill="#346678"/>
<path d="M35.8982 19.5637L30.4414 22.6977V22.2367L35.8982 19.1044V19.5637Z" fill="#53A0BD"/>
<path d="M23.8787 15.4556C23.8787 15.0256 23.5773 14.5044 23.2059 14.2893C22.8329 14.0743 22.5332 14.2486 22.5332 14.677C22.5332 15.1054 22.8329 15.6283 23.2059 15.8433C23.5773 16.0583 23.8787 15.8857 23.8787 15.4556Z" fill="#D1D1D1"/>
<path d="M24.4261 14.133C24.4261 14.133 23.2142 12.8722 22.4062 13.457C24.8642 14.5809 24.0726 16.3239 23.6589 16.3059C23.6589 16.3059 25.3236 16.8532 25.019 14.8904C25.019 14.8904 24.9164 14.4816 25.5679 14.9377C24.9489 13.7372 24.4261 14.133 24.4261 14.133Z" fill="#D1D1D1"/>
<path d="M19.8672 15.1331V14.475L30.4436 20.585V21.2659L19.8672 15.1331Z" fill="#D1D1D1"/>
<path d="M41.2912 29.4755L30.7148 23.3802V22.9192L41.2912 29.0161V29.4755Z" fill="#346678"/>
<path d="M41.2912 29.0161L30.7148 22.9192L36.1732 19.7852L46.7496 25.8805L41.2912 29.0161Z" fill="#66C5E8"/>
<path d="M46.7475 32.1257L41.2891 35.2613V29.4754L46.7475 26.3398V32.1257Z" fill="#66C5E8"/>
<path d="M46.7475 31.1532L41.2891 34.2888V33.6063L46.7475 30.4724V31.1532Z" fill="white"/>
<path d="M41.2912 35.2613L30.7148 29.166V23.3802L41.2912 29.4755V35.2613Z" fill="#58ABC9"/>
<path d="M46.7475 26.3398L41.2891 29.4754V29.0161L46.7475 25.8805V26.3398Z" fill="#53A0BD"/>
<path d="M41.2912 35.7206L30.7148 29.6269V29.166L41.2912 35.2613V35.7206Z" fill="#346678"/>
<path d="M46.7475 32.585L41.2891 35.7206V35.2613L46.7475 32.1257V32.585Z" fill="#53A0BD"/>
<path d="M34.7263 28.4786C34.7263 28.0485 34.425 27.5273 34.0536 27.3123C33.6806 27.0973 33.3809 27.2716 33.3809 27.7C33.3809 28.13 33.6822 28.6512 34.0536 28.8662C34.425 29.0829 34.7263 28.907 34.7263 28.4786Z" fill="#D1D1D1"/>
<path d="M35.2737 27.156C35.2737 27.156 34.0618 25.8952 33.2539 26.48C35.7119 27.6039 34.9219 29.3468 34.5049 29.3273C34.5049 29.3273 36.1712 29.8762 35.8666 27.9134C35.8666 27.9134 35.764 27.5045 36.4156 27.9606C35.7966 26.7601 35.2737 27.156 35.2737 27.156Z" fill="#D1D1D1"/>
<path d="M30.7148 28.1561V27.498L41.2912 33.6063V34.2888L30.7148 28.1561Z" fill="#D1D1D1"/>
<path d="M41.2912 22.6603L30.7148 16.565V16.1072L41.2912 22.2009V22.6603Z" fill="#346678"/>
<path d="M41.2912 22.2009L30.7148 16.1072L36.1732 12.9716L46.7496 19.0653L41.2912 22.2009Z" fill="#66C5E8"/>
<path d="M46.7475 25.3105L41.2891 28.4461V22.6603L46.7475 19.5247V25.3105Z" fill="#66C5E8"/>
<path d="M46.7475 24.338L41.2891 27.4736V26.7927L46.7475 23.6571V24.338Z" fill="white"/>
<path d="M41.2912 28.4461L30.7148 22.3524V16.5649L41.2912 22.6602V28.4461Z" fill="#58ABC9"/>
<path d="M46.7475 19.5247L41.2891 22.6603V22.2009L46.7475 19.0653V19.5247Z" fill="#53A0BD"/>
<path d="M41.2912 28.9054L30.7148 22.8118V22.3524L41.2912 28.4461V28.9054Z" fill="#346678"/>
<path d="M46.7475 25.7714L41.2891 28.9054V28.4461L46.7475 25.3121V25.7714Z" fill="#53A0BD"/>
<path d="M34.7263 21.665C34.7263 21.2349 34.425 20.7137 34.0536 20.4987C33.6806 20.2837 33.3809 20.458 33.3809 20.8864C33.3809 21.3164 33.6822 21.8376 34.0536 22.0527C34.425 22.2677 34.7263 22.0934 34.7263 21.665Z" fill="#D1D1D1"/>
<path d="M35.2737 20.3407C35.2737 20.3407 34.0618 19.0799 33.2539 19.6647C35.7119 20.7886 34.9219 22.5316 34.5049 22.5136C34.5049 22.5136 36.1712 23.0609 35.8666 21.0981C35.8666 21.0981 35.764 20.6893 36.4156 21.1454C35.7966 19.9449 35.2737 20.3407 35.2737 20.3407Z" fill="#D1D1D1"/>
<path d="M30.7148 21.3425V20.6828L41.2912 26.7928V27.4736L30.7148 21.3425Z" fill="#D1D1D1"/>
<path d="M24.7912 26.5973L14.2148 20.5036V20.0443L24.7912 26.1379V26.5973Z" fill="#39823A"/>
<path d="M24.7912 26.1379L14.2148 20.0442L19.6733 16.9086L30.2496 23.0023L24.7912 26.1379Z" fill="#6CF56E"/>
<path d="M30.2494 29.2491L24.791 32.3831V26.5973L30.2494 23.4617V29.2491Z" fill="#6CF56E"/>
<path d="M30.2494 28.2766L24.791 31.4106V30.7297L30.2494 27.5941V28.2766Z" fill="white"/>
<path d="M24.7912 32.3831L14.2148 26.2894V20.5036L24.7912 26.5973V32.3831Z" fill="#58C95A"/>
<path d="M30.2494 23.4617L24.791 26.5973V26.1379L30.2494 23.0023V23.4617Z" fill="#54BF56"/>
<path d="M24.7912 32.8424L14.2148 26.7488V26.2894L24.7912 32.3847V32.8424Z" fill="#39823A"/>
<path d="M30.2494 29.7084L24.791 32.8424V32.3847L30.2494 29.2491V29.7084Z" fill="#54BF56"/>
<path d="M18.2299 25.602C18.2299 25.172 17.9269 24.6508 17.5555 24.4357C17.1842 24.2207 16.8828 24.3966 16.8828 24.825C16.8828 25.2534 17.1858 25.7747 17.5555 25.9897C17.9286 26.2047 18.2299 26.0304 18.2299 25.602Z" fill="#D1D1D1"/>
<path d="M18.7757 24.2794C18.7757 24.2794 17.5638 23.0186 16.7559 23.6018C19.2155 24.7273 18.4238 26.4686 18.0085 26.4507C18.0085 26.4507 19.6732 26.998 19.3702 25.0352C19.3702 25.0352 19.2676 24.6263 19.9192 25.0824C19.3002 23.8836 18.7757 24.2794 18.7757 24.2794Z" fill="#D1D1D1"/>
<path d="M14.2148 25.2811V24.6198L24.7912 30.7298V31.4106L14.2148 25.2811Z" fill="#D1D1D1"/>
<path d="M35.6643 32.9255L25.0879 26.8318V26.3708L35.6643 32.4662V32.9255Z" fill="#39823A"/>
<path d="M35.6643 32.4662L25.0879 26.3709L30.5463 23.2369L41.1227 29.3322L35.6643 32.4662Z" fill="#6CF56E"/>
<path d="M41.1205 35.5774L35.6621 38.7113V32.9255L41.1205 29.7899V35.5774Z" fill="#6CF56E"/>
<path d="M41.1205 34.6049L35.6621 37.7405V37.058L41.1205 33.9224V34.6049Z" fill="white"/>
<path d="M35.6643 38.7113L25.0879 32.616V26.8318H25.0895L35.6643 32.9255V38.7113Z" fill="#58C95A"/>
<path d="M41.1205 29.7899L35.6621 32.9255V32.4662L41.1205 29.3322V29.7899Z" fill="#54BF56"/>
<path d="M35.6643 39.1723L25.0879 33.077V32.616L35.6643 38.713V39.1723Z" fill="#39823A"/>
<path d="M41.1205 36.0367L35.6621 39.1723V38.7129L41.1205 35.5773V36.0367Z" fill="#54BF56"/>
<path d="M29.0994 31.9287C29.0994 31.4987 28.7964 30.9774 28.4266 30.7624C28.0536 30.5474 27.7539 30.7233 27.7539 31.1517C27.7539 31.5801 28.0553 32.103 28.4266 32.3164C28.7964 32.533 29.0994 32.3587 29.0994 31.9287Z" fill="#D1D1D1"/>
<path d="M29.6484 30.6076C29.6484 30.6076 28.4365 29.3469 27.627 29.93C30.0866 31.0556 29.2949 32.7968 28.8812 32.7789C28.8812 32.7789 30.5459 33.3262 30.2413 31.3634C30.2413 31.3634 30.1387 30.9546 30.7903 31.4107C30.1713 30.2118 29.6484 30.6076 29.6484 30.6076Z" fill="#D1D1D1"/>
<path d="M25.0879 31.6078V30.9481L35.6643 37.058V37.7405L25.0879 31.6078Z" fill="#D1D1D1"/>
<path d="M24.7912 19.7836L14.2148 13.6883V13.2289L24.7912 19.3226V19.7836Z" fill="#39823A"/>
<path d="M24.7912 19.3226L14.2148 13.2289L19.6733 10.0933L30.2496 16.1886L24.7912 19.3226Z" fill="#6CF56E"/>
<path d="M30.2494 22.4338L24.791 25.5678V19.7836L30.2494 16.648V22.4338Z" fill="#6CF56E"/>
<path d="M30.2494 21.463L24.791 24.5969V23.9161L30.2494 20.7805V21.463Z" fill="white"/>
<path d="M24.7912 25.5678L14.2148 19.4741V13.6883L24.7912 19.7836V25.5678Z" fill="#58C95A"/>
<path d="M30.2494 16.648L24.791 19.7836V19.3226L30.2494 16.1887V16.648Z" fill="#54BF56"/>
<path d="M24.7912 26.0288L14.2148 19.9335V19.4741L24.7912 25.5694V26.0288Z" fill="#39823A"/>
<path d="M30.2494 22.8948L24.791 26.0287V25.5694L30.2494 22.4338V22.8948Z" fill="#54BF56"/>
<path d="M18.2299 18.7867C18.2299 18.3567 17.9269 17.8354 17.5555 17.6204C17.1842 17.4054 16.8828 17.5797 16.8828 18.0097C16.8828 18.4397 17.1858 18.961 17.5555 19.1744C17.9286 19.3894 18.2299 19.2167 18.2299 18.7867Z" fill="#D1D1D1"/>
<path d="M18.7757 17.4657C18.7757 17.4657 17.5638 16.2049 16.7559 16.788C19.2155 17.9136 18.4238 19.6549 18.0085 19.637C18.0085 19.637 19.6732 20.1843 19.3702 18.2215C19.3702 18.2215 19.2676 17.8126 19.9192 18.2687C19.3002 17.0682 18.7757 17.4657 18.7757 17.4657Z" fill="#D1D1D1"/>
<path d="M14.2148 18.4659V17.8062L24.7912 23.9161V24.597L14.2148 18.4659Z" fill="#D1D1D1"/>
<path d="M19.3108 30.1238L8.73438 24.0301V23.5708L19.3108 29.6645V30.1238Z" fill="#873030"/>
<path d="M19.3108 29.6645L8.73438 23.5708L14.1928 20.4352L24.7692 26.5288L19.3108 29.6645Z" fill="#F55353"/>
<path d="M24.767 32.774L19.3086 35.9096V30.1238L24.767 26.9882V32.774Z" fill="#A62626"/>
<path d="M24.767 31.8032L19.3086 34.9372V34.2563L24.767 31.1207V31.8032Z" fill="white"/>
<path d="M19.3108 35.9096L8.73438 29.816V24.0302H8.73601L19.3108 30.1238V35.9096Z" fill="#D63A3A"/>
<path d="M24.767 26.9882L19.3086 30.1238V29.6645L24.767 26.5289V26.9882Z" fill="#801D1D"/>
<path d="M19.3108 36.369L8.73438 30.2753V29.816L19.3108 35.9097V36.369Z" fill="#873030"/>
<path d="M24.767 33.235L19.3086 36.369V35.9096L24.767 32.7756V33.235Z" fill="#801D1D"/>
<path d="M12.7459 29.1286C12.7459 28.6985 12.4429 28.1773 12.0731 27.9623C11.7001 27.7473 11.4004 27.9232 11.4004 28.3516C11.4004 28.78 11.7017 29.3012 12.0731 29.5162C12.4429 29.7313 12.7459 29.5586 12.7459 29.1286Z" fill="#D1D1D1"/>
<path d="M13.2949 27.8059C13.2949 27.8059 12.083 26.5435 11.2734 27.1283C13.7331 28.2539 12.9414 29.9952 12.5277 29.9772C12.5277 29.9772 14.1924 30.5245 13.8878 28.5617C13.8878 28.5617 13.7852 28.1529 14.4367 28.609C13.8178 27.4101 13.2949 27.8059 13.2949 27.8059Z" fill="#D1D1D1"/>
<path d="M8.73438 28.8061L8.73601 28.1464L19.3108 34.2563V34.9372L8.73438 28.8061Z" fill="#D1D1D1"/>
<path d="M30.5334 36.5645L19.957 30.4708V30.0115L30.5334 36.1051V36.5645Z" fill="#873030"/>
<path d="M30.5334 36.1051L19.957 30.0115L25.4138 26.8759L35.9902 32.9695L30.5334 36.1051Z" fill="#F55353"/>
<path d="M35.99 39.2147L30.5332 42.3503V36.5645L35.99 33.4289V39.2147Z" fill="#A62626"/>
<path d="M35.99 38.2422L30.5332 41.3778V40.6969L35.99 37.5613V38.2422Z" fill="white"/>
<path d="M30.5334 42.3503L19.957 36.2566V30.4708L30.5334 36.5645V42.3503Z" fill="#D63A3A"/>
<path d="M35.99 33.4288L30.5332 36.5644V36.1051L35.99 32.9695V33.4288Z" fill="#801D1D"/>
<path d="M30.5334 42.8096L19.957 36.7159V36.2566L30.5334 42.3503V42.8096Z" fill="#873030"/>
<path d="M35.99 39.6757L30.5332 42.8096V42.3503L35.99 39.2163V39.6757Z" fill="#801D1D"/>
<path d="M23.9666 35.5692C23.9666 35.1392 23.6636 34.6179 23.2938 34.4029C22.9208 34.1879 22.6211 34.3622 22.6211 34.7906C22.6211 35.2206 22.9208 35.7419 23.2922 35.9569C23.6652 36.1719 23.9666 35.9992 23.9666 35.5692Z" fill="#D1D1D1"/>
<path d="M24.5156 34.2449C24.5156 34.2449 23.3037 32.9842 22.4941 33.569C24.9538 34.6929 24.1621 36.4358 23.7484 36.4179C23.7484 36.4179 25.4131 36.9652 25.1085 35.0024C25.1085 35.0024 25.0059 34.5935 25.6574 35.0496C25.0401 33.8491 24.5156 34.2449 24.5156 34.2449Z" fill="#D1D1D1"/>
<path d="M19.957 35.2467V34.587L30.5334 40.697V41.3779L19.957 35.2467Z" fill="#D1D1D1"/>
<path d="M40.9012 26.651L33.7129 22.5006V43.4432L40.9012 47.5936V26.651Z" fill="#ABBDCC"/>
<path d="M40.9012 26.651L33.7129 22.5006V23.7044L40.9012 27.8548V26.651Z" fill="#85939E"/>
<path d="M55.9285 17.9185L40.9004 26.7455V47.5936L55.9285 38.8611V17.9185Z" fill="#C3D7E8"/>
<path d="M42.8535 29.7215L44.1762 28.9592V26.9963L42.8535 27.7603V29.7215Z" fill="#34495E"/>
<path d="M46.3105 27.7163L47.6332 26.954V24.9911L46.3105 25.7551V27.7163Z" fill="#34495E"/>
<path d="M49.6094 25.804L50.9304 25.04V23.0789L49.6094 23.8412V25.804Z" fill="#34495E"/>
<path d="M52.9453 23.8803L54.2647 23.1163V21.1552L52.9453 21.9191V23.8803Z" fill="#34495E"/>
<path d="M55.9285 17.9185L40.9004 26.7455V27.8547L55.9285 19.1206V17.9185Z" fill="#85939E"/>
<path d="M43.1792 28.06L31.4316 21.2773V18.3811L43.1792 25.1638V28.06Z" fill="#ABBDCC"/>
<path d="M40.4112 30.8242L39.0918 30.0602V28.0991L40.4112 28.8614V30.8242Z" fill="#34495E"/>
<path d="M38.0043 29.4315L36.6816 28.6709V26.7064L38.0043 27.4704V29.4315Z" fill="#34495E"/>
<path d="M35.5945 28.0421L34.2734 27.2781V25.317L35.5945 26.0809V28.0421Z" fill="#34495E"/>
<path d="M43.1792 25.1639L31.4316 18.3812L46.4598 9.64868L58.2073 16.4314L43.1792 25.1639Z" fill="#C3D7E8"/>
<path d="M57.2886 16.4786L55.0537 17.7784L46.3457 12.7501V10.1634L57.2886 16.4786Z" fill="#9DACBA"/>
<path d="M46.347 12.7501L34.5848 19.5816L32.3516 18.2932L46.347 10.1634V12.7501Z" fill="#92A2AD"/>
<path d="M55.0542 17.7785L43.292 24.6101L34.584 19.5817L46.3462 12.7501L55.0542 17.7785Z" fill="#A5B6C4"/>
<path d="M58.2078 19.3291L43.1797 28.06V25.1638L58.2078 16.4313V19.3291Z" fill="#D6ECFF"/>
<path d="M43.1339 19.8569L37.2129 16.4395V19.7999L43.1339 23.219V19.8569Z" fill="#696969"/>
<path d="M49.8189 15.9997L43.8962 12.5823L37.2129 16.4395L43.1339 19.8569L49.8189 15.9997Z" fill="#B5B5B5"/>
<path d="M48.5351 15.9427L47.0007 15.0566L45.2676 16.0567L46.8036 16.9428L48.5351 15.9427Z" fill="#2E2E2E"/>
<path d="M48.1435 15.9573L46.9789 15.2846L45.666 16.0437L46.8307 16.7164L48.1435 15.9573Z" fill="#4F4F4F"/>
<path d="M49.8178 19.3617L43.1328 23.2189V19.8569L49.8178 15.9997V19.3617Z" fill="#9E9E9E"/>
<path d="M43.3116 0.487793L43.2285 14.4897L43.3963 14.5858L43.3116 0.487793Z" fill="#4F4F4F"/>
<path d="M44.1687 0.958557L44.084 14.9589L44.2534 15.0566L44.1687 0.958557Z" fill="#4F4F4F"/>
<path d="M42.0779 13.6199C40.6526 13.6199 39.4961 14.7764 39.4961 16.2017C39.4961 16.5829 39.7486 16.964 40.2535 17.254C41.2602 17.8355 42.894 17.8355 43.9022 17.254C44.4056 16.9624 44.658 16.5829 44.658 16.2017C44.658 14.7764 43.5032 13.6199 42.0779 13.6199Z" fill="#737373"/>
<path d="M43.1328 14.1786C43.8446 14.8383 44.1525 15.6837 44.3887 16.622C44.6526 16.2718 44.4636 15.7098 44.4636 15.7098C44.4636 15.7098 44.2356 14.5598 43.1328 14.1786Z" fill="#BDBDBD"/>
<path d="M63.5041 42.632L52.9277 36.5383V36.0773L63.5041 42.1726V42.632Z" fill="#346678"/>
<path d="M63.5041 42.1726L52.9277 36.0773L58.3845 32.9434L68.9625 39.037L63.5041 42.1726Z" fill="#66C5E8"/>
<path d="M68.9623 45.2822L63.5039 48.4178V42.632L68.9623 39.4964V45.2822Z" fill="#66C5E8"/>
<path d="M68.9623 44.3114L63.5039 47.4454V46.7645L68.9623 43.6289V44.3114Z" fill="white"/>
<path d="M63.5041 48.4178L52.9277 42.3225V36.5383L63.5041 42.632V48.4178Z" fill="#58ABC9"/>
<path d="M68.9623 39.4964L63.5039 42.632V42.1727L68.9623 39.037V39.4964Z" fill="#53A0BD"/>
<path d="M63.5041 48.8772L52.9277 42.7835V42.3225L63.5041 48.4194V48.8772Z" fill="#346678"/>
<path d="M68.9623 45.7432L63.5039 48.8771V48.4194L68.9623 45.2838V45.7432Z" fill="#53A0BD"/>
<path d="M56.9392 41.6352C56.9392 41.2051 56.6379 40.6839 56.2665 40.4689C55.8951 40.2539 55.5938 40.4298 55.5938 40.8582C55.5938 41.2866 55.8951 41.8078 56.2665 42.0228C56.6379 42.2379 56.9392 42.0652 56.9392 41.6352Z" fill="#D1D1D1"/>
<path d="M57.4866 40.3141C57.4866 40.3141 56.2747 39.0517 55.4668 39.6365C57.9248 40.762 57.1348 42.5033 56.7194 42.4854C56.7194 42.4854 58.3841 43.0327 58.0812 41.0699C58.0812 41.0699 57.9785 40.6611 58.6301 41.1171C58.0095 39.9167 57.4866 40.3141 57.4866 40.3141Z" fill="#D1D1D1"/>
<path d="M52.9277 41.3142V40.6545L63.5041 46.7645V47.4454L52.9277 41.3142Z" fill="#D1D1D1"/>
<path d="M74.3143 48.9065L63.7363 42.8129V42.3535L74.3143 48.4472V48.9065Z" fill="#346678"/>
<path d="M74.3143 48.4472L63.7363 42.3535L69.1947 39.2179L79.7711 45.3116L74.3143 48.4472Z" fill="#66C5E8"/>
<path d="M79.7696 51.5568L74.3145 54.6924V48.9066L79.7712 45.7726L79.7696 51.5568Z" fill="#66C5E8"/>
<path d="M79.7696 50.5859L74.3145 53.7215V53.0406L79.7712 49.905L79.7696 50.5859Z" fill="white"/>
<path d="M74.3143 54.6924L63.7363 48.5987V42.8129L74.3143 48.9065V54.6924Z" fill="#58ABC9"/>
<path d="M79.7712 45.7726L74.3145 48.9065V48.4472L79.7712 45.3116V45.7726Z" fill="#53A0BD"/>
<path d="M74.3143 55.1517L63.7363 49.058V48.5987L74.3143 54.6924V55.1517Z" fill="#346678"/>
<path d="M79.7712 52.0178L74.3145 55.1517V54.6924L79.7712 51.5584V52.0178Z" fill="#53A0BD"/>
<path d="M67.7478 47.9113C67.7478 47.4813 67.4465 46.9601 67.0751 46.745C66.7021 46.53 66.4023 46.7059 66.4023 47.1327C66.4023 47.5627 66.7037 48.084 67.0751 48.299C67.4481 48.514 67.7478 48.3413 67.7478 47.9113Z" fill="#D1D1D1"/>
<path d="M68.2952 46.5886C68.2952 46.5886 67.0833 45.3263 66.2754 45.911C68.7334 47.0366 67.9434 48.7779 67.528 48.76C67.528 48.76 69.1927 49.3073 68.8898 47.3444C68.8898 47.3444 68.7871 46.9356 69.4387 47.3917C68.8197 46.1912 68.2952 46.5886 68.2952 46.5886Z" fill="#D1D1D1"/>
<path d="M63.7363 47.5904V46.9291L74.3143 53.0407V53.7215L63.7363 47.5904Z" fill="#D1D1D1"/>
<path d="M63.5041 35.8168L52.9277 29.7231V29.2637L63.5041 35.3574V35.8168Z" fill="#873030"/>
<path d="M63.5041 35.3574L52.9277 29.2637L58.3845 26.1281L68.9625 32.2218L63.5041 35.3574Z" fill="#F55353"/>
<path d="M68.9623 38.4686L63.5039 41.6026V35.8168L68.9623 32.6812V38.4686Z" fill="#A62626"/>
<path d="M68.9623 37.4961L63.5039 40.6301V39.9492L68.9623 36.8152V37.4961Z" fill="white"/>
<path d="M63.5041 41.6026L52.9277 35.5089V29.7231L63.5041 35.8168V41.6026Z" fill="#D63A3A"/>
<path d="M68.9623 32.6811L63.5039 35.8168V35.3574L68.9623 32.2218V32.6811Z" fill="#801D1D"/>
<path d="M63.5041 42.0635L52.9277 35.9682V35.5089L63.5041 41.6042V42.0635Z" fill="#873030"/>
<path d="M68.9623 38.9279L63.5039 42.0635V41.6042L68.9623 38.4686V38.9279Z" fill="#801D1D"/>
<path d="M56.9392 34.8215C56.9392 34.3915 56.6379 33.8702 56.2665 33.6552C55.8935 33.4402 55.5938 33.6161 55.5938 34.0445C55.5938 34.4729 55.8951 34.9958 56.2665 35.2092C56.6379 35.4242 56.9392 35.2515 56.9392 34.8215Z" fill="#D1D1D1"/>
<path d="M57.4866 33.4988C57.4866 33.4988 56.2747 32.238 55.4668 32.8212C57.9248 33.9467 57.1348 35.688 56.7194 35.6701C56.7194 35.6701 58.3841 36.2174 58.0812 34.2546C58.0812 34.2546 57.9785 33.8458 58.6301 34.3019C58.0095 33.103 57.4866 33.4988 57.4866 33.4988Z" fill="#D1D1D1"/>
<path d="M52.9277 34.5006V33.8393L63.5041 39.9493V40.6301L52.9277 34.5006Z" fill="#D1D1D1"/>
<path d="M74.3143 42.0928L63.7363 35.9991V35.5381L74.3143 41.6335V42.0928Z" fill="#346678"/>
<path d="M74.3143 41.6335L63.7363 35.5382L69.1947 32.4042L79.7711 38.4995L74.3143 41.6335Z" fill="#66C5E8"/>
<path d="M79.7696 44.7446L74.3145 47.8786V42.0928L79.7712 38.9572L79.7696 44.7446Z" fill="#66C5E8"/>
<path d="M79.7696 43.7722L74.3145 46.9062V46.2253L79.7712 43.0897L79.7696 43.7722Z" fill="white"/>
<path d="M74.3143 47.8786L63.7363 41.7833V35.9991L74.3143 42.0928V47.8786Z" fill="#58ABC9"/>
<path d="M79.7712 38.9572L74.3145 42.0928V41.6335L79.7712 38.4995V38.9572Z" fill="#53A0BD"/>
<path d="M74.3143 48.3396L63.7363 42.2443V41.7833L74.3143 47.8786V48.3396Z" fill="#346678"/>
<path d="M79.7712 45.204L74.3145 48.3396V47.8786L79.7712 44.7446V45.204Z" fill="#53A0BD"/>
<path d="M67.7478 41.0976C67.7478 40.6676 67.4465 40.1464 67.0751 39.9313C66.7021 39.7163 66.4023 39.8922 66.4023 40.3206C66.4023 40.749 66.7037 41.2703 67.0751 41.4853C67.4481 41.7003 67.7478 41.526 67.7478 41.0976Z" fill="#D1D1D1"/>
<path d="M68.2952 39.7749C68.2952 39.7749 67.0833 38.5142 66.2754 39.0973C68.7334 40.2229 67.9434 41.9642 67.528 41.9462C67.528 41.9462 69.1927 42.4935 68.8898 40.5307C68.8898 40.5307 68.7871 40.1219 69.4387 40.578C68.8197 39.3791 68.2952 39.7749 68.2952 39.7749Z" fill="#D1D1D1"/>
<path d="M63.7363 40.7751V40.1154L74.3143 46.2253V46.9062L63.7363 40.7751Z" fill="#D1D1D1"/>
<path d="M85.1662 55.1158L74.5898 49.0221V48.5628L85.1662 54.6565V55.1158Z" fill="#346678"/>
<path d="M85.1662 54.6565L74.5898 48.5628L80.0466 45.4272L90.623 51.5209L85.1662 54.6565Z" fill="#66C5E8"/>
<path d="M90.6208 57.766L85.1641 60.9017V55.1158L90.6208 51.9802V57.766Z" fill="#66C5E8"/>
<path d="M90.6208 56.7952L85.1641 59.9292V59.2483L90.6208 56.1127V56.7952Z" fill="white"/>
<path d="M85.1662 60.9017L74.5898 54.808V49.0222L85.1662 55.1158V60.9017Z" fill="#58ABC9"/>
<path d="M90.6208 51.9802L85.1641 55.1158V54.6565L90.6208 51.5209V51.9802Z" fill="#53A0BD"/>
<path d="M85.1662 61.361L74.5898 55.2673V54.808L85.1662 60.9017V61.361Z" fill="#346678"/>
<path d="M90.6208 58.227L85.1641 61.361V60.9016L90.6208 57.7676V58.227Z" fill="#53A0BD"/>
<path d="M78.5974 54.1206C78.5974 53.6905 78.2961 53.1693 77.9247 52.9543C77.5533 52.7393 77.252 52.9152 77.252 53.3419C77.252 53.772 77.5549 54.2932 77.9247 54.5082C78.2961 54.7232 78.5974 54.549 78.5974 54.1206Z" fill="#D1D1D1"/>
<path d="M79.1448 52.7963C79.1448 52.7963 77.9329 51.5355 77.125 52.1203C79.5846 53.2458 78.793 54.9871 78.3776 54.9692C78.3776 54.9692 80.0423 55.5165 79.7394 53.5537C79.7394 53.5537 79.6367 53.1449 80.2883 53.6009C79.6693 52.4005 79.1448 52.7963 79.1448 52.7963Z" fill="#D1D1D1"/>
<path d="M74.5898 53.7981V53.1384L85.1662 59.2483V59.9292L74.5898 53.7981Z" fill="#D1D1D1"/>
<path d="M85.1662 48.3006L74.5898 42.2069V41.7476L85.1662 47.8412V48.3006Z" fill="#346678"/>
<path d="M85.1662 47.8412L74.5898 41.7476L80.0466 38.6119L90.623 44.7056L85.1662 47.8412Z" fill="#66C5E8"/>
<path d="M90.6208 50.9524L85.1641 54.0864V48.3006L90.6208 45.165V50.9524Z" fill="#66C5E8"/>
<path d="M90.6208 49.9816L85.1641 53.1139V52.433L90.6208 49.2991V49.9816Z" fill="white"/>
<path d="M85.1662 54.0864L74.5898 47.9927V42.2069L85.1662 48.3006V54.0864Z" fill="#58ABC9"/>
<path d="M90.6208 45.165L85.1641 48.3006V47.8412L90.6208 44.7056V45.165Z" fill="#53A0BD"/>
<path d="M85.1662 54.5457L74.5898 48.452V47.9927L85.1662 54.088V54.5457Z" fill="#346678"/>
<path d="M90.6208 51.4134L85.1641 54.5457V54.088L90.6208 50.9524V51.4134Z" fill="#53A0BD"/>
<path d="M78.5974 47.3053C78.5974 46.8753 78.2961 46.3541 77.9247 46.139C77.5533 45.924 77.252 46.1 77.252 46.5283C77.252 46.9567 77.5549 47.478 77.9247 47.693C78.2961 47.908 78.5974 47.7354 78.5974 47.3053Z" fill="#D1D1D1"/>
<path d="M79.1448 45.9843C79.1448 45.9843 77.9329 44.7235 77.125 45.3067C79.5846 46.4322 78.793 48.1735 78.3776 48.1556C78.3776 48.1556 80.0423 48.7029 79.7394 46.7401C79.7394 46.7401 79.6367 46.3312 80.2883 46.7873C79.6693 45.5868 79.1448 45.9843 79.1448 45.9843Z" fill="#D1D1D1"/>
<path d="M74.5898 46.9844V46.3231L85.1662 52.4331V53.114L74.5898 46.9844Z" fill="#D1D1D1"/>
<path d="M57.6486 45.9631L47.0723 39.8694V39.4084L57.6486 45.5021V45.9631Z" fill="#39823A"/>
<path d="M57.6486 45.5021L47.0723 39.4084L52.5307 36.2728L63.1071 42.3698L57.6486 45.5021Z" fill="#6CF56E"/>
<path d="M63.1052 48.6149L57.6484 51.7473V45.9631L63.1069 42.8291L63.1052 48.6149Z" fill="#6CF56E"/>
<path d="M63.1052 47.6425L57.6484 50.7781V50.0956L63.1069 46.9616L63.1052 47.6425Z" fill="white"/>
<path d="M57.6486 51.7473L47.0723 45.6536V39.8694L57.6486 45.9631V51.7473Z" fill="#58C95A"/>
<path d="M63.1069 42.829L57.6484 45.963V45.502L63.1069 42.3697V42.829Z" fill="#54BF56"/>
<path d="M57.6486 52.2099L47.0723 46.1146V45.6553L57.6486 51.7489V52.2099Z" fill="#39823A"/>
<path d="M63.1069 49.0743L57.6484 52.2099V51.7489L63.1069 48.6149V49.0743Z" fill="#54BF56"/>
<path d="M51.0837 44.9661C51.0837 44.5361 50.7824 44.0149 50.411 43.8015C50.038 43.5865 49.7383 43.7608 49.7383 44.1892C49.7383 44.6192 50.0396 45.1404 50.411 45.3554C50.7824 45.5705 51.0837 45.3962 51.0837 44.9661Z" fill="#D1D1D1"/>
<path d="M51.6311 43.6451C51.6311 43.6451 50.4193 42.3844 49.6113 42.9692C52.0693 44.0931 51.2793 45.8344 50.8639 45.8165C50.8639 45.8165 52.5287 46.3638 52.2257 44.4009C52.2257 44.4009 52.1231 43.9937 52.7746 44.4498C52.154 43.2493 51.6311 43.6451 51.6311 43.6451Z" fill="#D1D1D1"/>
<path d="M47.0723 44.6453V43.9856L57.6486 50.0956V50.7781L47.0723 44.6453Z" fill="#D1D1D1"/>
<path d="M57.6486 39.1478L47.0723 33.0541V32.5948L57.6486 38.6901V39.1478Z" fill="#39823A"/>
<path d="M57.6486 38.6901L47.0723 32.5948L52.5307 29.4608L63.1071 35.5545L57.6486 38.6901Z" fill="#6CF56E"/>
<path d="M63.1052 41.7997L57.6484 44.9353V39.1478L63.1069 36.0139L63.1052 41.7997Z" fill="#6CF56E"/>
<path d="M63.1052 40.8272L57.6484 43.9628V43.2803L63.1069 40.1479L63.1052 40.8272Z" fill="white"/>
<path d="M57.6486 44.9353L47.0723 38.8399V33.0541L57.6486 39.1478V44.9353Z" fill="#58C95A"/>
<path d="M63.1069 36.0138L57.6484 39.1478V38.6901L63.1069 35.5545V36.0138Z" fill="#54BF56"/>
<path d="M57.6486 45.3946L47.0723 39.301V38.8416L57.6486 44.9353V45.3946Z" fill="#39823A"/>
<path d="M63.1069 42.259L57.6484 45.3946V44.9353L63.1069 41.7997V42.259Z" fill="#54BF56"/>
<path d="M51.0837 38.1542C51.0837 37.7242 50.7824 37.2029 50.411 36.9879C50.038 36.7729 49.7383 36.9472 49.7383 37.3756C49.7383 37.804 50.0396 38.3268 50.411 38.5419C50.7824 38.7569 51.0837 38.5809 51.0837 38.1542Z" fill="#D1D1D1"/>
<path d="M51.6311 36.8299C51.6311 36.8299 50.4193 35.5691 49.6113 36.1539C52.0693 37.2778 51.2793 39.0191 50.8639 39.0012C50.8639 39.0012 52.5287 39.5501 52.2257 37.5873C52.2257 37.5873 52.1231 37.1785 52.7746 37.6346C52.154 36.4341 51.6311 36.8299 51.6311 36.8299Z" fill="#D1D1D1"/>
<path d="M47.0723 37.8317V37.172L57.6486 43.2803V43.9628L47.0723 37.8317Z" fill="#D1D1D1"/>
<path d="M68.6662 52.2377L58.0898 46.144V45.6846L68.6662 51.7783V52.2377Z" fill="#39823A"/>
<path d="M68.6662 51.7782L58.0898 45.6846L63.5466 42.549L74.123 48.6443L68.6662 51.7782Z" fill="#6CF56E"/>
<path d="M74.1228 54.8894L68.666 58.0234V52.2376L74.1228 49.1052V54.8894Z" fill="#6CF56E"/>
<path d="M74.1228 53.9186L68.666 57.0526V56.3701L74.1228 53.2361V53.9186Z" fill="white"/>
<path d="M68.6662 58.0234L58.0898 51.9297V46.1439L68.6662 52.2376V58.0234Z" fill="#58C95A"/>
<path d="M74.1228 49.1053L68.666 52.2376V51.7783L74.1228 48.6443V49.1053Z" fill="#54BF56"/>
<path d="M68.6662 58.4844L58.0898 52.3891V51.9314L68.6662 58.0251V58.4844Z" fill="#39823A"/>
<path d="M74.1228 55.3504L68.666 58.4844V58.0251L74.1228 54.8895V55.3504Z" fill="#54BF56"/>
<path d="M62.1049 51.2424C62.1049 50.814 61.8019 50.2911 61.4322 50.0761C61.0592 49.8627 60.7578 50.037 60.7578 50.4654C60.7578 50.8954 61.0608 51.4167 61.4322 51.6317C61.8019 51.8451 62.1049 51.6724 62.1049 51.2424Z" fill="#D1D1D1"/>
<path d="M62.6523 49.9213C62.6523 49.9213 61.4404 48.6589 60.6309 49.2453C63.0905 50.3693 62.2988 52.1106 61.8835 52.0926C61.8835 52.0926 63.5482 52.64 63.2452 50.6771C63.2452 50.6771 63.1426 50.2699 63.7942 50.726C63.1752 49.5239 62.6523 49.9213 62.6523 49.9213Z" fill="#D1D1D1"/>
<path d="M58.0898 50.9215V50.2601L68.6662 56.3701V57.0526L58.0898 50.9215Z" fill="#D1D1D1"/>
<path d="M79.5376 58.5659L68.9629 52.4722V52.0129L79.5376 58.1065V58.5659Z" fill="#39823A"/>
<path d="M79.5376 58.1065L68.9629 52.0128L74.4181 48.8772L84.9944 54.9725L79.5376 58.1065Z" fill="#6CF56E"/>
<path d="M84.9939 61.2177L79.5371 64.3533V58.5659L84.9939 55.4319V61.2177Z" fill="#6CF56E"/>
<path d="M84.9939 60.2452L79.5371 63.3808V62.6983L84.9939 59.5643V60.2452Z" fill="white"/>
<path d="M79.5376 64.3533L68.9629 58.258V52.4722L79.5376 58.5658V64.3533Z" fill="#58C95A"/>
<path d="M84.9939 55.4319L79.5371 58.5659V58.1065L84.9939 54.9725V55.4319Z" fill="#54BF56"/>
<path d="M79.5376 64.8127L68.9629 58.719V58.2596L79.5376 64.3533V64.8127Z" fill="#39823A"/>
<path d="M84.9939 61.677L79.5371 64.8126V64.3533L84.9939 61.2177V61.677Z" fill="#54BF56"/>
<path d="M72.9705 57.5706C72.9705 57.1422 72.6675 56.6209 72.2977 56.4059C71.9247 56.1909 71.625 56.3652 71.625 56.7936C71.625 57.222 71.9263 57.7449 72.2977 57.9599C72.6691 58.1749 72.9705 57.999 72.9705 57.5706Z" fill="#D1D1D1"/>
<path d="M73.5195 56.2479C73.5195 56.2479 72.3076 54.9872 71.498 55.5719C73.9577 56.6959 73.166 58.4372 72.7523 58.4192C72.7523 58.4192 74.417 58.9682 74.1124 57.0037C74.1124 57.0037 74.0098 56.5965 74.6614 57.0526C74.044 55.8521 73.5195 56.2479 73.5195 56.2479Z" fill="#D1D1D1"/>
<path d="M68.9629 57.2497V56.5884L79.5376 62.6983V63.3808L68.9629 57.2497Z" fill="#D1D1D1"/>
<path d="M68.6662 45.424L58.0898 39.3287V38.8693L68.6662 44.9646V45.424Z" fill="#39823A"/>
<path d="M68.6662 44.9646L58.0898 38.8693L63.5466 35.7354L74.123 41.8307L68.6662 44.9646Z" fill="#6CF56E"/>
<path d="M74.1228 48.0759L68.666 51.2098V45.424L74.1228 42.29V48.0759Z" fill="#6CF56E"/>
<path d="M74.1228 47.1034L68.666 50.239V49.5565L74.1228 46.4225V47.1034Z" fill="white"/>
<path d="M68.6662 51.2098L58.0898 45.1145V39.3287L68.6662 45.424V51.2098Z" fill="#58C95A"/>
<path d="M74.1228 42.29L68.666 45.4239V44.9646L74.1228 41.8306V42.29Z" fill="#54BF56"/>
<path d="M68.6662 51.6708L58.0898 45.5771V45.1161L68.6662 51.2098V51.6708Z" fill="#39823A"/>
<path d="M74.1228 48.5352L68.666 51.6708V51.2098L74.1228 48.0759V48.5352Z" fill="#54BF56"/>
<path d="M62.1049 44.4287C62.1049 43.9987 61.8019 43.4758 61.4322 43.2624C61.0592 43.0474 60.7578 43.2217 60.7578 43.6501C60.7578 44.0801 61.0608 44.6014 61.4322 44.8164C61.8019 45.033 62.1049 44.8571 62.1049 44.4287Z" fill="#D1D1D1"/>
<path d="M62.6523 43.1061C62.6523 43.1061 61.4404 41.8453 60.6309 42.4301C63.0905 43.554 62.2988 45.2953 61.8835 45.2774C61.8835 45.2774 63.5482 45.8263 63.2452 43.8635C63.2452 43.8635 63.1426 43.4547 63.7942 43.9107C63.1752 42.7103 62.6523 43.1061 62.6523 43.1061Z" fill="#D1D1D1"/>
<path d="M58.0898 44.1062V43.4465L68.6662 49.5565V50.239L58.0898 44.1062Z" fill="#D1D1D1"/>
<path d="M91.1833 75.8354L78.7109 68.6471V67.3782L91.1833 74.5648V75.8354Z" fill="#4D3224"/>
<path d="M91.1833 74.5648L78.7109 67.3781L85.1467 63.6822L97.6191 70.8689L91.1833 74.5648Z" fill="#704935"/>
<path d="M96.6354 70.5756L96.2934 70.7694L85.4613 64.5324L80.0305 67.6469L79.6934 67.4514L85.4613 64.1382L96.6354 70.5756Z" fill="#2E1E15"/>
<path d="M96.2941 70.7695L90.8682 73.8888L80.0312 67.6469L85.462 64.5325L96.2941 70.7695Z" fill="#4F3425"/>
<path d="M97.6174 72.1377L91.1816 75.8353V74.5648L97.6174 70.8688V72.1377Z" fill="#7D513A"/>
<path d="M99.3122 71.1636L86.8398 63.977V62.7081L99.3122 69.8947V71.1636Z" fill="#4D3224"/>
<path d="M99.3122 69.8947L86.8398 62.7081L93.2756 59.0105L105.748 66.1988L99.3122 69.8947Z" fill="#704935"/>
<path d="M104.767 65.9056L104.425 66.101L93.5941 59.8624L88.1634 62.9768L87.8262 62.7814L93.5941 59.4682L104.767 65.9056Z" fill="#2E1E15"/>
<path d="M104.425 66.1011L98.9994 69.2188L88.1641 62.9769L93.5948 59.8624L104.425 66.1011Z" fill="#4F3425"/>
<path d="M105.746 67.4677L99.3105 71.1636V69.8947L105.746 66.1988V67.4677Z" fill="#7D513A"/>
<path d="M51.965 49.2323L41.3887 43.1354V42.676L51.965 48.7713V49.2323Z" fill="#873030"/>
<path d="M51.965 48.7713L41.3887 42.676L46.8454 39.5421L57.4234 45.6374L51.965 48.7713Z" fill="#A62626"/>
<path d="M57.4232 51.8825L51.9648 55.0165V49.2323L57.4232 46.0967V51.8825Z" fill="#A62626"/>
<path d="M57.4232 50.9101L51.9648 54.0457V53.3632L57.4232 50.2292V50.9101Z" fill="white"/>
<path d="M51.965 55.0165L41.3887 48.9212V43.1354L51.965 49.2323V55.0165Z" fill="#D63A3A"/>
<path d="M57.4232 46.0967L51.9648 49.2323V48.7714L57.4232 45.6374V46.0967Z" fill="#801D1D"/>
<path d="M51.965 55.4775L41.3887 49.3822V48.9229L51.965 55.0165V55.4775Z" fill="#873030"/>
<path d="M57.4232 52.3419L51.9648 55.4775V55.0165L57.4232 51.8825V52.3419Z" fill="#801D1D"/>
<path d="M45.4018 48.2355C45.4018 47.8055 45.0988 47.2842 44.729 47.0692C44.356 46.8542 44.0547 47.0285 44.0547 47.4569C44.0547 47.8869 44.3577 48.4081 44.7274 48.6232C45.0988 48.8382 45.4018 48.6639 45.4018 48.2355Z" fill="#D1D1D1"/>
<path d="M45.9492 46.9128C45.9492 46.9128 44.7373 45.652 43.9277 46.2368C46.3874 47.3607 45.5957 49.102 45.1803 49.0841C45.1803 49.0841 46.8451 49.633 46.5421 47.6702C46.5421 47.6702 46.4395 47.2614 47.091 47.7175C46.4721 46.517 45.9492 46.9128 45.9492 46.9128Z" fill="#D1D1D1"/>
<path d="M41.3887 47.9129V47.2532L51.965 53.3632V54.0457L41.3887 47.9129Z" fill="#D1D1D1"/>
<path d="M63.1857 55.7641L52.6094 49.6704V49.2111L63.1857 55.3047V55.7641Z" fill="#873030"/>
<path d="M63.1857 55.3048L52.6094 49.2111L58.0662 46.0755H58.0678L68.6425 52.1708L63.1857 55.3048Z" fill="#F55353"/>
<path d="M68.6404 58.4159L63.1836 61.5499V55.7641L68.6404 52.6301V58.4159Z" fill="#A62626"/>
<path d="M68.6404 57.4451L63.1836 60.5791V59.8982L68.6404 56.7626V57.4451Z" fill="white"/>
<path d="M63.1857 61.55L52.6094 55.4563V49.6705L63.1857 55.7641V61.55Z" fill="#D63A3A"/>
<path d="M68.6404 52.6302L63.1836 55.7642V55.3048L68.6404 52.1708V52.6302Z" fill="#801D1D"/>
<path d="M63.1857 62.011L52.6094 55.9156V55.4563L63.1857 61.5516V62.011Z" fill="#873030"/>
<path d="M68.6404 58.8753L63.1836 62.0109V61.5516L68.6404 58.416V58.8753Z" fill="#801D1D"/>
<path d="M56.6209 54.7689C56.6209 54.3389 56.3179 53.8176 55.9481 53.6026C55.5767 53.3876 55.2754 53.5635 55.2754 53.9919C55.2754 54.4219 55.5767 54.9432 55.9481 55.1582C56.3195 55.3716 56.6209 55.1989 56.6209 54.7689Z" fill="#D1D1D1"/>
<path d="M57.1683 53.4479C57.1683 53.4479 55.9564 52.1871 55.1484 52.7719C57.6064 53.8958 56.8148 55.6371 56.401 55.6192C56.401 55.6192 58.0658 56.1665 57.7612 54.2037C57.7612 54.2037 57.6586 53.7948 58.3101 54.2509C57.6928 53.0504 57.1683 53.4479 57.1683 53.4479Z" fill="#D1D1D1"/>
<path d="M52.6094 54.448V53.7883L63.1857 59.8982V60.5791L52.6094 54.448Z" fill="#D1D1D1"/>
<path d="M74.4107 62.2048L63.8359 56.1111V55.6517L74.4107 61.7454V62.2048Z" fill="#873030"/>
<path d="M74.4107 61.7454L63.8359 55.6517L69.2927 52.5161L79.8691 58.6098L74.4107 61.7454Z" fill="#F55353"/>
<path d="M79.8647 64.8566L74.4062 67.9906V62.2048L79.8647 59.0708V64.8566Z" fill="#A62626"/>
<path d="M79.8647 63.8857L74.4062 67.0181V66.3389L79.8647 63.2032V63.8857Z" fill="white"/>
<path d="M74.4084 67.9906L63.832 61.8969L63.8337 56.1111L74.4084 62.2048V67.9906Z" fill="#D63A3A"/>
<path d="M79.8647 59.0708L74.4062 62.2048V61.7454L79.8647 58.6098V59.0708Z" fill="#801D1D"/>
<path d="M74.4107 68.4516L63.8359 62.3563V61.8969L74.4107 67.9922V68.4516Z" fill="#873030"/>
<path d="M79.8647 65.3176L74.4062 68.4515V67.9922L79.8647 64.8566V65.3176Z" fill="#801D1D"/>
<path d="M67.8416 61.2095C67.8416 60.7795 67.5386 60.2582 67.1688 60.0432C66.7958 59.8282 66.4961 60.0041 66.4961 60.4309C66.4961 60.8609 66.7974 61.3821 67.1688 61.5972C67.5386 61.8122 67.8416 61.6395 67.8416 61.2095Z" fill="#D1D1D1"/>
<path d="M68.3906 59.8885C68.3906 59.8885 67.1787 58.6277 66.3691 59.2108C68.8288 60.3364 68.0371 62.0777 67.6218 62.0598C67.6218 62.0598 69.2881 62.6071 68.9819 60.6443C68.9819 60.6443 68.8793 60.2354 69.5308 60.6915C68.9135 59.491 68.3906 59.8885 68.3906 59.8885Z" fill="#D1D1D1"/>
<path d="M63.8359 60.8886V60.2289L74.4107 66.3389V67.0182L63.8359 60.8886Z" fill="#D1D1D1"/>
<path d="M51.965 42.4887L41.3887 36.3934V35.9341L51.965 42.0294V42.4887Z" fill="#873030"/>
<path d="M51.965 42.0294L41.3887 35.9341L46.8454 32.8001L57.4234 38.8938L51.965 42.0294Z" fill="#F55353"/>
<path d="M57.4232 45.139L51.9648 48.2746V42.4888L57.4232 39.3531V45.139Z" fill="#A62626"/>
<path d="M57.4232 44.1681L51.9648 47.3021V46.6212L57.4232 43.4856V44.1681Z" fill="white"/>
<path d="M51.965 48.2745L41.3887 42.1792V36.3934L51.965 42.4887V48.2745Z" fill="#D63A3A"/>
<path d="M57.4232 39.3531L51.9648 42.4887V42.0293L57.4232 38.8937V39.3531Z" fill="#801D1D"/>
<path d="M51.965 48.7339L41.3887 42.6402V42.1792L51.965 48.2745V48.7339Z" fill="#873030"/>
<path d="M57.4232 45.5999L51.9648 48.7339V48.2745L57.4232 45.1406V45.5999Z" fill="#801D1D"/>
<path d="M45.4018 41.4934C45.4018 41.0634 45.0988 40.5421 44.729 40.3271C44.356 40.1121 44.0547 40.2864 44.0547 40.7148C44.0547 41.1448 44.3577 41.6661 44.7274 41.8811C45.0988 42.0961 45.4018 41.9218 45.4018 41.4934Z" fill="#D1D1D1"/>
<path d="M45.9492 40.1691C45.9492 40.1691 44.7373 38.9084 43.9277 39.4931C46.3874 40.6171 45.5957 42.36 45.1803 42.3421C45.1803 42.3421 46.8451 42.8894 46.5421 40.9266C46.5421 40.9266 46.4395 40.5177 47.091 40.9738C46.4721 39.7733 45.9492 40.1691 45.9492 40.1691Z" fill="#D1D1D1"/>
<path d="M41.3887 41.1694V40.5113L51.965 46.6213V47.3021L41.3887 41.1694Z" fill="#D1D1D1"/>
</svg>
