<svg width="135" height="92" viewBox="0 0 135 92" fill="none" xmlns="http://www.w3.org/2000/svg">
<path d="M47.6258 76.1339C42.8385 73.4267 23.502 64.8717 23.502 70.0825C23.502 74.4561 37.512 82.4996 42.3009 85.4234C42.8026 85.2817 48.5201 76.6405 47.6258 76.1339Z" fill="white"/>
<path d="M23.502 70.0842C23.502 74.4577 44.1286 83.0224 44.2198 82.8921C45.1206 81.5434 46.1435 79.8933 46.8505 78.5544C47.5248 77.2806 23.502 64.8717 23.502 70.0842Z" fill="#CCCCCC"/>
<path d="M41.1621 82.9361C41.1621 85.3615 42.8366 86.3454 44.8987 85.1335C46.9642 83.9183 48.6371 80.9684 48.6371 78.543C48.6371 76.1176 46.9642 75.1354 44.8987 76.3473C42.8366 77.5575 41.1621 80.5107 41.1621 82.9361Z" fill="#BABABA"/>
<path d="M47.9487 79.0105C47.9487 80.9212 46.6309 83.2423 45.0085 84.1969C44.1876 84.679 43.4431 84.7181 42.9121 84.3923C43.3128 84.407 43.777 84.2767 44.2657 83.9867C45.8897 83.0322 47.2059 80.7078 47.2059 78.8004C47.2059 77.8589 46.8866 77.1927 46.3638 76.8766C47.3053 76.8962 47.9487 77.6764 47.9487 79.0105Z" fill="#545454"/>
<path d="M47.2033 78.8003C47.2033 80.7078 45.8872 83.0322 44.2632 83.9867C43.7745 84.2767 43.3102 84.407 42.9095 84.3923C42.3834 84.0796 42.0625 83.4101 42.0625 82.4686C42.0625 80.5579 43.3803 78.2367 45.0059 77.2789C45.4962 76.9923 45.9572 76.8619 46.3611 76.875C46.884 77.191 47.2033 77.8572 47.2033 78.8003Z" fill="#707070"/>
<path d="M45.4285 79.5822C45.4285 80.307 44.9284 81.1899 44.3111 81.5499C44.1287 81.6574 43.9511 81.7111 43.7996 81.703C43.4396 81.6965 43.1953 81.4 43.1953 80.8934C43.1953 80.1702 43.6954 79.2874 44.3127 78.9257C44.6255 78.7417 44.904 78.7286 45.1076 78.8508C45.3047 78.9714 45.4285 79.2255 45.4285 79.5822Z" fill="#ADADAD"/>
<path d="M46.6635 75.8293C44.7512 75.9433 40.1675 79.8787 41.5895 84.723C40.332 83.4199 41.7491 76.1942 46.6635 75.8293Z" fill="white"/>
<path d="M44.7899 79.4568C44.6498 79.3656 44.583 79.2141 44.6433 79.1196C44.7036 79.0268 44.8665 79.0268 45.0065 79.1196C45.1483 79.2157 45.2134 79.3656 45.1531 79.4601C45.0929 79.5529 44.93 79.5529 44.7899 79.4568Z" fill="white"/>
<path d="M66.1457 71.4721C61.3584 68.7665 42.0234 60.2115 42.0234 65.4256C42.0234 69.7959 56.0319 77.841 60.8192 80.7649C61.3225 80.6215 67.0399 71.9786 66.1457 71.4721Z" fill="white"/>
<path d="M42.0273 65.4239C42.0273 69.7942 62.6556 78.3606 62.7452 78.227C63.6459 76.8783 64.6705 75.2299 65.3742 73.8942C66.0502 72.6204 42.0273 60.2115 42.0273 65.4239Z" fill="#CCCCCC"/>
<path d="M59.6797 78.2742C59.6797 80.6997 61.3542 81.6851 63.4196 80.47C65.4818 79.2565 67.1547 76.3065 67.1547 73.8779C67.1547 71.4525 65.4818 70.4686 63.4196 71.6805C61.3542 72.8989 59.6797 75.8472 59.6797 78.2742Z" fill="#BABABA"/>
<path d="M66.4662 74.3503C66.4662 76.2594 65.1484 78.5822 63.5277 79.5367C62.7018 80.0205 61.9607 80.0596 61.4297 79.7322C61.8304 79.7452 62.2963 79.6149 62.7882 79.3266C64.4073 78.3721 65.7251 76.0493 65.7251 74.1402C65.7251 73.1987 65.4042 72.5325 64.8813 72.2148C65.8228 72.236 66.4662 73.0179 66.4662 74.3503Z" fill="#545454"/>
<path d="M65.7264 74.1385C65.7264 76.0476 64.4086 78.3704 62.7895 79.3249C62.2976 79.6132 61.8317 79.7436 61.431 79.7305C60.9065 79.4145 60.584 78.7467 60.584 77.8068C60.584 75.8961 61.9017 73.5749 63.529 72.6204C64.0177 72.3321 64.4786 72.2018 64.8826 72.2116C65.4038 72.5308 65.7264 73.197 65.7264 74.1385Z" fill="#707070"/>
<path d="M63.9487 74.922C63.9487 75.6452 63.4486 76.5265 62.8345 76.8881C62.6472 76.9972 62.4697 77.0477 62.3198 77.0412C61.9599 77.0347 61.7188 76.7382 61.7188 76.23C61.7188 75.5068 62.2172 74.6256 62.8362 74.2656C63.1457 74.0831 63.4275 74.0669 63.6294 74.1923C63.8265 74.3112 63.9487 74.5653 63.9487 74.922Z" fill="#ADADAD"/>
<path d="M65.1849 71.1658C63.2709 71.2815 58.6872 75.2185 60.106 80.0628C58.8501 78.7581 60.2689 71.534 65.1849 71.1658Z" fill="white"/>
<path d="M63.3099 74.7966C63.1665 74.7038 63.1046 74.5523 63.1665 74.4578C63.2251 74.3633 63.388 74.3633 63.5265 74.4578C63.6682 74.5539 63.7334 74.7038 63.6731 74.7966C63.6144 74.8927 63.4516 74.8927 63.3099 74.7966Z" fill="white"/>
<path d="M107.6 44.9407C102.811 42.2351 83.4766 33.6802 83.4766 38.8942C83.4766 43.2645 97.4866 51.3129 102.274 54.2351C102.777 54.0934 108.495 45.4505 107.6 44.9407Z" fill="white"/>
<path d="M83.4766 38.8942C83.4766 43.2646 104.105 51.8309 104.196 51.6989C105.095 50.3486 106.118 48.7001 106.823 47.3645C107.498 46.0923 83.4766 33.6802 83.4766 38.8942Z" fill="#CCCCCC"/>
<path d="M101.137 51.7462C101.137 54.1716 102.806 55.1555 104.873 53.9436C106.937 52.7284 108.607 49.7785 108.607 47.3531C108.607 44.926 106.934 43.9406 104.873 45.1541C102.806 46.3692 101.137 49.3175 101.137 51.7462Z" fill="#BABABA"/>
<path d="M107.919 47.8205C107.919 49.7312 106.601 52.0524 104.979 53.0086C104.158 53.4907 103.412 53.5298 102.881 53.2024C103.285 53.2154 103.749 53.0851 104.239 52.7984C105.863 51.8439 107.18 49.5195 107.18 47.6104C107.18 46.6673 106.859 46.0011 106.336 45.6867C107.277 45.7046 107.919 46.4881 107.919 47.8205Z" fill="#545454"/>
<path d="M107.18 47.6088C107.18 49.5179 105.863 51.8423 104.239 52.7968C103.749 53.0835 103.285 53.2138 102.881 53.2008C102.358 52.8864 102.037 52.2186 102.037 51.2771C102.037 49.368 103.353 47.0468 104.979 46.0907C105.472 45.804 105.932 45.6721 106.336 45.6851C106.859 45.9995 107.18 46.6673 107.18 47.6088Z" fill="#707070"/>
<path d="M105.4 48.3923C105.4 49.1155 104.903 49.9968 104.284 50.36C104.102 50.4708 103.926 50.5213 103.771 50.5147C103.414 50.5066 103.17 50.2101 103.17 49.7052C103.17 48.9803 103.67 48.1007 104.284 47.7391C104.598 47.5551 104.877 47.5388 105.082 47.6626C105.279 47.7831 105.4 48.0339 105.4 48.3923Z" fill="#ADADAD"/>
<path d="M106.635 44.6377C104.723 44.755 100.136 48.6904 101.561 53.5331C100.302 52.2283 101.719 45.0026 106.635 44.6377Z" fill="white"/>
<path d="M104.761 48.2669C104.621 48.1724 104.554 48.0209 104.614 47.9281C104.674 47.8352 104.837 47.8352 104.979 47.9281C105.121 48.0242 105.184 48.1741 105.124 48.2669C105.064 48.3614 104.901 48.3614 104.761 48.2669Z" fill="white"/>
<path d="M115.048 32.149C110.261 29.4434 90.9258 20.8868 90.9258 26.1025C90.9258 30.4729 104.937 38.5179 109.722 41.4418C110.228 41.2984 115.946 32.6572 115.048 32.149Z" fill="white"/>
<path d="M90.9258 26.1025C90.9258 30.4728 111.554 39.0408 111.644 38.9056C112.544 37.5569 113.569 35.9068 114.274 34.5727C114.949 33.2957 90.9258 20.8868 90.9258 26.1025Z" fill="#CCCCCC"/>
<path d="M108.582 38.9529C108.582 41.3783 110.255 42.3638 112.32 41.1486C114.383 39.9335 116.055 36.9852 116.055 34.5581C116.055 32.1311 114.383 31.1505 112.32 32.3624C110.255 33.5743 108.582 36.5242 108.582 38.9529Z" fill="#BABABA"/>
<path d="M115.369 35.0256C115.369 36.9363 114.051 39.2591 112.428 40.2136C111.607 40.6974 110.863 40.7365 110.332 40.4074C110.736 40.4221 111.199 40.2918 111.691 40.0035C113.31 39.049 114.627 36.7261 114.627 34.8171C114.627 33.8772 114.31 33.2094 113.784 32.8934C114.728 32.9113 115.369 33.6932 115.369 35.0256Z" fill="#545454"/>
<path d="M114.629 34.8155C114.629 36.7245 113.312 39.0473 111.693 40.0018C111.201 40.2902 110.738 40.4205 110.334 40.4058C109.81 40.0931 109.49 39.4252 109.49 38.4837C109.49 36.5747 110.805 34.2519 112.43 33.2941C112.922 33.0074 113.382 32.8771 113.786 32.8917C114.312 33.2077 114.629 33.8756 114.629 34.8155Z" fill="#707070"/>
<path d="M112.849 35.599C112.849 36.3222 112.349 37.2034 111.735 37.5667C111.549 37.6758 111.373 37.7263 111.22 37.7198C110.862 37.7116 110.619 37.4136 110.619 36.9086C110.619 36.1854 111.119 35.3041 111.737 34.9425C112.048 34.7601 112.328 34.7422 112.531 34.8676C112.729 34.9881 112.849 35.2406 112.849 35.599Z" fill="#ADADAD"/>
<path d="M114.086 31.8428C112.172 31.9584 107.585 35.8954 109.01 40.7381C107.751 39.4367 109.168 32.2109 114.086 31.8428Z" fill="white"/>
<path d="M112.211 35.4752C112.072 35.3839 112.007 35.2308 112.067 35.138C112.126 35.0419 112.289 35.0435 112.431 35.138C112.571 35.2308 112.638 35.3839 112.574 35.4752C112.515 35.568 112.351 35.568 112.211 35.4752Z" fill="white"/>
<path d="M54.3264 33.7306L66.4991 17.5004C66.5773 17.4173 66.6148 17.3277 66.6148 17.2316V16.4221L53.6797 30.8377L43.3086 27.3144V28.1207L54.3264 33.7306Z" fill="#D18C00"/>
<path d="M54.3264 32.926L66.4991 16.6957C66.7239 16.4628 66.618 16.1435 66.2499 15.9318L63.0768 14.0618C62.6012 13.7865 61.8828 13.7767 61.5245 14.0439L43.3086 27.3161L54.3264 32.926Z" fill="#FFAA00"/>
<path d="M52.7655 31.3948L61.0142 19.8932C61.1266 19.7743 61.0762 19.6114 60.8872 19.5023L59.2681 18.5478C59.027 18.4044 58.6572 18.4028 58.4748 18.5364L46.2793 27.5816L52.7655 31.3948Z" fill="white"/>
<path d="M66.0985 16.5948C66.3102 16.4123 54.2598 32.3722 54.2598 32.3722C54.2598 32.3722 61.6647 21.5417 66.0985 16.5948Z" fill="white"/>
<path d="M90.5608 56.5026L118.353 19.4486C118.527 19.2645 118.614 19.056 118.617 18.841V16.9955L88.0882 52.3668L65.4141 41.8605V43.6979L90.5608 56.5026Z" fill="#D18C00"/>
<path d="M90.5608 54.6652L118.353 17.6112C118.86 17.0802 118.623 16.3602 117.783 15.8683L110.533 11.6039C109.458 10.9718 107.811 10.9507 106.988 11.5599L65.4141 41.8605L90.5608 54.6652Z" fill="#FFAA00"/>
<path d="M86.995 51.1696L105.833 24.9103C106.092 24.6399 105.972 24.2718 105.542 24.0209L101.837 21.8431C101.29 21.5206 100.45 21.5075 100.031 21.817L72.1934 42.4632L86.995 51.1696Z" fill="white"/>
<path d="M57.6046 39.4855L50.0986 46.1754L21.1484 22.7308L31.7818 16.4758L57.6046 39.4855Z" fill="#C4BDA8"/>
<path d="M116.879 65.4728C112.984 60.8272 50.9529 26.1824 35.3546 17.8734C28.0149 13.5227 19.5169 12.0665 16.0539 14.7248C12.6724 19.4926 19.3704 28.9108 28.0149 36.7555C50.3698 53.4419 102.307 89.3996 129.219 91.8771C132.917 92.3251 135.434 88.1519 133.355 85.0065C127.84 76.6454 116.879 65.4728 116.879 65.4728Z" fill="white"/>
<path d="M17.5234 22.3252C19.6003 27.119 24.2459 32.4585 28.6292 36.4363C50.9873 53.121 100.403 86.8748 127.718 90.9324C131.415 91.3819 61.5588 63.9026 17.5234 22.3252Z" fill="#CCCCCC"/>
<path d="M43.3086 23.77C97.1059 56.5074 122.013 72.78 114.934 65.3148C105.205 58.0044 55.3656 28.6306 43.3086 23.77Z" fill="#E0E0E0"/>
<path d="M85.2895 65.1356C85.2471 65.4484 85.0044 65.5706 84.7015 65.3946L84.0776 65.0265C83.7486 64.8213 83.4766 64.3587 83.4766 63.9661V62.2346C83.4766 61.9495 83.6264 61.7866 83.8447 61.798C83.8316 61.842 83.8316 61.8811 83.8316 61.9218V63.6517C83.8316 64.0345 84.1021 64.5101 84.4311 64.7024L85.0598 65.0689C85.1396 65.108 85.2211 65.1356 85.2895 65.1356Z" fill="url(#paint0_linear_189_17016)"/>
<path d="M85.3026 63.308V65.0379C85.3026 65.0672 85.3026 65.1096 85.2896 65.1357C85.2211 65.1357 85.1381 65.108 85.0583 65.0656L84.4295 64.6991C84.1005 64.5069 83.8301 64.0313 83.8301 63.6485V61.9186C83.8301 61.8779 83.8301 61.8388 83.8431 61.7948C83.9131 61.7948 83.993 61.8241 84.076 61.8779L84.6999 62.246C85.0273 62.4366 85.3026 62.9155 85.3026 63.308Z" fill="url(#paint1_linear_189_17016)"/>
<path d="M89.1984 67.4519C89.1447 67.75 88.8987 67.8591 88.6153 67.6816L87.9865 67.3151C87.6591 67.1245 87.3887 66.6472 87.3887 66.2645V64.5362C87.3887 64.2349 87.5385 64.085 87.7552 64.0997C87.7422 64.1404 87.7422 64.1811 87.7422 64.2218V65.9403C87.7422 66.3329 88.0142 66.8118 88.3563 67.0007L88.9687 67.3688C89.0485 67.4096 89.1316 67.4356 89.1984 67.4519Z" fill="url(#paint2_linear_189_17016)"/>
<path d="M89.2163 65.6129V67.3265C89.2163 67.3688 89.2164 67.4079 89.2001 67.4519C89.1333 67.4356 89.0502 67.4079 88.9688 67.3688L88.3563 67.0007C88.0142 66.8118 87.7422 66.3329 87.7422 65.9403V64.2218C87.7422 64.1811 87.7422 64.1404 87.7552 64.0997C87.8253 64.1143 87.9051 64.1404 87.9882 64.1811L88.6169 64.5492C88.9427 64.7398 89.2163 65.2171 89.2163 65.6129Z" fill="url(#paint3_linear_189_17016)"/>
<path d="M93.1066 69.7405C93.0691 70.0533 92.8231 70.1608 92.5218 69.9849L91.8946 69.6151C91.5672 69.4262 91.2969 68.9489 91.2969 68.5547V66.8362C91.2969 66.5381 91.4597 66.3736 91.678 66.4143C91.6633 66.4551 91.6633 66.4827 91.6633 66.5267L91.6487 68.2403C91.6487 68.6361 91.9191 69.1134 92.2628 69.304L92.8769 69.6721C92.9567 69.7128 93.0398 69.7405 93.1066 69.7405Z" fill="url(#paint4_linear_189_17016)"/>
<path d="M93.1213 67.9015V69.633C93.1213 69.6721 93.1213 69.7144 93.1083 69.7405C93.0415 69.7405 92.9584 69.7128 92.8786 69.6721L92.2645 69.304C91.9208 69.1134 91.6504 68.6361 91.6504 68.2403L91.6651 66.5267C91.6651 66.4827 91.6651 66.455 91.6797 66.4143C91.7465 66.4143 91.8133 66.4436 91.8964 66.4827L92.5235 66.8541C92.8509 67.0431 93.1213 67.5187 93.1213 67.9015Z" fill="url(#paint5_linear_189_17016)"/>
<path d="M81.3797 62.8471C81.339 63.1598 81.0914 63.2706 80.7933 63.093L80.1662 62.7233C79.8404 62.5343 79.5684 62.0554 79.5684 61.6629V59.9313C79.5684 59.6463 79.7182 59.4818 79.9365 59.4948C79.9218 59.5372 79.9218 59.5779 79.9218 59.617V61.3485C79.9218 61.7443 80.1955 62.2069 80.5213 62.4138L81.1467 62.7803C81.2282 62.8177 81.3113 62.8471 81.3797 62.8471Z" fill="url(#paint6_linear_189_17016)"/>
<path d="M81.3928 61.008V62.7395C81.3928 62.7786 81.3928 62.8193 81.3814 62.847C81.3129 62.847 81.2299 62.8177 81.1468 62.7786L80.5213 62.4121C80.1955 62.2069 79.9219 61.7426 79.9219 61.3468V59.6169C79.9219 59.5778 79.9219 59.5371 79.9365 59.4948C80.005 59.4948 80.088 59.5224 80.1678 59.5778L80.795 59.946C81.1224 60.1496 81.3928 60.6252 81.3928 61.008Z" fill="url(#paint7_linear_189_17016)"/>
<path d="M77.4705 60.5585C77.4135 60.8566 77.1675 60.9527 76.8825 60.7881L76.2537 60.4216C75.9279 60.2327 75.6543 59.7538 75.6543 59.3596V57.6428C75.6543 57.3414 75.8074 57.1785 76.0257 57.2062C76.011 57.2469 76.011 57.2746 76.011 57.3137V59.0452C76.011 59.4411 76.283 59.9167 76.6088 60.1056L77.2359 60.4738C77.3174 60.5178 77.4004 60.5471 77.4705 60.5585Z" fill="url(#paint8_linear_189_17016)"/>
<path d="M77.4787 58.7032V60.4347C77.4787 60.4754 77.4787 60.5178 77.4689 60.5585C77.3989 60.5471 77.3158 60.5178 77.2328 60.4754L76.6056 60.1073C76.2798 59.9184 76.0078 59.4411 76.0078 59.0469V57.3154C76.0078 57.2763 76.0078 57.2486 76.0225 57.2079C76.0876 57.2225 76.1707 57.2486 76.2521 57.291L76.8809 57.6444C77.2083 57.8464 77.4787 58.322 77.4787 58.7032Z" fill="url(#paint9_linear_189_17016)"/>
<path d="M73.5555 58.2422C73.5164 58.5566 73.2688 58.6771 72.9707 58.4881L72.3436 58.12C72.0032 57.9278 71.7441 57.4538 71.7441 57.071V55.3395C71.7441 55.0398 71.8956 54.8899 72.1155 54.9176C72.0976 54.9583 72.0976 54.986 72.0976 55.0251V56.742C72.0976 57.1394 72.3697 57.6151 72.6971 57.8073L73.3242 58.1738C73.4072 58.2145 73.4887 58.2422 73.5555 58.2422Z" fill="url(#paint10_linear_189_17016)"/>
<path d="M73.5718 56.4162V58.1347C73.5718 58.1737 73.5718 58.2014 73.5571 58.2422C73.4903 58.2422 73.4089 58.2145 73.3242 58.1738L72.6971 57.8073C72.3697 57.615 72.0977 57.1394 72.0977 56.742V55.0251C72.0977 54.986 72.0977 54.9583 72.1156 54.9176C72.1824 54.9176 72.2654 54.9469 72.3453 54.986L72.9724 55.3525C73.2998 55.5447 73.5718 56.022 73.5718 56.4162Z" fill="url(#paint11_linear_189_17016)"/>
<path d="M69.6495 55.9536C69.5958 56.2533 69.3498 56.3624 69.0517 56.1865L68.4377 55.8314C68.0956 55.6262 67.8398 55.1489 67.8398 54.7678V53.0395C67.8398 52.7382 67.9864 52.5883 68.2079 52.603C68.1933 52.6421 68.1933 52.6828 68.1933 52.7251V54.455C68.1933 54.8362 68.4669 55.3134 68.7911 55.504L69.4182 55.8738C69.4997 55.9112 69.5795 55.9389 69.6495 55.9536Z" fill="url(#paint12_linear_189_17016)"/>
<path d="M69.6659 54.1129V55.8314C69.6659 55.8721 69.6658 55.9129 69.6496 55.9536C69.5795 55.9389 69.4997 55.9129 69.4183 55.8721L68.7911 55.5024C68.467 55.3134 68.1934 54.8345 68.1934 54.4534V52.7235C68.1934 52.6811 68.1933 52.6404 68.208 52.6013C68.2748 52.6143 68.3595 52.6404 68.4393 52.6811L69.0534 53.0509C69.3922 53.2415 69.6659 53.7187 69.6659 54.1129Z" fill="url(#paint13_linear_189_17016)"/>
<path d="M65.7244 53.6357C65.6967 53.9484 65.4524 54.0722 65.1412 53.8979L64.5272 53.5282C64.1867 53.3246 63.9277 52.8603 63.9277 52.4662V50.7346C63.9277 50.448 64.0759 50.2883 64.2958 50.3128C64.2828 50.3404 64.2828 50.3812 64.2828 50.4235V52.1518C64.2828 52.5346 64.5565 53.0135 64.8806 53.2154L65.5094 53.5689C65.5876 53.6113 65.656 53.6357 65.7244 53.6357Z" fill="url(#paint14_linear_189_17016)"/>
<path d="M65.7391 51.8097V53.5412C65.7391 53.5689 65.7391 53.6112 65.7244 53.6373C65.656 53.6373 65.5876 53.6112 65.5078 53.5689L64.8791 53.2154C64.5549 53.0135 64.2813 52.5362 64.2813 52.1518V50.4235C64.2813 50.3828 64.2812 50.3404 64.2943 50.3127C64.3611 50.3127 64.4458 50.3404 64.5272 50.3812L65.1413 50.7493C65.4801 50.9529 65.7391 51.4155 65.7391 51.8097Z" fill="url(#paint15_linear_189_17016)"/>
<path d="M61.8152 51.3487C61.7761 51.6599 61.5285 51.769 61.2304 51.5931L60.6033 51.225C60.2743 51.0327 60.0039 50.5571 60.0039 50.1613V48.4314C60.0039 48.1447 60.1668 47.9802 60.3834 47.9949C60.3688 48.034 60.3688 48.0763 60.3688 48.1187V49.8485C60.3688 50.2444 60.644 50.707 60.9698 50.9122L61.5986 51.2787C61.6784 51.3211 61.7468 51.3487 61.8152 51.3487Z" fill="url(#paint16_linear_189_17016)"/>
<path d="M61.8303 49.5098V51.238C61.8303 51.2804 61.8303 51.3211 61.8156 51.3488C61.7472 51.3488 61.6788 51.3211 61.599 51.2804L60.9702 50.9139C60.6444 50.7086 60.3691 50.246 60.3691 49.8502V48.1203C60.3691 48.0796 60.3691 48.0372 60.3838 47.9965C60.4538 48.0096 60.5206 48.0356 60.6037 48.078L61.2308 48.4461C61.5712 48.6513 61.8303 49.127 61.8303 49.5098Z" fill="url(#paint17_linear_189_17016)"/>
<path d="M57.9054 49.0602C57.8647 49.3599 57.6187 49.4528 57.3174 49.2915L56.6919 48.925C56.3661 48.7328 56.0957 48.2555 56.0957 47.8597V46.1445C56.0957 45.8431 56.2586 45.6786 56.4752 45.7079C56.4622 45.747 56.4622 45.778 56.4622 45.8155V47.547C56.4622 47.9411 56.7196 48.4184 57.0633 48.6106L57.6904 48.9787C57.7686 49.0178 57.8354 49.0455 57.9054 49.0602Z" fill="url(#paint18_linear_189_17016)"/>
<path d="M57.9188 47.2065V48.938C57.9188 48.9788 57.9188 49.0178 57.9058 49.0602C57.8358 49.0455 57.7689 49.0178 57.6891 48.9787L57.062 48.6106C56.7183 48.4184 56.4609 47.9411 56.4609 47.547V45.8155C56.4609 45.7764 56.461 45.747 56.474 45.7079C56.5441 45.721 56.6108 45.747 56.6922 45.7878L57.3177 46.1575C57.6598 46.3481 57.9188 46.8254 57.9188 47.2065Z" fill="url(#paint19_linear_189_17016)"/>
<path d="M53.9953 46.7439C53.9546 47.0534 53.7086 47.1788 53.4072 46.9866L52.7834 46.6185C52.4559 46.4295 52.1855 45.9523 52.1855 45.5695V43.838C52.1855 43.5383 52.3484 43.3754 52.5651 43.4161C52.552 43.4568 52.5521 43.4845 52.5521 43.5269V45.2437C52.5521 45.6379 52.8111 46.1168 53.1531 46.3057L53.764 46.6722C53.8454 46.7178 53.9269 46.7439 53.9953 46.7439Z" fill="url(#paint20_linear_189_17016)"/>
<path d="M54.0087 44.9179V46.6331C54.0087 46.6722 54.0087 46.6999 53.9956 46.7439C53.9272 46.7439 53.8441 46.7162 53.7627 46.6722L53.1519 46.3057C52.8098 46.1168 52.5508 45.6379 52.5508 45.2437V43.5268C52.5508 43.4861 52.5508 43.4584 52.5639 43.4161C52.6306 43.4161 52.7006 43.4438 52.7837 43.4845L53.4076 43.851C53.7366 44.0448 54.0087 44.5221 54.0087 44.9179Z" fill="url(#paint21_linear_189_17016)"/>
<path d="M50.086 44.4552C50.0307 44.7566 49.7814 44.8657 49.498 44.6866L48.8693 44.3331C48.5451 44.1295 48.2715 43.6522 48.2715 43.2727V41.5412C48.2715 41.2415 48.423 41.0932 48.6412 41.1046C48.6249 41.147 48.6249 41.1877 48.6249 41.2284V42.9599C48.6249 43.3411 48.8986 43.8167 49.2407 44.0089L49.8531 44.3771C49.9345 44.4129 50.0176 44.4422 50.086 44.4552Z" fill="url(#paint22_linear_189_17016)"/>
<path d="M50.0991 42.6146V44.3315C50.0991 44.3722 50.0991 44.4129 50.0877 44.4553C50.0193 44.4422 49.9363 44.4145 49.8532 44.3738L49.2407 44.0057C48.8986 43.8135 48.625 43.3378 48.625 42.9567V41.2252C48.625 41.1845 48.625 41.1437 48.6413 41.1014C48.708 41.1177 48.7911 41.1437 48.871 41.1845L49.4997 41.5526C49.8255 41.7448 50.0991 42.2204 50.0991 42.6146Z" fill="url(#paint23_linear_189_17016)"/>
<path d="M118.609 71.2538L125.36 78.4095C126.283 77.253 126.555 76.1372 126.555 76.1372C126.555 76.1372 122.722 71.5454 119.961 68.7192C119.961 68.7192 120.022 69.8692 118.609 71.2538Z" fill="url(#paint24_linear_189_17016)"/>
<path d="M118.214 71.6105C117.113 72.5423 115.323 73.544 112.402 74.3585L113.132 79.4944C119.703 82.2097 123.156 80.7079 124.902 78.9275L118.214 71.6105Z" fill="url(#paint25_linear_189_17016)"/>
<path d="M111.69 74.5458C110.1 74.9465 108.21 75.2918 105.951 75.5476C108.365 77.1553 110.504 78.3297 112.395 79.1751L111.69 74.5458Z" fill="url(#paint26_linear_189_17016)"/>
<path d="M34.7362 3.88939C34.3892 2.98699 33.7523 2.18232 33.0666 1.77835L30.4945 0.265112C29.9326 -0.065552 29.4309 -0.0736925 29.0774 0.167383L29.0725 0.162493L27.0918 1.32226L29.0204 3.50171L29.281 2.87134L42.2339 26.1091L34.7362 3.88939Z" fill="#BABABA"/>
<path d="M31.0283 2.9772L28.4546 1.46559C27.3861 0.836841 26.5195 1.34668 26.5195 2.60582V18.2741L42.2334 26.1139L32.7011 5.0915C32.3509 4.18747 31.719 3.3828 31.0283 2.9772Z" fill="white"/>
<path d="M38.557 18.007L26.5195 10.9392V7.76941L36.4101 13.2669L38.557 18.007Z" fill="#FFAA00"/>
<path d="M39.3112 17.4467L38.557 18.007L36.4102 13.2669L37.6612 12.5535L39.3112 17.4467Z" fill="#D18C00"/>
<path d="M77.3932 65.3148L11.0534 82.4589C10.1478 82.7553 8.92121 82.6185 8.08559 82.1266L0.832147 77.8622C0.294614 77.5462 0.014479 77.1455 0.0014479 76.7659C-0.00180988 76.6763 0.0014479 75.1989 0.0014479 75.1989C0.0828923 74.9155 0.354888 75.9661 0.755594 75.7821L11.4069 78.4013L77.3932 64.0378V65.3148Z" fill="#D18C00"/>
<path d="M77.3922 64.0361L11.0524 80.9326C10.1467 81.2323 8.92019 81.0938 8.08457 80.6003L0.831121 76.3359C-0.243946 75.7039 -0.283035 74.7347 0.754568 74.2541L52.7389 49.5439L77.3922 64.0361Z" fill="#FFAA00"/>
<path d="M68.7902 62.1092L24.131 73.184C23.67 73.3355 23.0428 73.2638 22.6128 73.013L18.912 70.84C18.3614 70.5143 18.3419 70.0191 18.8713 69.7731L53.9852 53.4077L68.7902 62.1092Z" fill="white"/>
<path d="M41.197 41.6551L12.1343 49.1627C11.7369 49.293 11.2043 49.2344 10.8329 49.0161L7.65979 47.151C7.42197 47.0109 7.29981 46.835 7.29492 46.6672C7.29492 46.6314 7.29492 45.9815 7.29492 45.9815C7.33076 45.8561 7.44966 46.3154 7.62395 46.2372L11.8444 47.8808L41.197 41.0916V41.6551Z" fill="#D18C00"/>
<path d="M41.1972 41.0916L12.1346 48.4965C11.7371 48.6268 11.2045 48.5665 10.8331 48.3499L7.66007 46.4832C7.18769 46.2046 7.1714 45.7828 7.62423 45.571L30.3993 34.7438L41.1972 41.0916Z" fill="#FFAA00"/>
<path d="M37.4278 40.2495L17.8665 45.1019C17.6612 45.1671 17.3892 45.1361 17.2035 45.027L15.5779 44.0741C15.3401 43.934 15.3319 43.7125 15.5632 43.6082L30.9432 36.4362L37.4278 40.2495Z" fill="white"/>
<defs>
<linearGradient id="paint0_linear_189_17016" x1="83.4767" y1="63.6358" x2="85.2901" y2="63.6358" gradientUnits="userSpaceOnUse">
<stop stop-color="#52B4FF"/>
<stop offset="1" stop-color="#175688"/>
</linearGradient>
<linearGradient id="paint1_linear_189_17016" x1="83.8315" y1="63.4662" x2="85.303" y2="63.4662" gradientUnits="userSpaceOnUse">
<stop stop-color="#52B4FF"/>
<stop offset="1" stop-color="#175688"/>
</linearGradient>
<linearGradient id="paint2_linear_189_17016" x1="87.3879" y1="65.9332" x2="89.1981" y2="65.9332" gradientUnits="userSpaceOnUse">
<stop stop-color="#52B4FF"/>
<stop offset="1" stop-color="#175688"/>
</linearGradient>
<linearGradient id="paint3_linear_189_17016" x1="87.7427" y1="65.776" x2="89.2157" y2="65.776" gradientUnits="userSpaceOnUse">
<stop stop-color="#52B4FF"/>
<stop offset="1" stop-color="#175688"/>
</linearGradient>
<linearGradient id="paint4_linear_189_17016" x1="91.2967" y1="68.2393" x2="93.1069" y2="68.2393" gradientUnits="userSpaceOnUse">
<stop stop-color="#52B4FF"/>
<stop offset="1" stop-color="#175688"/>
</linearGradient>
<linearGradient id="paint5_linear_189_17016" x1="91.6515" y1="68.0776" x2="93.1213" y2="68.0776" gradientUnits="userSpaceOnUse">
<stop stop-color="#52B4FF"/>
<stop offset="1" stop-color="#175688"/>
</linearGradient>
<linearGradient id="paint6_linear_189_17016" x1="79.5679" y1="61.3353" x2="81.3797" y2="61.3353" gradientUnits="userSpaceOnUse">
<stop stop-color="#52B4FF"/>
<stop offset="1" stop-color="#175688"/>
</linearGradient>
<linearGradient id="paint7_linear_189_17016" x1="79.9227" y1="61.1702" x2="81.3925" y2="61.1702" gradientUnits="userSpaceOnUse">
<stop stop-color="#52B4FF"/>
<stop offset="1" stop-color="#175688"/>
</linearGradient>
<linearGradient id="paint8_linear_189_17016" x1="75.6532" y1="59.0353" x2="77.4698" y2="59.0353" gradientUnits="userSpaceOnUse">
<stop stop-color="#52B4FF"/>
<stop offset="1" stop-color="#175688"/>
</linearGradient>
<linearGradient id="paint9_linear_189_17016" x1="76.0096" y1="58.8821" x2="77.4794" y2="58.8821" gradientUnits="userSpaceOnUse">
<stop stop-color="#52B4FF"/>
<stop offset="1" stop-color="#175688"/>
</linearGradient>
<linearGradient id="paint10_linear_189_17016" x1="71.744" y1="56.746" x2="73.5558" y2="56.746" gradientUnits="userSpaceOnUse">
<stop stop-color="#52B4FF"/>
<stop offset="1" stop-color="#175688"/>
</linearGradient>
<linearGradient id="paint11_linear_189_17016" x1="72.0988" y1="56.5796" x2="73.5718" y2="56.5796" gradientUnits="userSpaceOnUse">
<stop stop-color="#52B4FF"/>
<stop offset="1" stop-color="#175688"/>
</linearGradient>
<linearGradient id="paint12_linear_189_17016" x1="67.839" y1="54.436" x2="69.6492" y2="54.436" gradientUnits="userSpaceOnUse">
<stop stop-color="#52B4FF"/>
<stop offset="1" stop-color="#175688"/>
</linearGradient>
<linearGradient id="paint13_linear_189_17016" x1="68.1922" y1="54.2778" x2="69.6652" y2="54.2778" gradientUnits="userSpaceOnUse">
<stop stop-color="#52B4FF"/>
<stop offset="1" stop-color="#175688"/>
</linearGradient>
<linearGradient id="paint14_linear_189_17016" x1="63.9263" y1="52.1436" x2="65.7239" y2="52.1436" gradientUnits="userSpaceOnUse">
<stop stop-color="#52B4FF"/>
<stop offset="1" stop-color="#175688"/>
</linearGradient>
<linearGradient id="paint15_linear_189_17016" x1="64.2827" y1="51.974" x2="65.7399" y2="51.974" gradientUnits="userSpaceOnUse">
<stop stop-color="#52B4FF"/>
<stop offset="1" stop-color="#175688"/>
</linearGradient>
<linearGradient id="paint16_linear_189_17016" x1="60.0037" y1="49.8363" x2="61.8157" y2="49.8363" gradientUnits="userSpaceOnUse">
<stop stop-color="#52B4FF"/>
<stop offset="1" stop-color="#175688"/>
</linearGradient>
<linearGradient id="paint17_linear_189_17016" x1="60.3701" y1="49.6723" x2="61.8303" y2="49.6723" gradientUnits="userSpaceOnUse">
<stop stop-color="#52B4FF"/>
<stop offset="1" stop-color="#175688"/>
</linearGradient>
<linearGradient id="paint18_linear_189_17016" x1="56.0949" y1="47.5372" x2="57.9053" y2="47.5372" gradientUnits="userSpaceOnUse">
<stop stop-color="#52B4FF"/>
<stop offset="1" stop-color="#175688"/>
</linearGradient>
<linearGradient id="paint19_linear_189_17016" x1="56.4611" y1="47.3841" x2="57.9183" y2="47.3841" gradientUnits="userSpaceOnUse">
<stop stop-color="#52B4FF"/>
<stop offset="1" stop-color="#175688"/>
</linearGradient>
<linearGradient id="paint20_linear_189_17016" x1="52.1857" y1="45.2458" x2="53.9961" y2="45.2458" gradientUnits="userSpaceOnUse">
<stop stop-color="#52B4FF"/>
<stop offset="1" stop-color="#175688"/>
</linearGradient>
<linearGradient id="paint21_linear_189_17016" x1="52.5521" y1="45.0816" x2="54.0092" y2="45.0816" gradientUnits="userSpaceOnUse">
<stop stop-color="#52B4FF"/>
<stop offset="1" stop-color="#175688"/>
</linearGradient>
<linearGradient id="paint22_linear_189_17016" x1="48.2712" y1="42.9365" x2="50.0862" y2="42.9365" gradientUnits="userSpaceOnUse">
<stop stop-color="#52B4FF"/>
<stop offset="1" stop-color="#175688"/>
</linearGradient>
<linearGradient id="paint23_linear_189_17016" x1="48.626" y1="42.7782" x2="50.099" y2="42.7782" gradientUnits="userSpaceOnUse">
<stop stop-color="#52B4FF"/>
<stop offset="1" stop-color="#175688"/>
</linearGradient>
<linearGradient id="paint24_linear_189_17016" x1="118.61" y1="73.5649" x2="126.556" y2="73.5649" gradientUnits="userSpaceOnUse">
<stop stop-color="#52B4FF"/>
<stop offset="1" stop-color="#175688"/>
</linearGradient>
<linearGradient id="paint25_linear_189_17016" x1="112.402" y1="76.2942" x2="124.902" y2="76.2942" gradientUnits="userSpaceOnUse">
<stop stop-color="#52B4FF"/>
<stop offset="1" stop-color="#175688"/>
</linearGradient>
<linearGradient id="paint26_linear_189_17016" x1="105.951" y1="76.8608" x2="112.395" y2="76.8608" gradientUnits="userSpaceOnUse">
<stop stop-color="#52B4FF"/>
<stop offset="1" stop-color="#175688"/>
</linearGradient>
</defs>
</svg>
