<svg width="50" height="47" viewBox="0 0 50 47" fill="none" xmlns="http://www.w3.org/2000/svg">
<path opacity="0.3" d="M4.3475 30.2729L22.2408 40.6489C28.9942 44.5501 38.2919 46.6188 47.8323 46.3451L49.0247 46.3109L49.0833 45.6219C49.0882 45.5747 49.0882 45.5258 49.0931 45.4786C48.738 40.6098 45.2408 35.9658 39.2171 32.4882L21.3238 22.1105C14.4662 18.1507 11.5847 19.8887 1.90417 20.2356L1.12719 20.2585L1.09624 20.7031C0.853538 22.9575 0.221529 24.5718 0 25.9563C0.283427 27.2985 1.40736 28.5756 4.3475 30.2729Z" fill="black"/>
<path d="M5.07422 17.4144C5.07422 17.4144 5.84143 25.5295 10.6141 29.5105C12.4547 31.2144 27.8803 41.0561 34.3714 40.3639C45.8649 38.6275 46.9155 34.1838 46.9155 34.1838L5.07422 17.4144Z" fill="#262626"/>
<path d="M7.13867 24.7786C7.53938 25.6305 8.01501 26.4808 8.57861 27.2757C9.15849 28.0951 25.7471 38.994 35.3852 40.2026C36.4652 39.9957 37.4555 39.8279 38.371 39.5885C22.4128 36.707 7.13867 24.7786 7.13867 24.7786Z" fill="#D63A3A"/>
<path d="M6.10609 11.2442L6.17614 10.635L6.80489 10.5796C15.5032 10.2717 18.0377 9.00607 24.2014 12.5294L38.1089 20.423C44.1765 23.8941 47.3968 28.67 46.9717 33.5714L46.9179 34.1838L45.8477 34.2131C37.2749 34.4559 28.9236 32.6168 22.856 29.1457L8.94851 21.2521C2.78479 17.7288 5.56693 16.2188 6.10609 11.2442Z" fill="#4D4D4D"/>
<path d="M6.822 12.4365L7.49473 12.417C15.8656 12.1156 18.3562 10.6154 24.2886 14.0394L37.709 21.8108C42.9165 24.8177 45.9414 28.8329 46.2476 33.0436C46.593 28.3231 43.4981 23.7329 37.709 20.3904L24.2886 12.6157C18.3562 9.1918 15.8656 10.6936 7.49473 10.995L6.822 11.0129L6.79594 11.3973C6.49785 14.1583 5.5254 15.8116 5.84792 17.3607C6.0385 16.1634 6.58581 14.7658 6.79594 12.8177L6.822 12.4365Z" fill="#262626"/>
<path d="M9.60355 21.0957L23.024 28.8704C28.8652 32.2422 36.9037 34.0307 45.154 33.7945L46.1868 33.7652L46.2373 33.1706C46.2405 33.1299 46.2421 33.0876 46.2454 33.0485C45.9392 28.8362 42.9143 24.8209 37.7068 21.8156L24.2864 14.0442C18.3539 10.6187 15.8634 12.1205 7.49251 12.4219L6.81978 12.4414L6.79372 12.8242C6.58359 14.7723 6.03628 16.1699 5.8457 17.3671C6.08841 18.5253 7.06085 19.6264 9.60355 21.0957Z" fill="#CF7C00"/>
<path d="M19.4039 19.1183L14.1523 16.0853V22.6106L19.4039 25.6436V19.1183Z" fill="#ABBDCC"/>
<path d="M19.4039 19.1183L14.1523 16.0853V16.9649L19.4039 19.9962V19.1183Z" fill="#85939E"/>
<path d="M30.3863 12.7363L19.4043 19.1867V25.6436L30.3863 19.2616V12.7363Z" fill="#C3D7E8"/>
<path d="M20.8301 21.3612L21.7976 20.8041V19.3691L20.8301 19.9278V21.3612Z" fill="#25A4C4"/>
<path d="M23.3594 19.8952L24.3269 19.3382V17.9047L23.3594 18.4618V19.8952Z" fill="#25A4C4"/>
<path d="M25.7695 18.4976L26.7338 17.9405V16.5055L25.7695 17.0642V18.4976Z" fill="#25A4C4"/>
<path d="M28.207 17.0936L29.1713 16.5348V15.1014L28.207 15.6585V17.0936Z" fill="#25A4C4"/>
<path d="M30.3863 12.7363L19.4043 19.1867V19.9962L30.3863 13.6159V12.7363Z" fill="#85939E"/>
<path d="M21.0703 20.1477L12.4844 15.1926L12.486 13.0751L21.0703 18.0302V20.1477Z" fill="#ABBDCC"/>
<path d="M19.0499 22.1659L18.084 21.6089V20.1738L19.0499 20.7325V22.1659Z" fill="#25A4C4"/>
<path d="M17.2862 21.1495L16.3203 20.5924V19.159L17.2862 19.7161V21.1495Z" fill="#25A4C4"/>
<path d="M15.5268 20.1331L14.5625 19.576V18.1426L15.5268 18.6997V20.1331Z" fill="#25A4C4"/>
<path d="M21.0725 18.0302L12.4883 13.0751L23.4686 6.69312L32.0545 11.6498L21.0725 18.0302Z" fill="#C3D7E8"/>
<path d="M31.3793 11.684L29.7472 12.6353L23.3848 8.96052V7.06775L31.3793 11.684Z" fill="#9DACBA"/>
<path d="M23.3857 8.96052L14.7884 13.9514L13.1562 13.0116L23.3857 7.06775V8.96052Z" fill="#92A2AD"/>
<path d="M29.7468 12.6352L21.1512 17.6262L14.7871 13.9514L23.3844 8.96045L29.7468 12.6352Z" fill="#A5B6C4"/>
<path d="M32.0523 13.7673L21.0703 20.1477V18.0302L32.0523 11.6498V13.7673Z" fill="#D6ECFF"/>
<path d="M21.0353 14.1534L16.709 11.6547V14.1111L21.0353 16.6098V14.1534Z" fill="#696969"/>
<path d="M25.9187 11.3354L21.5924 8.83508L16.709 11.6547L21.0353 14.1534L25.9187 11.3354Z" fill="#B5B5B5"/>
<path d="M24.9817 11.2931L23.861 10.6448L22.5938 11.3762L23.7161 12.0244L24.9817 11.2931Z" fill="#2E2E2E"/>
<path d="M24.6961 11.3028L23.8458 10.8109L22.8848 11.3664L23.735 11.8567L24.6961 11.3028Z" fill="#4F4F4F"/>
<path d="M25.9186 13.7901L21.0352 16.6097V14.1534L25.9186 11.3354V13.7901Z" fill="#9E9E9E"/>
<path d="M21.1635 0L21.1016 10.2294L21.2237 10.3011L21.1635 0Z" fill="#4F4F4F"/>
<path d="M21.7904 0.343689L21.7285 10.5731L21.8523 10.6448L21.7904 0.343689Z" fill="#4F4F4F"/>
<path d="M20.2652 9.59576C19.2227 9.59576 18.3789 10.4395 18.3789 11.4804C18.3789 11.7606 18.563 12.0391 18.9311 12.2509C19.6674 12.6776 20.863 12.6776 21.5992 12.2509C21.9673 12.0391 22.1514 11.7606 22.1514 11.4804C22.1498 10.4395 21.3044 9.59576 20.2652 9.59576Z" fill="#737373"/>
<path d="M21.0352 10.003C21.5531 10.4851 21.7796 11.1025 21.9522 11.7883C22.1444 11.5325 22.006 11.1237 22.006 11.1237C22.006 11.1237 21.8398 10.2815 21.0352 10.003Z" fill="#BDBDBD"/>
</svg>
